<?xml version="1.0" encoding="utf-8"?>
<!-- Generator: Adobe Illustrator 26.5.3, SVG Export Plug-In . SVG Version: 6.00 Build 0)  -->
<svg version="1.1" id="Layer_1" xmlns="http://www.w3.org/2000/svg" xmlns:xlink="http://www.w3.org/1999/xlink" x="0px" y="0px"
	 viewBox="0 0 200 300" style="enable-background:new 0 0 200 300;" xml:space="preserve">
<style type="text/css">
	.st0{fill:#8B0723;}
</style>
<g>
	<g>
		<path class="st0" d="M22.9,9c2.7,0,4.9,2,4.9,4.5s-2.2,4.5-4.9,4.5c-2.7,0-4.9-2-4.9-4.5C18,11,20.2,9,22.9,9z"/>
		<path class="st0" d="M69,9c2.7,0,4.9,2,4.9,4.5s-2.2,4.5-4.9,4.5c-2.7,0-4.9-2-4.9-4.5C64.1,11,66.3,9,69,9z"/>
		<path class="st0" d="M115.1,9c2.7,0,4.9,2,4.9,4.5s-2.2,4.5-4.9,4.5c-2.7,0-4.9-2-4.9-4.5C110.2,11,112.4,9,115.1,9z"/>
	</g>
	<g>
		<path class="st0" d="M22.9,51.2c2.7,0,4.9,2,4.9,4.5c0,2.5-2.2,4.5-4.9,4.5c-2.7,0-4.9-2-4.9-4.5C18,53.2,20.2,51.2,22.9,51.2z"/>
		<path class="st0" d="M69,51.2c2.7,0,4.9,2,4.9,4.5c0,2.5-2.2,4.5-4.9,4.5c-2.7,0-4.9-2-4.9-4.5C64.1,53.2,66.3,51.2,69,51.2z"/>
		<path class="st0" d="M115.1,51.2c2.7,0,4.9,2,4.9,4.5c0,2.5-2.2,4.5-4.9,4.5c-2.7,0-4.9-2-4.9-4.5
			C110.2,53.2,112.4,51.2,115.1,51.2z"/>
	</g>
	<g>
		<path class="st0" d="M22.9,93.4c2.7,0,4.9,2,4.9,4.5c0,2.5-2.2,4.5-4.9,4.5c-2.7,0-4.9-2-4.9-4.5C18,95.4,20.2,93.4,22.9,93.4z"/>
		<path class="st0" d="M69,93.4c2.7,0,4.9,2,4.9,4.5c0,2.5-2.2,4.5-4.9,4.5c-2.7,0-4.9-2-4.9-4.5C64.1,95.4,66.3,93.4,69,93.4z"/>
		<path class="st0" d="M115.1,93.4c2.7,0,4.9,2,4.9,4.5c0,2.5-2.2,4.5-4.9,4.5c-2.7,0-4.9-2-4.9-4.5
			C110.2,95.4,112.4,93.4,115.1,93.4z"/>
	</g>
	<g>
		<path class="st0" d="M22.9,135.5c2.7,0,4.9,2,4.9,4.5c0,2.5-2.2,4.5-4.9,4.5c-2.7,0-4.9-2-4.9-4.5C18,137.5,20.2,135.5,22.9,135.5
			z"/>
		<path class="st0" d="M69,135.5c2.7,0,4.9,2,4.9,4.5c0,2.5-2.2,4.5-4.9,4.5c-2.7,0-4.9-2-4.9-4.5C64.1,137.5,66.3,135.5,69,135.5z"
			/>
		<path class="st0" d="M115.1,135.5c2.7,0,4.9,2,4.9,4.5c0,2.5-2.2,4.5-4.9,4.5c-2.7,0-4.9-2-4.9-4.5
			C110.2,137.5,112.4,135.5,115.1,135.5z"/>
	</g>
	<g>
		<path class="st0" d="M22.9,177.7c2.7,0,4.9,2,4.9,4.5c0,2.5-2.2,4.5-4.9,4.5c-2.7,0-4.9-2-4.9-4.5C18,179.7,20.2,177.7,22.9,177.7
			z"/>
		<path class="st0" d="M69,177.7c2.7,0,4.9,2,4.9,4.5c0,2.5-2.2,4.5-4.9,4.5c-2.7,0-4.9-2-4.9-4.5C64.1,179.7,66.3,177.7,69,177.7z"
			/>
		<path class="st0" d="M115.1,177.7c2.7,0,4.9,2,4.9,4.5c0,2.5-2.2,4.5-4.9,4.5c-2.7,0-4.9-2-4.9-4.5
			C110.2,179.7,112.4,177.7,115.1,177.7z"/>
	</g>
	<g>
		<path class="st0" d="M22.9,219.9c2.7,0,4.9,2,4.9,4.5c0,2.5-2.2,4.5-4.9,4.5c-2.7,0-4.9-2-4.9-4.5C18,221.9,20.2,219.9,22.9,219.9
			z"/>
		<path class="st0" d="M69,219.9c2.7,0,4.9,2,4.9,4.5c0,2.5-2.2,4.5-4.9,4.5c-2.7,0-4.9-2-4.9-4.5C64.1,221.9,66.3,219.9,69,219.9z"
			/>
		<path class="st0" d="M115.1,219.9c2.7,0,4.9,2,4.9,4.5c0,2.5-2.2,4.5-4.9,4.5c-2.7,0-4.9-2-4.9-4.5
			C110.2,221.9,112.4,219.9,115.1,219.9z"/>
	</g>
	<g>
		<path class="st0" d="M22.9,262.1c2.7,0,4.9,2,4.9,4.5c0,2.5-2.2,4.5-4.9,4.5c-2.7,0-4.9-2-4.9-4.5C18,264.1,20.2,262.1,22.9,262.1
			z"/>
		<path class="st0" d="M69,262.1c2.7,0,4.9,2,4.9,4.5c0,2.5-2.2,4.5-4.9,4.5c-2.7,0-4.9-2-4.9-4.5C64.1,264.1,66.3,262.1,69,262.1z"
			/>
		<path class="st0" d="M115.1,262.1c2.7,0,4.9,2,4.9,4.5c0,2.5-2.2,4.5-4.9,4.5c-2.7,0-4.9-2-4.9-4.5
			C110.2,264.1,112.4,262.1,115.1,262.1z"/>
	</g>
</g>
</svg>
