<?xml version="1.0" encoding="utf-8"?>
<!-- Generator: Adobe Illustrator 26.5.3, SVG Export Plug-In . SVG Version: 6.00 Build 0)  -->
<svg version="1.1" id="Layer_1" xmlns="http://www.w3.org/2000/svg" xmlns:xlink="http://www.w3.org/1999/xlink" x="0px" y="0px"
	 viewBox="0 0 3000 700" style="enable-background:new 0 0 3000 700;" xml:space="preserve">
<style type="text/css">
	.st0{fill:#54534D;stroke:#8B0723;stroke-width:5;stroke-miterlimit:10;}
	.st1{fill:none;}
	.st2{fill:#8B0723;stroke:#54534D;stroke-width:10;stroke-miterlimit:10;}
	.st3{font-family:'Laila-Regular';}
	.st4{font-size:350px;}
	.st5{fill:#8C0E1C;stroke:#8B0723;stroke-width:2;stroke-miterlimit:10;}
</style>
<g>
	<path class="st0" d="M432.2,243.4c-13.3,5.5-23.6,13.6-30.9,24.5c-7.3,10.9-11,24.5-11,40.8c0,3.8,0.2,6.9,0.7,9.3
		c0.4,2.4,0.9,4.3,1.4,5.8c0.5,1.5,1,2.6,1.4,3.4c0.4,0.8,0.7,1.5,0.7,2.1c-5.2,0-9.8-0.5-13.8-1.5c-4-1-7.3-2.7-10-5
		c-2.7-2.3-4.7-5.3-6.2-9c-1.4-3.7-2.1-8.3-2.1-13.6c0-6.6,1.4-13.2,4.3-19.6c2.9-6.4,6.8-12.5,11.9-18.3c5-5.8,10.9-11.1,17.7-16
		c6.8-4.9,14.1-9.2,21.8-12.7c7.8-3.6,15.9-6.3,24.3-8.3c8.4-2,16.9-3,25.3-3c2.2,0,4.3,0.1,6.2,0.2s3.8,0.3,5.8,0.5l-46.1,215.3
		c5.2,1.2,10.4,3,15.6,5.3c5.2,2.4,10.5,5,15.9,7.9c5.4,2.9,10.8,5.8,16.3,8.8c5.5,3,11.1,5.7,16.8,8.2s11.6,4.5,17.6,6.1
		c6,1.6,12.2,2.3,18.5,2.3c4.1,0,8.2-0.3,12.4-1c4.1-0.7,8.4-2,12.8-3.8c-0.9,7.2-2.2,13.7-4,19.6c-1.8,5.8-4,10.8-6.7,14.9
		s-5.7,7.3-9.2,9.4c-3.5,2.2-7.3,3.3-11.4,3.3c-7.1,0-14.2-1.7-21.1-5.1c-6.9-3.4-13.9-7.6-20.9-12.6c-7-5-14-10.5-21.2-16.4
		c-7.1-5.9-14.5-11.4-22-16.4c-7.5-5-15.3-9.2-23.4-12.6s-16.5-5.1-25.4-5.1c-1.2,0-2.3,0-3.4,0c-1.1,0-2.2,0.1-3.5,0.3L432.2,243.4
		z"/>
	<path class="st0" d="M546.3,429.1c-2.2,2.3-4.6,4.5-7.2,6.5c-2.5,2-5.3,3.8-8.3,5.3c-3,1.5-6.2,2.7-9.6,3.6
		c-3.4,0.9-7.1,1.3-11,1.3c-5.2,0-10.2-0.8-14.9-2.5c-4.8-1.7-9-4.4-12.7-8.2c-3.7-3.8-6.7-8.8-8.9-14.9s-3.4-13.7-3.4-22.6
		c0-6.8,0.7-14.2,2.1-22c1.4-7.8,3.5-15.6,6.3-23.4c2.8-7.8,6.4-15.3,10.6-22.5s9.2-13.5,14.9-19c5.7-5.5,12.2-9.9,19.4-13.2
		c7.2-3.3,15.2-4.9,23.9-4.9c8.5,0,14.7,1.5,18.5,4.4c3.9,2.9,5.8,6.5,5.8,10.8v0.6l2.9-14.4h43.5l-36.6,174
		c-2.1,10.7-5.3,19.4-9.4,26.1c-4.2,6.6-8.7,11.8-13.8,15.5c-5,3.7-10.3,6.2-15.8,7.5c-5.5,1.3-10.7,1.9-15.6,1.9
		c-4.5,0-8.9-0.8-13.1-2.3c-4.2-1.6-8-3.8-11.3-6.6c-3.3-2.8-5.9-6.2-7.9-10.2c-2-4-3-8.4-3-13.3c0-7,1.3-12.9,4-17.7
		c2.7-4.8,6.4-8.8,11.1-12.2c4.7-3.3,10.2-6.1,16.5-8.4c6.3-2.3,13.1-4.5,20.3-6.7L546.3,429.1z M541.4,451.2
		c-4.7,1.6-9.1,3.3-13.2,5.3c-4.1,2-7.6,4.2-10.6,6.7c-3,2.5-5.3,5.3-7,8.5c-1.7,3.2-2.6,6.8-2.6,10.8c0,1.2,0.3,2.3,0.9,3.5
		s1.4,2.2,2.5,3.1c1.1,0.9,2.3,1.7,3.8,2.3c1.5,0.6,3.1,1,4.8,1c1.6,0,3.2-0.4,4.9-1.1c1.7-0.7,3.3-2,4.9-3.8c1.6-1.8,3-4.2,4.4-7.3
		c1.4-3,2.5-6.8,3.5-11.3L541.4,451.2z M569,321.6c-0.2-1-0.5-2.1-1-3.2s-1.1-2.3-2-3.4c-0.9-1.1-2.1-2-3.6-2.7
		c-1.5-0.7-3.4-1.1-5.8-1.1c-4.2,0-8.2,1.4-11.9,4.1c-3.8,2.7-7.2,6.4-10.3,10.9c-3.1,4.5-5.9,9.7-8.3,15.5
		c-2.4,5.8-4.5,11.7-6.2,17.8c-1.7,6.1-3,12.1-3.9,18c-0.9,5.9-1.3,11.2-1.3,15.9c0,5.8,0.5,10.2,1.6,13.3c1.1,3.1,2.4,5.4,3.9,7
		c1.5,1.5,3.1,2.4,4.9,2.7s3.3,0.4,4.7,0.4c2.1,0,4.2-0.5,6.5-1.4c2.3-0.9,4.6-2.3,6.8-4.2c2.2-1.9,4.3-4.2,6.2-7
		c1.9-2.8,3.4-6.2,4.5-10L569,321.6z"/>
</g>
<rect x="708.7" y="221.8" class="st1" width="2107.3" height="308.8"/>
<text transform="matrix(1 0 0 1 708.6841 487.8408)" class="st2 st3 st4">Ledger Nest</text>
<path class="st5" d="M708.2,325.6c0.1,2.1,0.3,4.2,0.4,6.2c0.2,7.6,0.6,15.2,0.4,22.8c-0.4,14.2-2.6,28.1-6.1,41.9
	c-5.7,22.1-14.8,42.8-27.4,62c-3.8,5.7-7.9,11.2-12.1,16.6c-4.4,5.7-8.8,11.3-13.5,16.7c-17.6,19.9-38.6,35.6-63,47.2
	c-16.5,7.8-33.8,13.4-51.9,16.6c-15.1,2.7-30.3,3.6-45.6,2.9c-16.1-0.7-32-3.1-47.3-8c-17.6-5.7-35.1-11.6-51.4-20.3
	c-13.9-7.4-26.8-16.1-38.7-26.2c-21.5-18.1-38.3-39.6-51.3-64.1c-3-5.6-5.4-11.4-8-17.2c-0.2-0.5-0.4-0.9-0.7-1.4
	c-0.1,0-0.2,0-0.4,0.1c0.1,0.4,0.1,0.8,0.2,1.3c3.6,12.6,8.6,24.7,14.6,36.4c13,25.1,30.6,46.8,52.7,64.9
	c25.7,21.1,54.9,35.5,87.6,43.3c10.3,2.5,20.7,4.2,31.2,5.1c12,1.1,24.1,1.3,36.1,0.4c21-1.5,41.3-5.8,60.9-13.3
	c22.6-8.6,43.3-20.2,61.7-35.6c14.2-11.8,26.8-25.1,37.5-40c15.6-21.8,26.6-45.6,32.9-71.4c0.5-2.1,1-4.2,1.5-6.3c0.1,0,0.3,0,0.4,0
	c-3.9,18.8-10,36.9-19.1,54.1c-10.1,19.2-23.1,36.4-38.6,51.7c-16.9,16.6-36.2,29.7-57.8,40c-17.4,8.4-35.5,14.5-54.6,18
	c-16.3,3.1-32.7,4.3-49.3,3.7c-25.6-1-50.2-6.2-73.9-15.6c-23.6-9.4-44.8-22.5-63.6-39.2c-17.8-15.8-32.6-33.9-44-54.6
	c-9.7-17.6-16.8-36.1-21-55.6c-1.7-7.6-3.5-15.2-5.1-22.8c-1.8-8.4-2.8-16.9-3.4-25.5c-0.6-9.5-0.6-18.9,0.1-28.4
	c0.9-12.2,2.8-24.4,6-36.3c6-22.7,15.8-43.9,29.2-63.4c9.9-14.6,21.7-27.8,35.1-39.6c13.6-11.9,28.5-22,44.8-30.2
	c18.7-9.4,38.5-16.1,59.3-19.9c8.5-1.6,17.2-2.6,25.8-3.2c13.7-0.9,27.3-0.6,40.9,0.9c35,4.1,66.9,16.1,95.9,35.5
	c32.9,22,57.7,50.6,74.5,85.8c7.9,16.6,13.4,34,16.2,52.1c0.3,1.9,0.8,3.8,1.2,5.7c0.1,1.1,0.1,2.2,0.2,3.2c0,0.3,0.1,0.7,0.1,1
	c0,0.1,0.1,0.2,0.1,0.2C707.9,324.5,708.1,325,708.2,325.6L708.2,325.6z M346.1,489.6c0.1,0,0.2,0.1,0.2,0.2c0,0,0-0.1,0-0.1
	C346.3,489.6,346.2,489.6,346.1,489.6c0-0.1,0-0.1,0-0.2c-0.1,0-0.1,0-0.2,0C346,489.4,346.1,489.5,346.1,489.6z M345.5,489
	c0.1,0,0.2,0.1,0.3,0.1c-0.1-0.1-0.1-0.2-0.2-0.3c-0.1-0.1-0.2-0.2-0.2-0.3c-0.1-0.1-0.2-0.2-0.2-0.3c-0.3-0.4-0.7-0.7-1-1.1
	c-0.1,0.1-0.2,0.2-0.3,0.3c0.4,0.4,0.7,0.7,1,1.1c0.1,0.1,0.2,0.2,0.3,0.2C345.3,488.9,345.4,488.9,345.5,489z M672.8,460.2
	c0.2-0.2,0.3-0.5,0.5-0.7c-0.1,0-0.2-0.1-0.3-0.1c-0.1,0.2-0.3,0.5-0.4,0.7c0,0.1,0,0.2-0.1,0.4
	C672.6,460.4,672.7,460.3,672.8,460.2z M674.1,458.2c0.5-0.8,0.9-1.5,1.4-2.3c4.4-6.7,8.2-13.7,11.7-20.9
	c7-14.4,12.2-29.5,15.6-45.1c2.1-9.6,3.6-19.2,4-29c0.3-7.6,0.6-15.2,0.2-22.7c-0.4-8.3-1.5-16.6-2.4-24.9c-0.7-6.6-2.9-12.8-5.1-19
	l0,0c-0.6-2.6-1-5.4-1.7-8c-3.6-12.2-8.9-23.9-15-35.2c-14-26-33-48.1-56.7-66.3c-15.5-11.9-32.5-21.6-50.7-28.9
	c-19.4-7.9-39.7-12.7-60.6-14.8c-12.1-1.2-24.2-1.4-36.3-0.6c-11.4,0.7-22.6,2.4-33.7,4.9c-22.8,5.1-44.2,13.6-64.1,25.5
	c-24.4,14.6-45,33.2-61.8,55.8c-10.3,13.9-18.6,28.9-25.2,44.7c-8.9,21.4-13.5,43.6-14.6,66.6c-0.7,15.9,0.4,31.6,3.3,47.2
	c0.1,0.6,0.3,1.3,0.4,1.9c0.1,0.6,0.3,1.2,0.4,1.8c0.2-0.3,0.2-0.5,0.2-0.8c-1.1-10.3-1.6-20.7-1.1-31.1c0.5-12.2,2.1-24.4,4.8-36.3
	c4.4-20.1,12.2-38.9,22.6-56.7c10.9-18.6,24.2-35.3,40.3-50c12.9-11.8,27.1-21.9,42.7-30.2c20.3-10.9,41.8-18.4,64.6-22.5
	c0,0.1,0,0.2,0,0.4c-10.1,2-20.1,4.6-29.8,8c-7.5,2.6-14.9,5.3-21.9,9c-0.2,0.1-0.4,0.1-0.6,0.2c0,0,0,0.1,0.1,0.1
	c0.3,0,0.5-0.1,0.8-0.1c0.3-0.1,0.6-0.2,0.8-0.3c12.2-5.2,24.9-8.9,37.9-11.5c11.7-2.4,23.6-3.7,35.6-4c13.7-0.4,27.3,0.8,40.8,3.1
	c17.5,3,34.2,8.4,50.3,15.8c14.4,6.7,27.7,14.9,40.1,24.7c3.4,2.7,6.5,5.6,9.9,8.2c20.2,15.3,36.8,33.6,49.7,55.1
	c10.4,17.3,17.8,35.7,22.2,55.3c2.1,9.6,3.5,19.4,4.4,29.2c0.8,9.9,0.8,19.8-0.1,29.7c-0.6,6.4-1.6,12.7-2.6,19
	c-2.3,13.6-6.7,26.7-12.5,39.2c-2.1,4.5-4.6,8.9-7,13.3c-0.5,0.8-1,1.6-1.5,2.4c-0.2,0.4-0.4,0.7-0.6,1.1c0.1,0,0.2,0.1,0.3,0.1
	C673.6,458.9,673.9,458.6,674.1,458.2z M500.2,176.3L500.2,176.3c-4.8,0-9.6-0.2-14.3,0.1c-8.8,0.5-17.5,1.8-26.1,3.6
	c-18.1,3.8-35.2,9.9-51.5,18.5c-19,10-35.9,22.7-50.5,38.1c-12.5,13.1-22.8,27.6-31,43.6c-8.3,16.2-14.2,33.2-17.3,51
	c-1.4,7.9-2.6,15.8-2.7,23.8c-0.1,7.7,0.1,15.5,0.3,23.2c0.1,7,1,13.9,2.5,20.7c1.6,7.4,3.3,14.8,5.3,22.1c2,7.4,5,14.4,8.3,21.3
	c12.8,27,31.1,49.9,54.9,68.8c8.5,6.7,17.8,12.5,27.1,18c0.6,0.4,1.3,0.8,2,1.1c7.9,3.3,16,6.1,24.2,8.4c14.9,4.2,30.1,6.6,45.5,7.3
	c16.6,0.7,33-0.7,49.3-3.9c22.7-4.5,43.7-12.8,63.3-24.7c17.3-10.6,32.7-23.3,45.7-38.6c12.3-14.5,22.2-30.3,29.6-47.6
	c8.1-19,12.8-38.8,14.4-59.3c1-14,0.4-27.9-1.8-41.8c-2.8-17.8-8.2-34.8-15.9-51.1c-10.6-22.4-25.3-41.9-44.2-58.5
	c-5.9-5.1-11.8-10.2-18.1-14.9c-8.7-6.5-18.2-11.8-28-16.6c-1.1-0.5-2.2-1.3-3.4-1.6c-10.8-3.2-21.5-6.6-32.6-8.4
	c-8.6-1.4-17.2-2.7-26-2.6C506,176.4,503.1,176.3,500.2,176.3z M429.4,540.2c0,0.1,0,0.1-0.1,0.2c0.3,0.1,0.6,0.2,0.9,0.3
	c21.2,8,43.3,12.2,66,12.6c9.7,0.2,19.4-0.5,29.1-1.7c10.5-1.3,20.9-3.2,31.1-6.2c19.8-5.7,38.1-14.3,55-25.6
	c19.5-13.1,36-29.1,49.5-48c8.3-11.6,15.1-24,20.6-37.1c7.9-18.8,12.2-38.4,13.2-58.7c0.4-9.2,0.5-18.4-0.4-27.7
	c-1.1-11.7-3.1-23.2-6.5-34.4c-5.9-19.9-14.3-38.6-26.3-55.8c-8-11.5-17.3-22-27.8-31.5c-0.3-0.3-0.7-0.5-1.1-0.7
	c4.8,5.9,9.8,11.7,14.3,17.8c22,30,33.8,63.4,36.1,100.1c1,17.2-0.4,34.2-4.2,51.1c-3.9,17.2-10,33.5-18.4,49.1
	c-7.7,14.2-17.1,27.3-28.3,39.2c-9,9.5-18.7,18.1-29.4,25.8c-18.1,13.1-37.9,22.8-59.4,29.4c-16.1,5-32.7,7.8-49.6,8.8
	c-8.3,0.5-16.6,0.5-24.9-0.2c-4.9-0.4-9.8-1-14.7-1.6c-7.7-0.9-15.2-2.9-22.7-4.7C430.9,540.4,430.2,540.3,429.4,540.2z
	 M557.8,183.4c0-0.1,0.1-0.1,0.1-0.2c-0.3-0.1-0.6-0.3-0.9-0.4c-4.4-1.5-8.7-3.2-13.2-4.5c-15.1-4.6-30.5-7.4-46.3-8.4
	c-14.9-0.9-29.6-0.2-44.3,2.1c-12.6,2-24.9,5-36.9,9.2c-24.9,8.9-47.2,22.1-66.4,39.8c-15,13.8-27.3,29.6-37,47.3
	c-13.2,24.2-20.7,49.9-22.5,77.2c-1,15.2,0.1,30.2,2.8,45.1c3.2,17.3,8.9,33.8,16.7,49.5c8.5,17.3,19.7,32.8,33.4,46.7
	c0.2,0.2,0.5,0.3,0.7,0.5c0-0.4-0.1-0.7-0.3-0.9c-7.6-9.2-14.3-19.1-20.1-29.5c-13.5-24.5-21.1-50.6-23-78.3
	c-1.1-16,0-31.9,3.1-47.6c3-15.6,8-30.6,15-44.9c12.3-25.5,29.6-47.3,51.8-65.5c13.6-11.1,28.6-20.3,44.7-27.6
	c14.5-6.5,29.5-11.3,45.2-14.3c7.8-1.5,15.7-2.6,23.6-3.1c5.9-0.3,11.8-0.1,17.8-0.2c4,0,8.1-0.2,12.1,0c12.9,0.8,25.7,3,38.2,6.5
	C554.1,182.5,556,182.9,557.8,183.4z M412.2,539.3c0-0.1,0.1-0.1,0.1-0.2c-0.3-0.1-0.6-0.3-0.8-0.5c-13.4-6.2-25.7-13.8-37.3-22.6
	c-4.9-3.8-10.1-7.2-15.1-11c-6.4-4.8-12.4-10-17.9-15.8c-12.4-13-22.9-27.4-31.7-42.8c-5.2-9-9.3-18.5-12.8-28.3
	c-5.3-15-8.6-30.5-10-46.3c-0.8-9-1-18-0.3-27c0.5-6.6,1.5-13.2,2.2-19.8c0.1-0.9,0.2-1.8,0.4-2.7c-0.3,0.2-0.4,0.5-0.5,0.8
	c-2.9,13.3-4.4,26.7-4.6,40.3c-0.2,11.5,0.7,22.9,2.5,34.2c0.7,4.1,1.3,8.2,2.6,12.1c5.4,16.8,13.1,32.6,22.7,47.5
	c15.6,24.1,35.4,44.3,59.5,60.5c12.5,8.4,25.7,15.5,39.7,21.1C411.3,539.1,411.8,539.2,412.2,539.3z M291.2,420.5
	c0.2,0,0.3-0.1,0.4-0.2c-0.2-0.5-0.4-0.9-0.5-1.4c-0.1,0-0.2,0.1-0.3,0.1C290.9,419.5,291,420,291.2,420.5z M283.6,389.3
	c-0.1,0-0.1,0-0.2,0c0,0.3,0.1,0.7,0.1,1c0.1,0,0.1,0,0.2,0C283.7,389.9,283.6,389.6,283.6,389.3z M290.8,418.6
	c0.1,0,0.1-0.1,0.2-0.1c-0.1-0.1-0.2-0.2-0.3-0.3c0,0-0.1,0-0.2,0.1C290.5,418.4,290.6,418.5,290.8,418.6z M558.2,183.3
	c0,0,0,0.1,0,0.2c0.1,0,0.3,0,0.4,0v-0.1C558.4,183.3,558.3,183.3,558.2,183.3z M672.4,460.8C672.4,460.8,672.4,460.7,672.4,460.8
	c-0.1,0-0.2,0-0.2,0c0,0,0.1,0.1,0.1,0.1C672.3,460.8,672.4,460.8,672.4,460.8z"/>
</svg>
