<?xml version="1.0" encoding="utf-8"?>
<!-- Generator: Adobe Illustrator 26.5.3, SVG Export Plug-In . SVG Version: 6.00 Build 0)  -->
<svg version="1.1" id="Layer_1" xmlns="http://www.w3.org/2000/svg" xmlns:xlink="http://www.w3.org/1999/xlink" x="0px" y="0px"
	 viewBox="0 0 6000 2000" style="enable-background:new 0 0 6000 2000;" xml:space="preserve">
<style type="text/css">
	.st0{fill:#8B181B;stroke:#BE1E2D;stroke-width:12;stroke-miterlimit:10;}
	.st1{fill:#5B5342;stroke:#5B5442;stroke-width:60;stroke-miterlimit:10;}
	.st2{fill:#5B5342;stroke:#8B1725;stroke-width:20;stroke-miterlimit:10;}
	.st3{fill:#8B1725;}
</style>
<path class="st0" d="M1928.99,861.85l-9.24-37.51c-0.01-0.05-0.02-0.1-0.03-0.15c-5.58-36.86-13.59-73.22-24.05-109.08
	c-5.55-19.68-12.96-39.37-20.36-59.05l-11.09-28.59c-0.01-0.03-0.02-0.06-0.04-0.09l-12.94-28.59
	c-9.07-19.64-18.85-38.94-29.34-57.91c-10.49-18.97-21.66-37.55-33.51-55.76c-11.85-18.2-24.35-35.98-37.5-53.33
	c-13.15-17.35-26.92-34.22-41.31-50.63c-14.39-16.4-29.36-32.3-44.92-47.68c-15.55-15.38-31.65-30.21-48.29-44.48
	c-16.64-14.28-33.78-27.97-51.43-41.07c-17.64-13.1-35.75-25.59-54.3-37.45c-28.57-18.53-58.1-35.48-88.61-50.86
	c-30.5-15.38-61.79-29.09-93.86-41.13s-64.73-22.34-97.97-30.89c-33.24-8.55-66.88-15.31-100.89-20.28
	c-45.45-5.93-91.12-8.91-136.98-8.95c-11.29-0.01-22.58,0.18-33.87,0.57c-11.29,0.39-22.56,0.97-33.83,1.75
	c-11.27,0.78-22.51,1.76-33.74,2.93c-11.23,1.17-22.43,2.54-33.61,4.11s-22.32,3.32-33.43,5.28c-11.11,1.95-22.18,4.1-33.21,6.44
	c-11.03,2.34-22.02,4.87-32.95,7.59c-10.94,2.72-21.82,5.64-32.65,8.74c-10.83,3.1-21.59,6.39-32.3,9.87
	c-10.71,3.48-21.34,7.14-31.91,10.99c-10.57,3.85-21.06,7.88-31.48,12.1c-10.42,4.22-20.75,8.61-31.01,13.19
	c-10.25,4.58-20.42,9.33-30.49,14.26c-10.08,4.93-20.06,10.04-29.94,15.32c-9.89,5.28-19.67,10.73-29.35,16.35
	c-9.68,5.62-19.26,11.41-28.72,17.37c-9.47,5.96-18.82,12.07-28.05,18.36c-9.24,6.28-18.35,12.72-27.35,19.32
	s-17.87,13.35-26.61,20.26c-8.74,6.91-17.36,13.97-25.84,21.18c-8.48,7.21-16.82,14.57-25.03,22.07
	c-8.21,7.5-16.27,15.14-24.19,22.93s-15.69,15.7-23.32,23.75c-7.62,8.05-15.1,16.24-22.42,24.55c-7.32,8.31-14.48,16.75-21.48,25.32
	c-7,8.56-13.85,17.25-20.53,26.05c-6.68,8.8-13.19,17.72-19.54,26.75c-6.35,9.03-12.52,18.17-18.53,27.42
	c-6.01,9.25-11.84,18.59-17.49,28.04c-5.66,9.45-11.13,18.99-16.43,28.64c-5.3,9.64-10.42,19.37-15.35,29.19
	c-4.94,9.82-9.69,19.72-14.25,29.71l-12.94,28.59c-0.01,0.03-0.03,0.06-0.04,0.09l-11.09,28.59c-7.4,19.68-14.81,39.37-20.36,59.05
	c-11.47,39.39-20.11,79.36-25.92,119.89c-5.79,38.83-8.99,77.86-9.61,117.09c-0.62,39.23,1.35,78.34,5.91,117.32
	c5.47,44.11,14.1,87.64,25.9,130.58c0.01,0.03,0.02,0.07,0.02,0.1l5.54,26.79c9.05,43.42,21.33,85.97,36.84,127.65
	c15.51,41.68,34.08,82.04,55.72,121.08c21.91,39.28,46.59,76.86,74.04,112.73c27.93,35.35,58.16,68.75,90.7,100.21
	c7.98,7.7,16.11,15.26,24.37,22.68c8.26,7.42,16.66,14.69,25.2,21.81c8.53,7.12,17.2,14.1,26,20.92c8.79,6.82,17.71,13.49,26.76,20
	c9.04,6.51,18.21,12.86,27.49,19.06c9.28,6.19,18.67,12.22,28.18,18.09c9.51,5.87,19.12,11.56,28.83,17.09
	c9.72,5.53,19.54,10.89,29.45,16.08c9.92,5.19,19.93,10.2,30.03,15.04c10.1,4.84,20.3,9.5,30.57,13.98
	c10.28,4.48,20.64,8.79,31.08,12.91c10.44,4.12,20.95,8.06,31.54,11.82c10.59,3.76,21.24,7.33,31.96,10.71
	c10.72,3.39,21.5,6.58,32.34,9.59c10.84,3.01,21.73,5.83,32.67,8.46c10.94,2.63,21.93,5.07,32.97,7.32
	c11.03,2.25,22.11,4.3,33.22,6.16c11.11,1.86,22.25,3.53,33.43,5c11.17,1.47,22.37,2.75,33.59,3.84
	c11.22,1.08,22.46,1.97,33.71,2.66c11.25,0.69,22.52,1.19,33.79,1.49c11.27,0.3,22.55,0.4,33.82,0.31
	c11.28-0.09,22.55-0.38,33.81-0.87c11.27-0.49,22.52-1.17,33.76-2.05s22.46-1.95,33.66-3.22c11.2-1.27,22.37-2.73,33.52-4.39
	c11.15-1.66,22.26-3.51,33.33-5.56c11.08-2.05,22.11-4.28,33.1-6.71c10.99-2.43,21.94-5.05,32.83-7.86c10.9-2.81,21.73-5.81,32.52-9
	c10.78-3.19,21.5-6.57,32.16-10.13c10.66-3.56,21.24-7.31,31.76-11.24l29.62-12.53l29.56-12.5c0.04-0.02,0.07-0.03,0.11-0.05
	l57.33-28.6c36.67-19.18,71.84-40.65,105.51-64.42c32.46-23.45,63.25-48.81,92.37-76.06c29.12-27.25,56.33-56.18,81.63-86.78
	c24.01-29.1,46.08-59.52,66.21-91.25c20.13-31.73,38.17-64.54,54.11-98.43c29.35-63.84,50.95-130.05,64.79-198.63
	c6.05-29.78,10.56-59.77,13.52-89.98c2.96-30.21,4.37-60.49,4.21-90.84c-0.16-30.35-1.87-60.61-5.14-90.79
	C1940.16,921.52,1935.35,891.57,1928.99,861.85L1928.99,861.85L1928.99,861.85z M1914.18,835.01c5.71,38.84,8.87,77.87,9.49,117.09
	c0.62,39.22-1.31,78.33-5.79,117.32c-4.35,36.72-11.02,73.04-20,108.96c-8.98,35.92-20.21,71.18-33.68,105.77
	c-25.5,65-58.2,126.42-98.08,184.27c-0.02,0.03-0.04,0.06-0.06,0.09l-5.52,7.11c19.3-29.35,36.57-59.77,51.83-91.26
	c9.26-17.89,14.81-35.79,22.21-53.68c7.4-17.89,12.96-35.79,18.51-53.68c9.94-35.9,17.34-72.29,22.21-109.15
	c1.85-17.89,5.55-35.79,5.55-55.47c0-19.68,1.85-17.89,1.85-26.84v-26.84c0-17.89,0-35.79-1.85-53.68
	c-1.85-17.88-1.85-35.75-5.54-53.63c-0.01-0.04-0.01-0.07-0.02-0.11c-4.08-33.95-10.29-67.53-18.65-100.75
	c-8.36-33.23-18.8-65.84-31.32-97.82c-23.6-59.97-53.83-116.64-90.7-170c-25.89-37.16-54.67-72.1-86.34-104.82
	c-31.65-32.7-65.79-62.76-102.41-90.19c-0.04-0.03-0.08-0.06-0.11-0.09c-8.15-7.34-16.45-14.52-24.89-21.54
	c-8.46-7.04-17.05-13.92-25.79-20.65c-8.73-6.72-17.6-13.28-26.59-19.67c-9-6.39-18.12-12.61-27.36-18.66s-18.61-11.92-28.09-17.62
	c-9.48-5.7-19.07-11.22-28.77-16.56c-9.7-5.34-19.5-10.5-29.41-15.47c-9.91-4.97-19.91-9.76-30.01-14.36
	c-10.1-4.6-20.28-9.01-30.56-13.23c-10.27-4.22-20.63-8.25-31.06-12.08c-10.44-3.83-20.94-7.47-31.52-10.91
	c-10.58-3.44-21.23-6.68-31.94-9.72c-10.71-3.04-21.48-5.88-32.3-8.52c-10.82-2.64-21.7-5.08-32.62-7.31
	c-10.92-2.23-21.88-4.26-32.89-6.09c-11-1.82-22.04-3.44-33.1-4.85c-11.07-1.41-22.16-2.62-33.27-3.61
	c-11.12-1-22.25-1.79-33.39-2.37c-11.15-0.58-22.3-0.95-33.46-1.12c-11.16-0.16-22.32-0.12-33.48,0.13
	c-11.16,0.25-22.31,0.71-33.45,1.38c-11.14,0.67-22.27,1.55-33.37,2.63c-11.11,1.08-22.19,2.38-33.24,3.88
	c-11.05,1.5-22.08,3.2-33.06,5.11c-10.99,1.91-21.93,4.03-32.83,6.35c-10.9,2.32-21.75,4.84-32.56,7.57
	c-10.8,2.73-21.54,5.65-32.23,8.78c-10.68,3.13-21.3,6.45-31.85,9.98s-21.03,7.24-31.43,11.16c-10.4,3.92-20.72,8.02-30.96,12.32
	c-10.24,4.3-20.39,8.79-30.45,13.47c-10.06,4.68-20.02,9.55-29.88,14.6l75.9-37.58c65.37-28.88,133.24-50.35,203.62-64.42
	c30.68-5.67,61.58-9.85,92.69-12.55c31.11-2.7,62.29-3.9,93.53-3.59c31.24,0.3,62.38,2.1,93.43,5.39s61.86,8.07,92.42,14.33
	c47.43,9.47,93.8,22.45,139.13,38.96c45.32,16.5,89.03,36.32,131.13,59.46c54.91,28.8,106.12,62.8,153.64,102l37.02,32.21
	l12.85,10.65c0.07,0.06,0.14,0.12,0.2,0.19l11.01,12.42l33.32,35.79c41.1,45.28,76.89,94.19,107.36,146.73
	c31.56,55.3,56.86,113.16,75.89,173.57C1908.63,793.85,1912.33,815.33,1914.18,835.01L1914.18,835.01L1914.18,835.01z M96.4,1225.1
	c-7-33.83-11.98-67.93-14.96-102.31c-2.97-34.38-3.91-68.81-2.82-103.29s4.21-68.79,9.34-102.93
	c5.14-34.14,12.27-67.89,21.39-101.24l-5.55,25.05c-3.96,19.43-7.21,38.98-9.74,58.63c-2.53,19.65-4.35,39.37-5.44,59.15
	c-1.09,19.78-1.46,39.57-1.11,59.37c0.35,19.8,1.43,39.57,3.23,59.3c1.8,19.73,4.31,39.37,7.55,58.93
	c3.23,19.56,7.18,38.98,11.83,58.27s10.01,38.39,16.06,57.32c6.05,18.92,12.78,37.62,20.2,56.08c7.4,17.89,14.81,35.79,24.06,53.68
	c9.25,17.88,16.64,33.96,27.73,50.05c0.02,0.03,0.05,0.07,0.07,0.11c18.74,32.98,39.71,64.57,62.91,94.79l35.17,42.95l18.51,21.47
	l18.47,19.64c0.03,0.03,0.06,0.06,0.09,0.09l40.63,37.49c0.03,0.03,0.06,0.06,0.1,0.08l42.48,33.92c0.03,0.03,0.06,0.05,0.1,0.07
	l46.18,32.14c0.03,0.02,0.06,0.04,0.08,0.06c24.25,19.25,49.53,37.14,75.85,53.65c40.68,25.49,83.25,47.56,127.73,66.21
	c-65.96-23.46-128.28-53.88-186.96-91.26c-26.15-16.67-51.37-34.55-75.67-53.64c-24.3-19.09-47.57-39.31-69.79-60.64
	c-22.22-21.33-43.3-43.68-63.22-67.04c-19.92-23.36-38.6-47.62-56.02-72.78c-39.88-57.87-72.58-119.3-98.11-184.31
	c-6.16-16.68-12.33-33.96-18.49-51.83c-0.02-0.04-0.03-0.09-0.04-0.13L96.4,1225.1L96.4,1225.1z M1488.43,1729.72
	c-34.32,21.8-70.09,41.1-107.31,57.89c-37.22,16.79-75.49,30.9-114.82,42.32c-40.11,11.17-80.83,19.52-122.17,25.05
	c-41.14,5.65-82.48,8.63-124.02,8.95c-27.24-0.06-54.4-1.38-81.51-3.97c-27.1-2.59-54.01-6.44-80.73-11.55
	c-26.72-5.11-53.12-11.44-79.21-19.01c-17.14-4.98-34.1-10.47-50.87-16.48c-2.18-0.78-1.19-3.94,1.07-3.41l56.15,13.27
	c28.4,5.22,56.99,9.07,85.79,11.54c28.79,2.47,57.64,3.56,86.55,3.26c28.91-0.3,57.72-1.99,86.46-5.06
	c28.73-3.07,57.24-7.51,85.51-13.33c43.5-9.04,86.03-21.21,127.61-36.51c41.58-15.3,81.72-33.55,120.43-54.75
	c49.69-26.94,95.97-58.55,138.83-94.84l33.28-28.6c0.03-0.02,0.05-0.05,0.08-0.07l11.07-10.7l11.11-10.74l31.47-32.21
	c38.17-41.36,71.49-86.09,99.96-134.21c22.2-37.39,41.37-76.18,57.51-116.37c16.13-40.19,29.05-81.33,38.75-123.41
	c6.21-27.45,11-55.13,14.36-83.04c3.36-27.91,5.27-55.91,5.74-84.01c0.47-28.09-0.52-56.14-2.94-84.14
	c-2.43-28-6.29-55.81-11.6-83.44c-3.13-16.34-6.76-32.57-10.91-48.7c-4.14-16.13-8.79-32.12-13.94-47.97
	c-5.15-15.86-10.78-31.55-16.91-47.07c-6.13-15.53-12.74-30.86-19.83-46c-7.09-15.14-14.65-30.06-22.67-44.75
	c-8.02-14.7-16.5-29.14-25.43-43.34c-8.93-14.2-18.3-28.13-28.1-41.78c-9.8-13.65-20.02-27-30.66-40.06
	c-9.53-11.26-19.07-22.53-28.95-33.79c-1.51-1.72,1-4.01,2.68-2.45c18.51,17.2,36.2,35.2,53.07,53.98
	c24.48,27.26,47.01,55.94,67.6,86.05c35.64,53.49,64.64,110.16,87,170c12.19,31.72,22.3,64.05,30.36,96.98
	c8.05,32.93,13.98,66.22,17.77,99.86c1.85,17.89,3.7,34,3.7,51.89c0,17.87,1.85,35.74,0.01,53.61c-0.01,0.05-0.01,0.1-0.01,0.15
	v26.76c0,8.95-1.85,17.89-1.85,26.84s-3.7,35.79-5.55,53.68c-5.52,36.31-13.54,72.1-24.06,107.37
	c-5.55,17.89-11.11,35.79-18.51,53.68c-7.4,17.88-12.95,35.75-22.18,51.84c-0.02,0.03-0.04,0.07-0.06,0.11
	c-8.24,17.74-17.12,35.18-26.64,52.31c-9.53,17.15-19.68,33.95-30.44,50.4c-10.76,16.45-22.11,32.52-34.06,48.19
	c-11.94,15.68-24.44,30.92-37.5,45.74c-13.06,14.82-26.65,29.17-40.76,43.06s-28.72,27.27-43.81,40.15
	c-15.1,12.88-30.65,25.24-46.65,37.05C1521.67,1707.77,1505.26,1719.03,1488.43,1729.72L1488.43,1729.72L1488.43,1729.72z
	 M1316.28,269.55l46.28,23.26c32.85,17.62,64.32,37.31,94.41,59.05l42.58,34l20.36,17.89l20.36,17.89l38.83,37.53
	c0.03,0.03,0.06,0.06,0.09,0.1l35.13,39.32c21.75,26.05,41.76,53.3,60.03,81.74c18.27,28.44,34.67,57.86,49.18,88.25
	c27.16,57.48,47.52,117.13,61.09,178.94c5.77,26.92,10.15,54.05,13.13,81.39c2.98,27.34,4.55,54.76,4.7,82.25
	c0.16,27.49-1.1,54.92-3.77,82.29c-2.67,27.37-6.74,54.55-12.21,81.53c-3.45,17.19-7.47,34.25-12.06,51.18s-9.74,33.71-15.46,50.32
	c-5.71,16.61-11.97,33.03-18.78,49.25s-14.16,32.22-22.04,47.98c-7.88,15.76-16.28,31.26-25.2,46.5s-18.33,30.18-28.25,44.83
	c-9.92,14.65-20.31,28.98-31.19,42.98c-10.87,14-22.2,27.65-33.99,40.94l-29.58,32.17c-0.02,0.03-0.05,0.05-0.07,0.08l-11.07,10.7
	l-11.07,10.7c-0.03,0.02-0.05,0.05-0.08,0.07l-33.28,28.6c-42.85,36.3-89.13,67.91-138.83,94.84
	c-38.58,21.26-78.68,39.4-120.29,54.41c-41.61,15.01-84.2,26.7-127.76,35.06c-28.03,5.48-56.27,9.6-84.72,12.35
	c-28.45,2.75-56.98,4.13-85.58,4.13c-28.6,0-57.12-1.38-85.58-4.13c-28.45-2.75-56.7-6.87-84.72-12.35
	c-59.91-11.97-117.87-29.84-173.88-53.63c-0.08-0.04-0.17-0.08-0.24-0.12l-59.12-35.72c-16.61-10.72-32.81-21.98-48.61-33.79
	c-15.79-11.81-31.14-24.14-46.04-37c-14.9-12.85-29.32-26.19-43.25-40.02c-13.93-13.83-27.35-28.11-40.25-42.85
	c-12.9-14.74-25.25-29.89-37.05-45.47c-11.8-15.57-23.02-31.53-33.67-47.86c-10.65-16.33-20.69-33.01-30.12-50.02
	c-9.43-17-18.23-34.29-26.4-51.88c-0.02-0.04-0.03-0.07-0.05-0.11c-9.24-16.09-14.79-33.97-22.18-51.84
	c-7.4-17.87-12.95-35.75-16.65-53.62c-0.01-0.04-0.02-0.08-0.03-0.12c-10.54-35.24-18.56-71.01-24.05-107.31
	c-1.85-17.89-5.55-35.79-5.55-53.68s-1.85-17.89-1.85-26.84V1005c0-17.89,1.85-34,3.7-51.89c3.54-33.3,9.19-66.27,16.93-98.9
	c7.74-32.63,17.52-64.68,29.35-96.15c22.63-59.15,51.63-115.22,87-168.21c15.66-22.98,32.45-45.15,50.4-66.51
	c17.94-21.36,36.94-41.8,56.98-61.33c20.05-19.53,41.05-38.05,63.01-55.56s44.76-33.92,68.41-49.23
	c15.07-9.79,30.46-19.11,46.15-27.94c15.7-8.83,31.67-17.16,47.93-24.99c16.26-7.83,32.76-15.14,49.5-21.94
	c16.75-6.8,33.7-13.06,50.87-18.79c17.17-5.73,34.51-10.92,52.02-15.57c17.51-4.65,35.17-8.74,52.95-12.28
	c17.79-3.54,35.68-6.52,53.66-8.94c17.96-2.42,35.99-4.27,54.08-5.55c0.05,0,0.1-0.01,0.15-0.01h120.18c0.05,0,0.09,0,0.14,0
	c57.17,3.82,113.3,13.36,168.38,28.63L1316.28,269.55L1316.28,269.55z M1249.64,246.29c-55.09-15.24-111.22-24.78-168.38-28.63
	c-0.05,0-0.09,0-0.14,0H959.08c-0.04,0-0.08,0-0.12,0c-57.1,3.26-113.23,12.2-168.39,26.84c-42.88,11.32-84.64,25.68-125.28,43.08
	c-40.64,17.4-79.71,37.63-117.21,60.71c-24.41,15.16-47.98,31.46-70.71,48.89c-22.73,17.43-44.51,35.91-65.33,55.44
	c-20.82,19.53-40.59,40.01-59.31,61.45c-18.71,21.43-36.28,43.71-52.7,66.84c-6.64,9.4-13.07,18.93-19.31,28.59
	c-6.23,9.66-12.26,19.44-18.08,29.33s-11.43,19.9-16.83,30.02c-5.4,10.12-10.58,20.34-15.54,30.66
	c-4.96,10.32-9.71,20.74-14.23,31.25c-4.52,10.51-8.82,21.11-12.89,31.79c-4.07,10.68-7.92,21.44-11.54,32.27
	c-3.62,10.83-7,21.74-10.16,32.7c-3.16,10.97-6.08,21.99-8.76,33.08c-2.69,11.08-5.14,22.22-7.36,33.4
	c-2.22,11.18-4.2,22.4-5.94,33.66c-1.74,11.26-3.24,22.55-4.51,33.87c-1.26,11.32-2.29,22.66-3.07,34.02
	c-0.78,11.36-1.32,22.73-1.62,34.11c-0.3,11.38-0.36,22.76-0.18,34.15c0.18,11.38,0.6,22.76,1.27,34.12
	c0.66,11.37,1.57,22.71,2.71,34.05c1.14,11.33,2.53,22.63,4.15,33.91c1.62,11.28,3.48,22.51,5.58,33.72
	c2.1,11.2,4.44,22.36,7.01,33.47c2.57,11.11,5.38,22.16,8.42,33.16c3.04,11,6.31,21.93,9.82,32.8c3.5,10.87,7.24,21.66,11.2,32.38
	s8.15,21.36,12.56,31.91c4.41,10.56,9.05,21.02,13.9,31.39c4.86,10.37,9.93,20.64,15.22,30.81c5.29,10.17,10.79,20.23,16.51,30.19
	c5.72,9.95,11.64,19.79,17.78,29.51c6.13,9.72,12.47,19.31,19.01,28.78c6.54,9.47,13.28,18.8,20.21,28
	c6.94,9.2,14.06,18.26,21.38,27.18c7.32,8.92,14.82,17.69,22.51,26.31l-14.81-14.32l-18.51-19.68l-18.47-19.64
	c-0.03-0.03-0.06-0.06-0.08-0.09l-35.13-42.9c-22.54-29.68-42.91-60.7-61.09-93.05c-9.26-16.1-18.51-32.21-25.92-50.1
	c-7.4-17.88-16.64-33.97-22.2-51.84c-0.01-0.03-0.02-0.07-0.04-0.1c-5.5-13.71-10.61-27.55-15.34-41.52
	c-4.73-13.99-9.08-28.09-13.02-42.31c-3.95-14.22-7.5-28.52-10.65-42.92c-3.15-14.4-5.9-28.87-8.25-43.42
	c-2.35-14.54-4.29-29.14-5.83-43.78c-1.54-14.64-2.67-29.32-3.39-44.02c-0.72-14.7-1.03-29.41-0.94-44.13
	c0.1-14.72,0.6-29.43,1.52-44.12c0.92-14.69,2.24-29.35,3.97-43.98c1.73-14.62,3.87-29.19,6.41-43.71
	c2.54-14.51,5.48-28.95,8.83-43.31c3.34-14.36,7.08-28.62,11.22-42.79c4.14-14.17,8.66-28.21,13.58-42.14
	c4.92-13.93,10.22-27.72,15.91-41.38c5.69-13.65,11.75-27.15,18.18-40.49c6.44-13.34,13.24-26.5,20.41-39.49
	c19.71-35.53,41.92-69.53,66.64-102c25.05-32.17,52.2-62.59,81.45-91.26c14.74-14.04,30-27.54,45.77-40.5
	c15.77-12.96,32.01-25.34,48.72-37.14c16.71-11.8,33.85-23,51.41-33.58c17.56-10.58,35.5-20.53,53.82-29.84
	c18.32-9.31,36.97-17.95,55.94-25.94c18.98-7.98,38.23-15.28,57.76-21.89c19.53-6.61,39.29-12.52,59.27-17.73
	c19.98-5.21,40.14-9.7,60.46-13.48c19.54-3.77,39.19-6.87,58.95-9.32c19.76-2.44,39.59-4.21,59.48-5.31
	c19.89-1.1,39.8-1.53,59.72-1.29c19.92,0.24,39.81,1.16,59.67,2.75c19.86,1.59,39.63,3.84,59.32,6.76
	c19.69,2.92,39.26,6.51,58.69,10.75c19.43,4.24,38.69,9.14,57.77,14.69c19.08,5.55,37.94,11.73,56.57,18.55l0,0
	c2.15,0.83,1.08,3.95-1.15,3.38L1249.64,246.29L1249.64,246.29z M63.08,1069.42c-4.55-38.99-6.51-78.09-5.89-117.32
	c0.62-39.23,3.82-78.26,9.59-117.09c5.88-39.93,14.52-79.3,25.92-118.1c5.55-19.68,12.96-39.37,20.36-59.05l11.09-28.59
	c0.01-0.03,0.02-0.06,0.04-0.09l12.94-28.59c4.54-9.92,9.26-19.76,14.16-29.52c4.9-9.76,9.99-19.43,15.25-29.01
	c5.26-9.58,10.71-19.07,16.32-28.46c5.62-9.39,11.41-18.68,17.38-27.87c5.97-9.19,12.1-18.27,18.41-27.25
	c6.3-8.98,12.77-17.84,19.41-26.59c6.64-8.75,13.43-17.38,20.39-25.89c6.96-8.51,14.07-16.9,21.34-25.17
	c7.27-8.26,14.69-16.4,22.27-24.41c7.57-8.01,15.3-15.88,23.16-23.61c7.87-7.74,15.88-15.33,24.03-22.79
	c8.15-7.46,16.44-14.77,24.87-21.94s16.98-14.19,25.67-21.06c8.69-6.87,17.5-13.58,26.44-20.15c8.94-6.56,18-12.97,27.17-19.21
	c9.18-6.25,18.47-12.33,27.87-18.25c9.4-5.92,18.92-11.68,28.53-17.27c9.62-5.59,19.34-11.01,29.16-16.26
	c9.82-5.25,19.74-10.33,29.75-15.23s20.11-9.63,30.3-14.19c10.19-4.55,20.46-8.93,30.81-13.12c10.35-4.19,20.78-8.21,31.28-12.04
	c10.5-3.83,21.07-7.48,31.7-10.94c10.64-3.46,21.33-6.74,32.09-9.83c10.76-3.09,21.57-5.99,32.44-8.7
	c10.87-2.71,21.78-5.23,32.74-7.56c10.96-2.33,21.96-4.47,33-6.42c11.04-1.95,22.11-3.7,33.22-5.26c11.11-1.56,22.24-2.93,33.4-4.1
	c11.16-1.17,22.33-2.15,33.53-2.93c11.19-0.78,22.4-1.37,33.61-1.76c11.22-0.39,22.44-0.59,33.66-0.59c11.22,0,22.44,0.2,33.66,0.59
	c11.22,0.39,22.42,0.98,33.61,1.76c11.19,0.78,22.37,1.76,33.53,2.93s22.29,2.54,33.4,4.1c11.11,1.56,22.18,3.31,33.22,5.26
	c11.04,1.95,22.04,4.09,33,6.42c10.96,2.33,21.88,4.85,32.74,7.56c10.87,2.71,21.68,5.61,32.44,8.7
	c10.76,3.09,21.46,6.36,32.09,9.83c10.64,3.46,21.2,7.11,31.71,10.94c10.5,3.83,20.93,7.84,31.28,12.04
	c10.35,4.19,20.62,8.57,30.81,13.12c10.19,4.55,20.29,9.28,30.3,14.19c10.01,4.9,19.93,9.98,29.75,15.23
	c9.82,5.25,19.54,10.67,29.16,16.26c9.62,5.59,19.13,11.35,28.53,17.27c9.4,5.92,18.69,12.01,27.87,18.25
	c9.18,6.25,18.23,12.65,27.17,19.21c8.94,6.56,17.75,13.28,26.44,20.15c8.69,6.87,17.24,13.89,25.67,21.06
	c8.42,7.17,16.71,14.48,24.87,21.94c8.15,7.46,16.16,15.05,24.03,22.79c7.87,7.74,15.59,15.61,23.16,23.61
	c7.57,8.01,15,16.14,22.27,24.41c7.27,8.26,14.38,16.65,21.34,25.17c6.96,8.51,13.75,17.14,20.39,25.89
	c6.64,8.75,13.11,17.61,19.41,26.59c6.3,8.98,12.44,18.06,18.41,27.25c5.97,9.19,11.76,18.48,17.38,27.87
	c5.62,9.39,11.06,18.88,16.33,28.46c5.26,9.58,10.35,19.25,15.25,29.01c4.9,9.76,9.62,19.6,14.16,29.52l12.94,28.59
	c0.01,0.03,0.03,0.06,0.04,0.09l11.09,28.59c7.4,19.68,14.81,39.37,18.51,59.05c3.7,19.68,7.4,26.84,11.11,41.16
	c-18.89-54.71-42.95-107.2-72.19-157.47c-30.5-52.53-66.29-101.44-107.36-146.73l-33.32-35.79l-11.01-12.42
	c-0.06-0.07-0.13-0.13-0.2-0.19l-12.85-10.65l-37.02-32.21c-46.86-39.71-97.45-74.3-151.79-103.79
	c-41.77-23.35-85.15-43.42-130.16-60.23c-45.01-16.8-91.09-30.13-138.25-39.98c-30.74-6.13-61.73-10.78-92.95-13.94
	s-62.53-4.81-93.92-4.96c-31.39-0.15-62.71,1.2-93.97,4.06c-31.25,2.86-62.28,7.21-93.09,13.05
	c-70.93,13.39-139.42,34.27-205.47,62.63c-22.9,9.97-45.35,20.82-67.34,32.55c-21.99,11.72-43.47,24.28-64.41,37.68
	c-20.95,13.4-41.3,27.59-61.07,42.57c-19.76,14.98-38.87,30.71-57.33,47.18c-18.45,16.47-36.19,33.63-53.21,51.49
	c-17.02,17.85-33.27,36.34-48.75,55.46c-15.48,19.12-30.14,38.81-43.98,59.07c-13.84,20.26-26.81,41.03-38.92,62.3
	c-11.11,17.89-20.36,35.79-29.62,55.47l-12.96,26.84l-12.96,28.63c-7,17.72-13.42,35.63-19.27,53.74
	c-5.84,18.11-11.1,36.37-15.77,54.79c-4.67,18.42-8.74,36.97-12.21,55.64c-3.47,18.67-6.34,37.42-8.6,56.26
	c-2.26,18.84-3.91,37.73-4.95,56.67c-1.04,18.94-1.47,37.89-1.29,56.86s0.97,37.91,2.37,56.83c0.35,4.71,0.74,9.41,1.16,14.11
	c0.2,2.27-3.25,2.7-3.65,0.46C67.97,1105.92,65.26,1087.72,63.08,1069.42L63.08,1069.42L63.08,1069.42z M1928.99,1223.31
	c-14.54,68.04-36.75,133.65-66.64,196.84c-15.93,33.89-33.96,66.71-54.09,98.44c-20.13,31.73-42.21,62.15-66.24,91.24
	c-25.3,30.6-52.51,59.53-81.63,86.78c-29.12,27.25-59.91,52.6-92.37,76.06c-33.62,24.39-68.79,46.45-105.51,66.21l-55.53,26.84
	l-29.62,12.53l-29.62,12.53c-15.45,5.74-31.04,11.09-46.79,16.03c-15.74,4.94-31.61,9.48-47.6,13.61
	c-15.99,4.13-32.09,7.84-48.28,11.15c-16.2,3.3-32.47,6.19-48.83,8.65c-16.35,2.47-32.77,4.51-49.23,6.14
	c-16.47,1.62-32.97,2.82-49.5,3.6c-16.53,0.78-33.08,1.13-49.63,1.06c-16.55-0.07-33.09-0.57-49.62-1.49
	c-16.52-0.92-33.01-2.27-49.46-4.04c-16.45-1.77-32.84-3.96-49.17-6.57c-16.33-2.61-32.58-5.64-48.74-9.08
	c-16.16-3.44-32.22-7.3-48.17-11.57c-15.95-4.27-31.78-8.94-47.47-14.03c-15.7-5.08-31.24-10.56-46.63-16.44
	c-15.39-5.88-30.62-12.15-45.67-18.81c-15.05-6.66-29.91-13.7-44.57-21.13c-14.66-7.42-29.11-15.22-43.35-23.39
	c-14.23-8.17-28.23-16.69-42-25.58c-13.77-8.89-27.28-18.12-40.54-27.7c-13.26-9.58-26.24-19.49-38.96-29.74
	c-12.71-10.25-25.14-20.81-37.27-31.69s-23.96-22.07-35.48-33.56c-11.52-11.49-22.71-23.27-33.58-35.34
	c-10.87-12.07-21.4-24.4-31.6-37.01c-10.19-12.61-20.03-25.47-29.52-38.58c-9.49-13.11-18.61-26.46-27.36-40.04
	c-8.75-13.58-17.13-27.38-25.12-41.39c-7.99-14.01-15.6-28.22-22.81-42.62c-7.21-14.4-14.03-28.98-20.44-43.73
	c-6.41-14.75-12.42-29.66-18.01-44.72c-5.59-15.06-10.77-30.25-15.53-45.58c-4.76-15.32-9.1-30.76-13.01-46.31l9.26,25.05
	c26.14,65.08,59.46,126.51,99.96,184.31c17.43,25.15,36.12,49.4,56.04,72.76c19.93,23.36,41,45.7,63.22,67.03
	c22.22,21.33,45.48,41.55,69.78,60.65s49.52,36.99,75.66,53.66c32.27,20.56,65.76,39.07,100.45,55.54
	c34.69,16.47,70.32,30.76,106.88,42.88l81.39,28.61c0.04,0.01,0.07,0.02,0.11,0.04c40.67,11.76,81.99,20.71,123.97,26.83
	c42.37,5.75,84.94,8.74,127.73,8.95c8.63-0.02,17.26-0.16,25.89-0.43c8.63-0.27,17.25-0.66,25.86-1.17
	c8.61-0.52,17.22-1.16,25.81-1.92c8.6-0.76,17.18-1.65,25.74-2.66c8.57-1.01,17.12-2.15,25.65-3.41c8.53-1.26,17.04-2.64,25.53-4.15
	c8.49-1.51,16.95-3.13,25.39-4.88c8.44-1.75,16.85-3.62,25.23-5.61c8.38-1.99,16.73-4.11,25.05-6.34c8.32-2.23,16.6-4.59,24.84-7.06
	c8.24-2.47,16.45-5.07,24.61-7.78c8.16-2.71,16.28-5.54,24.36-8.48c8.08-2.94,16.1-6.01,24.09-9.18c7.98-3.18,15.91-6.47,23.79-9.87
	c7.88-3.41,15.7-6.93,23.47-10.56c7.77-3.63,15.48-7.38,23.14-11.23c7.65-3.85,15.25-7.82,22.78-11.89c7.53-4.07,15-8.26,22.4-12.55
	c7.4-4.29,14.74-8.69,22-13.19c7.27-4.5,14.46-9.11,21.59-13.82c7.12-4.71,14.17-9.52,21.15-14.44c6.98-4.91,13.87-9.93,20.69-15.04
	c6.82-5.11,13.56-10.32,20.22-15.63c6.66-5.31,13.24-10.71,19.73-16.21c6.49-5.5,12.9-11.09,19.22-16.77
	c6.32-5.68,12.55-11.46,18.69-17.32c6.14-5.86,12.19-11.81,18.15-17.85c5.96-6.04,11.82-12.16,17.59-18.37
	c5.77-6.21,11.44-12.5,17.01-18.87c5.57-6.37,11.05-12.82,16.42-19.35s10.65-13.13,15.82-19.82c5.16-6.67,10.21-13.41,15.16-20.22
	c0.02-0.03,0.05-0.06,0.07-0.09c16.64-19.67,31.44-39.34,46.24-60.8c39.85-57.88,72.56-119.32,98.11-184.31
	c6.92-17.5,13.28-35.2,19.06-53.09c5.79-17.89,10.99-35.93,15.62-54.13c4.63-18.2,8.67-36.52,12.12-54.96
	c3.45-18.44,6.31-36.97,8.57-55.58c2.26-18.61,3.92-37.28,4.98-55.99c1.06-18.71,1.52-37.44,1.38-56.18
	c-0.14-18.74-0.88-37.46-2.23-56.15c-1.34-18.7-3.29-37.33-5.83-55.91l3.7,17.89c6.37,29.72,11.19,59.67,14.47,89.85
	c3.28,30.18,5,60.45,5.15,90.79c0.16,30.35-1.25,60.63-4.22,90.84C1939.57,1163.54,1935.06,1193.54,1928.99,1223.31L1928.99,1223.31
	L1928.99,1223.31z"/>
<path class="st1" d="M1343.48,1232.29c-68.13,61.39-122.63,194.4-122.63,194.4s-85.47-145.8-159.79-195.68
	c-117.68-78.02-168.46-79.3-168.46-79.3v61.39c0,0,96.62,15.35,144.93,58.83c101.57,90.81,183.33,236.61,183.33,236.61
	s73.08-167.54,143.69-225.1c99.1-79.3,184.57-70.34,184.57-70.34v-61.39C1549.11,1150.44,1426.47,1158.11,1343.48,1232.29
	L1343.48,1232.29z"/>
<path class="st1" d="M892.59,1404.95c-79.28-46.04-220.49-55-220.49-55s107.77-129.17,130.06-217.42
	c34.68-138.13,18.58-188.01,18.58-188.01l-56.98,20.46c0,0,16.1,98.48-7.43,158.59c-50.79,126.62-161.03,253.23-161.03,253.23
	s180.85,16.63,256.41,65.23c106.53,69.06,126.35,153.47,126.35,153.47l46.04-14.76C1029.28,1584.41,987.97,1461.22,892.59,1404.95
	L892.59,1404.95z"/>
<path class="st1" d="M809.6,852.44c139.97-11.51,180.85-43.48,180.85-43.48l-37.16-48.6c0,0-85.47,47.32-149.88,43.48
	c-135.02-7.67-288.62-71.62-288.62-71.62s43.35,179.05,22.3,267.3c-29.73,126.62-102.81,172.66-102.81,172.66l37.16,48.6
	c0,0,92.9-83.13,112.72-193.12c16.1-90.81-21.06-230.21-21.06-230.21S719.17,860.11,809.6,852.44L809.6,852.44z"/>
<path class="st1" d="M835.61,609.44c90.43-14.07,206.86-94.64,206.86-94.64s-7.43,168.82,29.73,253.23
	c56.98,130.45,99.1,159.87,99.1,159.87l33.45-51.16c0,0-73.08-66.51-90.43-130.45c-37.16-131.73-27.25-300.55-27.25-300.55
	s-152.36,99.76-241.55,108.71c-126.35,12.79-193.24-42.21-193.24-42.21l-33.45,52.44C614.2,562.2,719.14,624.14,835.61,609.44
	L835.61,609.44z"/>
<path class="st1" d="M1177.49,1155.55c0,0,38.4-92.08,91.66-129.17c111.48-78.02,271.28-124.06,271.28-124.06
	s-142.45-113.83-179.61-196.96c-52.03-116.39-23.54-199.52-23.54-199.52l-59.46-15.35c0,0-23.54,122.78,27.25,222.54
	c42.12,81.85,154.84,168.82,154.84,168.82s-158.55,48.6-225.45,111.27c-102.81,97.2-116.44,147.08-116.44,147.08L1177.49,1155.55
	L1177.49,1155.55z"/>
<g>
	<g>
		<path class="st2" d="M1462,665.58"/>
		<path class="st2" d="M3935.33,1521.34c-12.13,0-23.04-2.49-32.72-7.47v-37.37c0-127.06,3.02-311.41,9.09-553.06l3.64-120.83
			c-7.88-14.11-15.61-36.32-23.18-66.64c-7.58-30.3-11.36-48.99-11.36-56.05c0-7.05,0.6-11.41,1.82-13.08
			c1.21-1.65,16.5-3.93,45.9-6.85c29.39-2.9,59.68-4.36,90.9-4.36c31.2,0,48.63,2.08,52.27,6.23
			c107.26,328.85,161.94,496.6,164.07,503.24c2.12,6.66,3.78,9.97,5,9.97l3.64-8.72v-34.88c0-70.57-1.68-158.61-5-264.08
			c-3.34-105.45-6.82-171.06-10.45-196.81c8.48-10.78,24.09-20.13,46.81-28.03c22.72-7.88,43.32-11.83,61.81-11.83
			c18.48,0,27.72,2.08,27.72,6.23c0,16.62-2.13,36.12-6.36,58.55c-4.25,22.42-6.36,34.06-6.36,34.88
			c-4.25,37.37-6.36,95.72-6.36,175.01c0,79.31,0.14,136.4,0.45,171.28c0.3,34.88,0.6,68.32,0.91,100.27
			c0.3,31.98,0.75,63.53,1.36,94.67c0.6,31.14,0.91,59.6,0.91,85.33c1.21,54.81,1.82,93.01,1.82,114.6l0.91,17.44
			c0,2.49-3.95,5.8-11.82,9.96c-23.63,13.27-55.45,19.93-95.44,19.93l-33.63-4.98c-24.25-93.83-59.7-212.17-106.35-355.01
			c-46.67-142.82-72.72-219.86-78.17-231.07c-5.45-11.21-8.79-16.82-10-16.82l-2.73,8.72c-2.43,23.26-3.64,73.3-3.64,150.1
			c0,76.82,1.36,160.49,4.09,251c2.73,90.52,5.91,147.41,9.54,170.65C4008.05,1511.37,3978.35,1521.34,3935.33,1521.34z"/>
		<path class="st2" d="M4736.15,1483.97c-20.61,19.09-60.9,28.65-120.9,28.65c-59.99,0-106.05-24.51-138.17-73.49
			c-32.13-48.99-48.18-114.39-48.18-196.19c0-81.78,19.23-152.79,57.72-213c38.48-60.2,92.56-90.31,162.26-90.31
			c28.48,0,54.68,10.39,78.63,31.14c23.93,20.77,35.91,57.1,35.91,108.99c0,51.91-16.52,103.19-49.54,153.84
			c-33.04,50.66-78.03,89.28-134.99,115.84c0,9.97,7.41,18.06,22.27,24.29c14.84,6.23,29.54,9.34,44.09,9.34
			c46.05,0,82.41-11.21,109.08-33.63c0.6-0.82,1.5-1.25,2.73-1.25c1.21,0,1.82,7.9,1.82,23.67
			C4758.87,1420.03,4751.29,1457.4,4736.15,1483.97z M4657.06,1087.86c0-24.08-9.4-36.12-28.18-36.12
			c-24.86,0-46.67,17.44-65.45,52.32c-18.79,34.88-28.18,76.82-28.18,125.81c0,11.64,1.21,17.44,3.64,17.44
			c21.82-0.82,46.96-18.06,75.45-51.69C4642.82,1161.97,4657.06,1126.06,4657.06,1087.86z"/>
		<path class="st2" d="M5087.01,1340.72c0,44.84-15.31,84.92-45.9,120.2c-30.61,35.29-63.63,60.61-99.08,75.98
			c-35.45,15.36-66.51,23.04-93.17,23.04c-3.04,0-7.27-4.98-12.73-14.95c-15.16-27.4-22.73-59.38-22.73-95.92v-8.72
			c47.27,0,83.32-11.21,108.17-33.63c24.84-22.42,37.27-45.66,37.27-69.76c0-15.77-7.58-32.39-22.72-49.83
			c-15.16-17.44-31.81-32.8-49.99-46.09c-18.18-13.27-34.85-30.93-49.99-52.94c-15.16-21.99-22.73-45.04-22.73-69.13
			c0-50.64,23.02-97.16,69.08-139.51c46.05-42.35,95.13-63.53,147.26-63.53c6.05,0,13.93,11.42,23.63,34.26
			c9.69,22.85,14.84,46.3,15.45,70.38c-12.13,0-30.31,4.98-54.54,14.95c-47.88,20.77-71.81,46.52-71.81,77.23
			c0,21.6,23.63,51.07,70.9,88.44c18.18,14.13,34.84,33.63,49.99,58.54C5078.51,1284.67,5086.4,1311.66,5087.01,1340.72z"/>
		<path class="st2" d="M5261.53,668.07c-1.22,19.11-2.73,71.43-4.54,156.95c45.45,0,68.17,1.25,68.17,3.74
			c0,28.24-3.04,53.37-9.09,75.36c-6.06,22.01-11.82,33.01-17.27,33.01h-42.72c-1.22,122.91-1.82,222.77-1.82,299.58
			c0,76.82,0.91,128.11,2.73,153.84c3.64,43.19,16.05,78.48,37.27,105.88c0,9.13-11.68,22.42-35,39.86
			c-23.34,17.44-45.31,26.16-65.9,26.16c-1.82,0-5.31-4.17-10.45-12.46c-5.16-8.31-10.61-22.01-16.36-41.11
			c-5.77-19.11-9.4-37.78-10.91-56.05c-1.52-18.26-2.27-83.46-2.27-195.56s0.91-217.99,2.73-317.64l-50.9,1.25
			c-3.04-4.15-4.54-22.21-4.54-54.19c0-31.96,2.73-51.27,8.18-57.92c13.32-0.82,29.39-1.65,48.18-2.49
			c0-48.15-0.91-79.29-2.73-93.42c-1.82-14.11-2.73-22.42-2.73-24.91c0-8.29,10.45-17.85,31.36-28.65
			c20.91-10.78,39.23-16.19,54.99-16.19C5253.65,663.09,5261.53,664.77,5261.53,668.07z"/>
	</g>
</g>
<rect x="2538.32" y="-57.05" style="fill:none;" width="2.63" height="0"/>
<g>
	<path class="st3" d="M2758.86,417.45c0,78.54-15.53,160.7-46.55,246.46c-31.04,85.78-73.88,160.47-128.53,224.11
		c-54.66,63.65-111.1,103.59-169.31,119.84c-33.51,111.04-57.67,188.69-72.5,232.92l-17.3,46.04
		c108.75,44.24,198.83,111.51,270.23,201.77c36.25,46.04,60.68,102.45,73.33,169.27c6.59,34.3,9.89,63.65,9.89,88.02
		c0,24.38-2.88,44.9-8.65,61.61c-5.77,16.69-12.5,28.2-20.19,34.53c-7.7,6.31-13.18,9.48-16.48,9.48c-3.3,0-4.94-2.26-4.94-6.77
		c0-4.53,3.15-17.84,9.47-39.95c6.31-22.13,9.47-48.07,9.47-77.86c0-29.79-3.85-62.76-11.53-98.85
		c-7.7-36.12-21.98-69.29-42.84-99.53c-20.88-30.26-49.84-58.69-86.92-85.31c-37.07-26.62-69.21-45.58-96.39-56.87
		c-27.19-11.28-63.58-24.14-109.16-38.59c-46.69,107.42-95.3,180.99-145.83,220.73c-30.21,24.38-56.99,36.56-80.33,36.56
		c-23.35,0-44.08-7.68-62.2-23.02c-31.31-25.28-46.96-63.64-46.96-115.1c0-51.46,20.6-96.59,61.79-135.42
		c46.68-45.13,109.85-67.71,189.49-67.71c28.55,0,54.38,3.62,77.45,10.83c24.72-63.18,53.55-150.31,86.51-261.35
		c-3.3,0-6.32,0-9.06,0c-34.6,0-66.73-9.48-96.39-28.44c-29.66-18.96-53.28-44.69-70.85-77.19c-23.07-42.42-34.6-90.26-34.6-143.54
		c0-27.97,4.25-58.23,12.77-90.73c8.51-32.5,27.46-65.44,56.85-98.85c29.38-33.39,66.59-58.67,111.64-75.83
		c7.13-2.71,13.18-4.06,18.13-4.06s7.96,2.26,9.06,6.77c1.09,4.53-1.11,8.59-6.59,12.19c-5.5,3.62-11.82,6.33-18.95,8.13
		c-23.62,4.53-45.6,17.6-65.91,39.27c-35.16,37.03-59.6,93.9-73.33,170.62c-3.3,18.07-4.94,35.44-4.94,52.13
		c0,16.72,1.92,36.8,5.77,60.26c3.84,23.49,12.08,47.63,24.72,72.45c12.63,24.84,29.79,42.21,51.49,52.14
		c21.69,9.94,40.64,14.9,56.85,14.9c16.19,0,31.17-1.35,44.9-4.06l70.03-289.79c48.33-204.01,106-329.5,173.02-376.46
		c17.57-11.72,34.73-17.6,51.49-17.6c16.75,0,32.67,8.8,47.79,26.41c15.1,17.6,23.2,39.06,24.3,64.32
		C2758.57,397.14,2758.86,407.53,2758.86,417.45z M2267.82,1339.63c-26.92-9.92-54.66-14.9-83.21-14.9
		c-28.57,0-57.96,6.77-88.16,20.31c-63.17,27.08-100.24,65.46-111.22,115.1c-2.2,9.01-3.3,17.6-3.3,25.73
		c0,23.46,7.83,42.66,23.48,57.55c15.65,14.9,32.81,22.34,51.49,22.34c25.81,0,53.82-11.74,84.04-35.21
		C2186.53,1494.45,2228.82,1430.83,2267.82,1339.63z M2724.25,418.81c0-34.3-9.62-51.46-28.84-51.46
		c-28.01,0-62.07,40.18-102.16,120.52c-31.31,64.11-61.38,141.51-90.22,232.24c-28.84,90.73-54.52,174.48-77.03,251.2
		c76.34-27.97,145.13-96.82,206.38-206.51C2693.63,655.11,2724.25,539.79,2724.25,418.81z"/>
	<path class="st3" d="M2638.56,1238.07c-7.7,30.7-11.53,65-11.53,102.92c0,25.28,3.42,45.36,10.3,60.26
		c6.86,14.9,16.61,22.34,29.25,22.34c49.97,0,95.29-77.19,135.94-231.56c3.84-14.43,8.51-20.76,14.01-18.96
		c2.19,0.91,3.3,3.17,3.3,6.77c0,3.62-6.18,27.32-18.54,71.09c-12.36,43.8-24.86,79.22-37.49,106.3
		c-28.01,63.2-62.62,94.79-103.81,94.79c-21.97,0-40.65-11.72-56.02-35.21c-15.38-23.46-23.07-55.52-23.07-96.14
		s5.9-83.73,17.71-129.32c11.8-45.58,27.87-88.02,48.2-127.29c20.31-39.27,43.67-67.92,70.03-85.99
		c12.63-9.01,24.72-13.54,36.25-13.54s22.25,5.42,32.13,16.25c9.33,12.65,14.01,26.64,14.01,41.98
		c0,54.17-19.77,106.09-59.32,155.73c-12.09,15.36-29.12,29.11-51.08,41.3C2666.84,1231.98,2650.1,1238.07,2638.56,1238.07z
		 M2776.97,1021.41c0-18.05-4.4-27.08-13.18-27.08c-15.38,0-38.72,31.15-70.03,93.44c-18.68,37.92-35.16,80.36-49.43,127.29
		c9.33,0,22.93-5.42,40.78-16.25c17.84-10.83,33.37-25.26,46.55-43.33C2761.86,1113.05,2776.97,1068.36,2776.97,1021.41z"/>
	<path class="st3" d="M2978.82,1368.07c0,28.9,7.13,43.33,21.42,43.33c25.81,0,60.14-70.86,102.99-212.6
		c1.65-5.42,3.15-10.83,4.53-16.25c1.36-5.42,3.57-9.01,6.59-10.83c3.01-1.8,5.07-0.68,6.18,3.39c1.09,4.06,0.54,10.62-1.65,19.63
		c-43.95,167.92-88.44,251.87-133.47,251.87c-14.83,0-26.65-10.83-35.43-32.5c-8.79-21.67-13.18-43.1-13.18-64.32
		c0-21.2,1.36-40.84,4.12-58.91c-31.86,86.67-59.32,135.88-82.39,147.6c-6.59,4.53-13.05,6.77-19.36,6.77
		c-6.32,0-12.5-1.35-18.54-4.06c-26.92-11.72-40.37-46.93-40.37-105.62c0-39.72,6.18-83.73,18.54-132.03
		c12.36-48.28,29.79-94.56,52.32-138.8c22.52-44.22,49.7-74.01,81.56-89.37c11.53-6.31,25.13-9.48,40.78-9.48
		c15.66,0,33.08,8.12,52.32,24.38c37.34-115.55,69.21-222.53,95.57-320.94c7.69-29.79,15.24-48.96,22.66-57.55
		c7.42-8.57,14.28-12.86,20.6-12.86c6.31,0,10.16,0,11.54,0c1.36,0,6.59,1.14,15.65,3.39c9.06,2.26,16.07,2.94,21.01,2.03
		c-12.64,18.96-46.14,111.04-100.51,276.25c-69.21,211.25-110.96,352.08-125.23,422.5
		C2981.56,1329.27,2978.82,1350.93,2978.82,1368.07z M3019.19,1011.93c-7.14-11.72-17.17-17.6-30.07-17.6
		c-12.91,0-30.9,15.81-53.97,47.4c-36.8,50.57-67.29,112.86-91.45,186.87c-15.94,48.75-23.89,88.93-23.89,120.52
		c0,14.45,1.78,27.55,5.36,39.27c3.57,11.74,9.19,17.6,16.89,17.6c18.67,0,41.73-31.59,69.21-94.79
		C2938.72,1248.02,2974.7,1148.25,3019.19,1011.93z"/>
	<path class="st3" d="M3050.49,1874.53c-51.62,0-77.45-34.76-77.45-104.27c0-57.78,23.89-109.69,71.68-155.73
		c40.64-38.83,92.55-75.39,155.71-109.69c29.11-15.36,50.26-27.55,63.44-36.56c14.28-68.6,21.42-143.54,21.42-224.79
		c0-16.25-0.55-28.44-1.65-36.56c-15.38,51.46-36.53,104.27-63.44,158.44c-31.86,65-63.44,90.26-94.75,75.83
		c-28.57-19.85-42.84-58.67-42.84-116.46c0-77.63,23.61-162.94,70.85-255.94c25.81-50.55,56.02-82.6,90.63-96.14
		c9.33-4.51,18.67-6.77,28.01-6.77c24.72,0,48.88,13.54,72.5,40.62c8.78,11.74,13.18,21.67,13.18,29.79c0,8.12-1.65,16.04-4.94,23.7
		c-3.3,7.68-6.73,8.59-10.3,2.71c-3.58-5.86-5.91-11.51-7-16.93c-7.14-33.39-18.68-50.1-34.6-50.1
		c-29.12,0-61.79,33.41-98.04,100.21c-20.33,37.92-37.9,78.54-52.73,121.87c-18.13,54.17-27.19,95.94-27.19,125.26
		c0,29.35,5.48,48.98,16.48,58.91c3.84,2.71,7.69,4.06,11.53,4.06c12.63,0,28.42-14.22,47.37-42.66
		c18.95-28.44,36.52-64.53,52.73-108.33c16.19-43.78,26.49-77.86,30.9-102.24c4.39-24.38,9.74-39.72,16.07-46.04
		c6.31-6.3,13.31-9.92,21.01-10.83c7.68-0.89,12.9-3.15,15.65-6.77c4.39,40.62,6.59,88.25,6.59,142.86
		c0,54.63-5.77,116.69-17.3,186.2c25.26-29.79,43.25-56.41,53.97-79.9c10.71-23.46,19.22-44.69,25.54-63.64
		c6.31-18.96,11.95-37.68,16.89-56.2c4.94-18.49,8.24-30.47,9.89-35.89c1.65-5.42,4.39-8.8,8.24-10.16c3.84-1.35,5.77,1.59,5.77,8.8
		c0,4.53-0.82,9.94-2.47,16.25c-24.18,82.16-44.36,141.51-60.56,178.07c-16.21,36.56-38.31,65.68-66.32,87.34
		c-13.18,61.38-32.27,122.32-57.26,182.81c-25,60.47-56.44,113.75-94.33,159.79C3125.46,1851.51,3087.83,1874.53,3050.49,1874.53z
		 M2990.34,1795.99c0,34.3,13.47,51.46,40.37,51.46c15.94,0,33.91-7.68,53.96-23.02c20.04-15.36,36.66-31.15,49.85-47.4
		c22.52-29.79,47.23-74.03,74.15-132.71c20.31-46.95,35.97-92.55,46.96-136.77l-28.84,16.25c-85.68,48.75-146.11,92.08-181.25,130
		c-25.81,27.97-42.84,63.64-51.08,106.98C2991.72,1774.32,2990.34,1786.04,2990.34,1795.99z"/>
	<path class="st3" d="M3466.55,1238.07c-7.7,30.7-11.53,65-11.53,102.92c0,25.28,3.42,45.36,10.3,60.26
		c6.86,14.9,16.61,22.34,29.25,22.34c49.97,0,95.29-77.19,135.94-231.56c3.84-14.43,8.51-20.76,14.01-18.96
		c2.19,0.91,3.3,3.17,3.3,6.77c0,3.62-6.18,27.32-18.54,71.09c-12.36,43.8-24.86,79.22-37.49,106.3
		c-28.01,63.2-62.62,94.79-103.81,94.79c-21.97,0-40.65-11.72-56.02-35.21c-15.38-23.46-23.07-55.52-23.07-96.14
		s5.9-83.73,17.71-129.32c11.8-45.58,27.87-88.02,48.2-127.29c20.31-39.27,43.67-67.92,70.03-85.99
		c12.63-9.01,24.72-13.54,36.25-13.54c11.53,0,22.24,5.42,32.13,16.25c9.33,12.65,14.01,26.64,14.01,41.98
		c0,54.17-19.77,106.09-59.32,155.73c-12.09,15.36-29.12,29.11-51.08,41.3C3494.83,1231.98,3478.08,1238.07,3466.55,1238.07z
		 M3604.96,1021.41c0-18.05-4.4-27.08-13.18-27.08c-15.38,0-38.72,31.15-70.03,93.44c-18.68,37.92-35.16,80.36-49.43,127.29
		c9.33,0,22.93-5.42,40.78-16.25c17.84-10.83,33.37-25.26,46.55-43.33C3589.85,1113.05,3604.96,1068.36,3604.96,1021.41z"/>
	<path class="st3" d="M3744.18,903.6c0,40.62-15.65,79.01-46.96,115.1c10.98,0.91,25.67,1.35,44.08,1.35
		c18.4,0,41.61-2.24,69.62-6.77c1.09,2.71,1.65,9.94,1.65,21.67c0,11.74-3.3,29.11-9.89,52.14c-6.59,23.02-12.5,42.89-17.71,59.58
		c-5.23,16.72-10.17,32.5-14.83,47.4c-4.67,14.9-9.89,33.18-15.65,54.84c-5.77,21.67-10.58,41.53-14.42,59.58
		c-13.74,68.62-11.53,102.92,6.59,102.92c23.07,0,57.12-75.37,102.16-226.14c3.84-11.72,7-16.25,9.47-13.54
		c2.47,2.71,3.71,6.09,3.71,10.16c0,4.06-3.58,18.07-10.71,41.98c-7.14,23.93-14.83,48.54-23.07,73.8
		c-8.24,25.28-21.15,54.63-38.72,88.02c-20.88,41.54-40.92,62.29-60.14,62.29c-21.42,0-36.25-21.2-44.49-63.64
		c-1.65-8.12-2.47-20.31-2.47-36.56c0-16.25,3.15-37.92,9.47-65c6.31-27.08,16.34-60.03,30.07-98.85
		c13.72-38.8,21.42-61.61,23.07-68.38c1.65-6.77,2.47-13.31,2.47-19.64c0-27.97-21.97-42.87-65.91-44.69l-9.89,43.33
		c-34.6,148.96-67.84,248.72-99.69,299.27c-5.48,8.13-8.24,5.42-8.24-8.12c0-2.71,0.55-5.86,1.65-9.48
		c30.75-66.8,57.39-145.78,79.92-236.98c22.52-91.17,38.17-177.84,46.96-260c3.3-27.97,10.98-41.98,23.07-41.98
		c12.08,0,20.87,12.65,26.36,37.92C3743.36,883.28,3744.18,892.76,3744.18,903.6z"/>
</g>
</svg>
