<?xml version="1.0" encoding="utf-8"?>
<!-- Generator: Adobe Illustrator 26.5.3, SVG Export Plug-In . SVG Version: 6.00 Build 0)  -->
<svg version="1.1" id="Layer_1" xmlns="http://www.w3.org/2000/svg" xmlns:xlink="http://www.w3.org/1999/xlink" x="0px" y="0px"
	 viewBox="0 0 400 400" style="enable-background:new 0 0 400 400;" xml:space="preserve">
<g>
	<path d="M329.4,244.9C329.4,245,329.4,244.9,329.4,244.9l0.1-0.1L329.4,244.9L329.4,244.9C329.4,244.9,329.4,244.9,329.4,244.9z"/>
	<path d="M313.9,257.2L313.9,257.2l-0.3,0.2c-0.1,0.1-0.2,0.2-0.3,0.2c-0.9,0.8-0.9,2.2-0.1,3.1s2.2,0.9,3.1,0.1l0.2-0.2
		c0.7-0.7,0.9-1.8,0.3-2.7C316.2,256.9,314.9,256.6,313.9,257.2z"/>
	<path d="M296.3,266.1L296.3,266.1l-0.3,0.1c-0.1,0.1-0.3,0.1-0.4,0.2c-1.8,1-2.5,3.3-1.5,5.1s3.3,2.5,5.1,1.5h0l0.3-0.2
		c1.6-0.9,2.4-2.8,1.7-4.6C300.4,266.4,298.2,265.4,296.3,266.1z"/>
	<path d="M277.6,271.2L277.6,271.2l-0.3,0.1c-0.2,0-0.3,0.1-0.5,0.1c-2.6,0.7-4.2,3.4-3.5,6c0.7,2.6,3.4,4.2,6,3.5h0l0.3-0.1
		c2.4-0.6,4-3,3.6-5.5C282.8,272.6,280.3,270.8,277.6,271.2z"/>
	<path d="M258.6,272.3L258.6,272.3l-0.4,0c-0.1,0-0.3,0-0.4,0c-3.2,0.1-5.8,2.7-5.7,6c0.1,3.2,2.7,5.8,6,5.7h0l0.4,0
		c3-0.1,5.5-2.5,5.7-5.5C264.2,275.2,261.8,272.4,258.6,272.3z"/>
	<path d="M239.8,269.4L239.8,269.4l-0.4-0.1c-0.1,0-0.2-0.1-0.3-0.1c-3.5-0.8-6.9,1.5-7.6,4.9c-0.8,3.5,1.5,6.9,4.9,7.6l0.4,0.1
		c3.3,0.7,6.6-1.3,7.5-4.6C245.3,273.8,243.3,270.3,239.8,269.4z"/>
	<path d="M222.3,262.7L222.3,262.7l-0.3-0.2l0,0c0,0-0.1,0-0.1,0c-3.4-1.6-7.4-0.2-9,3.1c-1.6,3.4-0.2,7.4,3.1,9l0.3,0.2
		c3.3,1.6,7.3,0.3,9-3C226.9,268.5,225.6,264.4,222.3,262.7z"/>
	<path d="M206.5,252.4L206.5,252.4l-0.3-0.2l0,0l0,0c-2.9-2.4-7.3-1.9-9.7,1c-2.4,3-1.9,7.3,1,9.7l0.3,0.2c2.9,2.4,7.2,2,9.7-1
		C209.9,259.2,209.5,254.8,206.5,252.4z"/>
	<path d="M193.3,239.1L193.3,239.1l-0.2-0.2l0,0c-2.3-2.9-6.5-3.4-9.4-1.1c-3,2.3-3.5,6.5-1.3,9.5l0.2,0.3c0,0,0.1,0.1,0.1,0.1
		c2.3,2.9,6.6,3.4,9.5,1.1C195.1,246.3,195.6,242,193.3,239.1z"/>
	<path d="M183.1,223.2L183,223l0-0.1c-1.5-3-5.2-4.4-8.3-3c-3.2,1.4-4.7,5.2-3.3,8.5l0.1,0.3c0,0.1,0.1,0.2,0.1,0.3
		c1.6,3.2,5.4,4.5,8.6,2.9C183.4,230.3,184.7,226.4,183.1,223.2z"/>
	<path d="M172.3,212.6c3.1-0.8,5-4,4.2-7.1l-0.1-0.3l0-0.1c-0.8-2.9-3.7-4.8-6.7-4.3c-3.2,0.6-5.3,3.6-4.7,6.8l0.1,0.4v0
		c0,0.1,0.1,0.2,0.1,0.4C166,211.5,169.2,213.4,172.3,212.6z"/>
	<path d="M169,191.8c2.7-0.1,4.8-2.4,4.7-5.1l0-0.3v-0.1c-0.1-2.5-2.1-4.5-4.6-4.7c-2.7-0.2-5.1,1.9-5.2,4.6l0,0.4v0
		c0,0.2,0,0.3,0,0.5C163.9,189.8,166.2,191.9,169,191.8z"/>
	<path d="M170.5,170.4c2,0.3,4-1,4.3-3.1l0.1-0.3l0,0c0.3-1.8-0.8-3.6-2.6-4.2c-2-0.6-4.1,0.5-4.7,2.5l-0.1,0.3l0,0
		c-0.1,0.1-0.1,0.3-0.1,0.5C167.1,168.1,168.5,170,170.5,170.4z"/>
	<path d="M177.2,149.6c1.1,0.4,2.4-0.1,2.8-1.2l0.1-0.3l0,0c0.4-0.9,0-2.1-0.9-2.6c-1-0.6-2.3-0.3-3,0.7l-0.2,0.3
		c-0.1,0.1-0.1,0.2-0.2,0.4C175.5,147.9,176.1,149.1,177.2,149.6z"/>
	<path d="M189.1,130.3l0.1-0.1L189.1,130.3L189.1,130.3C189.1,130.3,189.1,130.3,189.1,130.3C189.1,130.3,189.1,130.3,189.1,130.3z"
		/>
	<path d="M266.7,263.6C266.7,263.6,266.7,263.6,266.7,263.6l0.2,0L266.7,263.6C266.8,263.6,266.8,263.6,266.7,263.6
		C266.7,263.6,266.7,263.6,266.7,263.6z"/>
	<path d="M246.4,260.1l0.3,0.1c1,0.3,2-0.1,2.5-1.1c0.5-1,0.1-2.3-0.9-2.9l0,0l-0.3-0.1c-0.1-0.1-0.2-0.1-0.4-0.1
		c-1.1-0.4-2.4,0.3-2.7,1.5C244.6,258.5,245.3,259.8,246.4,260.1z"/>
	<path d="M231.8,245.5l-0.2-0.2c-0.1-0.1-0.3-0.2-0.4-0.3c-1.8-1.1-4.1-0.5-5.1,1.2s-0.5,4.1,1.2,5.1h0l0.3,0.2
		c1.6,0.9,3.6,0.6,4.8-0.8C233.7,249.2,233.4,246.9,231.8,245.5L231.8,245.5z"/>
	<path d="M210.6,238.2L210.6,238.2l0.2,0.3c1.8,1.8,4.6,1.9,6.6,0.4c2.1-1.7,2.4-4.8,0.7-6.9l0,0l-0.2-0.2c-0.1-0.1-0.2-0.2-0.3-0.4
		c-1.9-1.9-5-1.9-7,0C208.7,233.2,208.6,236.3,210.6,238.2z"/>
	<path d="M197.3,221.3l0.2,0.3c1.6,2.6,4.9,3.5,7.6,2.1c2.9-1.5,4-5,2.5-7.8l0,0l-0.1-0.3c-0.1-0.1-0.1-0.2-0.2-0.4
		c-1.7-2.8-5.2-3.6-8-1.9C196.5,214.9,195.6,218.5,197.3,221.3L197.3,221.3z"/>
	<path d="M200.8,198.3L200.8,198.3l-0.1-0.4c0-0.1-0.1-0.2-0.1-0.3c-1.1-3.4-4.7-5.2-8.1-4.1c-3.4,1.1-5.2,4.7-4.1,8.1l0.1,0.3
		c1,3.2,4.4,5.1,7.8,4.2C199.6,205.2,201.7,201.7,200.8,198.3z"/>
	<path d="M184.3,180.5c0.3,3.6,3.4,6.4,7.1,6.3c3.7-0.2,6.6-3.4,6.4-7.1v0l0-0.3v-0.1c0,0,0-0.1,0-0.1c-0.3-3.7-3.5-6.5-7.2-6.2
		c-3.7,0.3-6.5,3.5-6.2,7.2L184.3,180.5z"/>
	<path d="M190.9,166.6c3.8,0.6,7.3-1.9,7.9-5.7v0l0.1-0.3v0l0,0c0.6-3.8-1.9-7.3-5.7-7.9c-3.8-0.6-7.3,1.9-7.9,5.7l-0.1,0.4
		C184.6,162.5,187.1,166,190.9,166.6z"/>
	<path d="M195,146.6c3.5,1.4,7.4-0.4,8.8-3.8v0l0.1-0.3l0,0c1.3-3.4-0.3-7.3-3.7-8.7c-3.4-1.4-7.4,0.2-8.8,3.6l-0.1,0.3
		c0,0,0,0.1-0.1,0.1C189.7,141.4,191.5,145.3,195,146.6z"/>
	<path d="M203.5,127.9c3,2,7,1.1,8.9-1.8l0.2-0.3l0-0.1c1.9-2.8,1.2-6.7-1.6-8.7c-2.9-2.1-6.9-1.5-9,1.4l-0.2,0.3
		c-0.1,0.1-0.1,0.2-0.2,0.3C199.7,122,200.5,125.9,203.5,127.9z"/>
	<path d="M224.4,111.5l0.2-0.2l0.1-0.1c2.2-2.1,2.4-5.6,0.4-7.9c-2.1-2.4-5.8-2.8-8.2-0.7l-0.3,0.2l0,0c-0.1,0.1-0.2,0.2-0.3,0.3
		c-2.3,2.2-2.4,5.9-0.1,8.2C218.4,113.7,222.1,113.7,224.4,111.5z"/>
	<path d="M239.4,99.6l0.3-0.2l0.1,0c2.1-1.3,2.9-4.1,1.8-6.4c-1.2-2.4-4.2-3.4-6.6-2.2l-0.3,0.2l0,0c-0.1,0.1-0.3,0.2-0.4,0.2
		c-2.3,1.5-3,4.5-1.5,6.8C234,100.4,237.1,101.1,239.4,99.6z"/>
	<path d="M256.7,90.9l0.3-0.1l0,0c1.7-0.6,2.8-2.5,2.3-4.3c-0.5-2-2.5-3.3-4.5-2.8l-0.3,0.1l0,0c-0.2,0-0.3,0.1-0.5,0.1
		c-1.9,0.7-2.9,2.9-2.2,4.8C252.6,90.7,254.8,91.7,256.7,90.9z"/>
	<path d="M275.7,85.9l0.3-0.1h0c1-0.2,1.8-1,1.8-2.1c0-1.2-0.9-2.2-2.1-2.2l-0.3,0c-0.1,0-0.3,0-0.4,0c-1.2,0.2-2,1.3-1.8,2.5
		C273.4,85.3,274.6,86.1,275.7,85.9z"/>
	<path d="M296,84.8l-0.2-0.1c0,0,0,0,0,0c0,0,0,0,0,0c0,0,0,0,0,0L296,84.8z"/>
	<path d="M219.2,218.7C219.2,218.7,219.2,218.7,219.2,218.7l0.1,0.2L219.2,218.7C219.3,218.7,219.3,218.7,219.2,218.7
		C219.3,218.7,219.2,218.7,219.2,218.7z"/>
	<path d="M216.3,198.3c-0.3-1.2-1.4-1.9-2.6-1.6c-1.2,0.3-1.9,1.4-1.6,2.6l0.1,0.3c0.2,1,1.1,1.7,2.2,1.6c1.2-0.1,2.1-1.1,2-2.2v0
		l0-0.3C216.4,198.6,216.3,198.4,216.3,198.3z"/>
	<path d="M217.4,179.4L217.4,179.4l0.1-0.4c0-0.2,0-0.3,0.1-0.5c0.1-2.1-1.6-3.8-3.6-3.8s-3.8,1.6-3.8,3.6v0l0,0.4
		c0,1.8,1.3,3.5,3.1,3.8C215.2,182.8,217.1,181.4,217.4,179.4z"/>
	<path d="M213.1,157.3l-0.1,0.3c-0.6,2.4,0.6,5,3,5.9c2.5,1,5.4-0.3,6.3-2.8l0,0l0.1-0.3c0.1-0.1,0.1-0.3,0.1-0.5
		c0.7-2.6-0.8-5.3-3.5-6C216.6,153.1,213.8,154.7,213.1,157.3L213.1,157.3z"/>
	<path d="M221.2,137.4L221.2,137.4l-0.2,0.3c-1.4,2.6-0.6,6,1.9,7.7c2.7,1.7,6.3,1,8-1.7l0,0l0.2-0.3c0.1-0.1,0.1-0.2,0.2-0.4
		c1.5-2.8,0.5-6.4-2.3-7.9C226.3,133.5,222.7,134.6,221.2,137.4z"/>
	<path d="M233.8,119.8l-0.2,0.3c-2.3,2.5-2.2,6.4,0.2,8.8c2.5,2.5,6.6,2.5,9.1,0l0,0l0.2-0.2c0.1-0.1,0.2-0.2,0.2-0.2
		c2.4-2.6,2.2-6.7-0.4-9.1C240.2,116.9,236.2,117.1,233.8,119.8z"/>
	<path d="M257.4,117L257.4,117l0.3-0.2l0,0c0,0,0.1-0.1,0.1-0.1c3.1-2.1,3.9-6.3,1.8-9.4c-2.1-3.1-6.3-3.9-9.4-1.8l-0.3,0.2
		c-3,2.1-3.9,6.2-1.9,9.3C250.1,118.1,254.3,119,257.4,117z"/>
	<path d="M274.2,108.5L274.2,108.5l0.3-0.1l0,0l0,0c3.6-1.3,5.3-5.3,4-8.9c-1.4-3.6-5.3-5.3-8.9-4l-0.3,0.1c-3.6,1.3-5.3,5.3-4,8.8
		C266.7,108,270.6,109.8,274.2,108.5z"/>
	<path d="M292.4,103.7L292.4,103.7l0.3-0.1l0,0c3.6-0.6,6.1-3.9,5.7-7.6c-0.5-3.7-3.9-6.3-7.6-5.8l-0.4,0.1c0,0-0.1,0-0.2,0
		c-3.7,0.6-6.2,4-5.7,7.7C285.2,101.7,288.7,104.3,292.4,103.7z"/>
	<path d="M311.2,102.8l0.3,0h0.1c3.4,0.2,6.4-2.3,6.8-5.7c0.4-3.5-2.2-6.7-5.7-7.1l-0.4,0c-0.1,0-0.2,0-0.3,0
		c-3.5-0.2-6.6,2.5-6.8,6C304.9,99.6,307.6,102.6,311.2,102.8z"/>
	<path d="M329.8,106l0.3,0.1l0.1,0c2.9,0.8,6-0.8,7-3.7c1.1-3-0.5-6.4-3.5-7.4l-0.3-0.1l0,0c-0.1,0-0.2-0.1-0.4-0.1
		c-3.1-0.9-6.3,0.9-7.2,4C324.9,101.9,326.7,105.1,329.8,106z"/>
	<path d="M347.6,113l0.3,0.2l0.1,0c2.2,1.2,5,0.5,6.4-1.7c1.5-2.3,0.9-5.3-1.4-6.8l-0.3-0.2l0,0c-0.1-0.1-0.3-0.2-0.4-0.2
		c-2.4-1.3-5.4-0.3-6.7,2.1C344.2,108.7,345.2,111.7,347.6,113z"/>
	<path d="M363.8,123.6l0.2,0.2l0,0c1.4,1.2,3.5,1.1,4.9-0.1c1.5-1.4,1.6-3.8,0.2-5.3l-0.2-0.2l0,0c-0.1-0.1-0.2-0.2-0.4-0.3
		c-1.6-1.3-4-1.1-5.3,0.5S362.2,122.3,363.8,123.6z"/>
	<path d="M377.8,137.9L377.8,137.9c0.7,0.8,1.8,1,2.7,0.5c1-0.6,1.4-1.9,0.9-2.9l-0.2-0.3c-0.1-0.1-0.1-0.2-0.2-0.3
		c-0.8-0.9-2.1-1.1-3.1-0.3s-1.1,2.1-0.3,3.1L377.8,137.9z"/>
	<path d="M388.7,154.5C388.7,154.5,388.7,154.5,388.7,154.5C388.7,154.4,388.7,154.4,388.7,154.5
		C388.7,154.5,388.7,154.5,388.7,154.5l0,0.2L388.7,154.5z"/>
	<path d="M234.3,155.2l0.1-0.1l0,0c0,0,0,0,0,0s0,0,0,0L234.3,155.2z"/>
	<path d="M250,142.8L250,142.8l0.3-0.2c0.1-0.1,0.2-0.2,0.3-0.2c0.9-0.8,0.9-2.2,0.1-3.1c-0.8-0.9-2.2-0.9-3.1-0.1l-0.2,0.2
		c-0.7,0.7-0.9,1.8-0.3,2.7C247.6,143.1,249,143.4,250,142.8z"/>
	<path d="M267.5,133.9L267.5,133.9l0.3-0.1c0.1-0.1,0.3-0.1,0.4-0.2c1.8-1,2.5-3.3,1.5-5.1c-1-1.8-3.3-2.5-5.1-1.5h0l-0.3,0.2
		c-1.6,0.9-2.4,2.8-1.7,4.6C263.4,133.6,265.6,134.6,267.5,133.9z"/>
	<path d="M286.2,128.8L286.2,128.8l0.3-0.1c0.2,0,0.3-0.1,0.5-0.1c2.6-0.7,4.2-3.4,3.5-6c-0.7-2.6-3.4-4.2-6-3.5h0l-0.3,0.1
		c-2.4,0.6-4,3-3.6,5.5C281,127.4,283.5,129.2,286.2,128.8z"/>
	<path d="M305.3,127.7l0.3,0c0.1,0,0.3,0,0.4,0c3.2-0.1,5.8-2.7,5.7-5.9c-0.1-3.2-2.7-5.8-6-5.7h0l-0.3,0c-3,0.1-5.5,2.5-5.7,5.5
		C299.6,124.8,302.1,127.6,305.3,127.7L305.3,127.7z"/>
	<path d="M324,130.6L324,130.6l0.4,0.1c0.1,0,0.2,0.1,0.3,0.1c3.5,0.8,6.9-1.5,7.6-4.9c0.8-3.5-1.5-6.9-4.9-7.6l-0.3-0.1
		c-3.3-0.7-6.7,1.3-7.5,4.6C318.5,126.2,320.6,129.7,324,130.6z"/>
	<path d="M341.6,137.3L341.6,137.3l0.3,0.2l0,0c0,0,0.1,0,0.1,0.1c3.4,1.6,7.4,0.2,9-3.1s0.2-7.4-3.1-9l-0.3-0.2
		c-3.3-1.6-7.3-0.3-9,3C336.9,131.5,338.2,135.6,341.6,137.3z"/>
	<path d="M357.3,147.6L357.3,147.6l0.3,0.2l0,0l0,0c3,2.4,7.3,1.9,9.7-1s2-7.3-1-9.7l-0.3-0.2c-2.9-2.4-7.2-2-9.7,1
		C353.9,140.8,354.3,145.2,357.3,147.6z"/>
	<path d="M370.5,160.9L370.5,160.9l0.2,0.2l0,0c2.3,2.9,6.5,3.4,9.4,1.1c3-2.3,3.5-6.5,1.3-9.5l-0.2-0.3c0,0-0.1-0.1-0.1-0.1
		c-2.3-2.9-6.6-3.4-9.5-1.1C368.7,153.7,368.2,158,370.5,160.9z"/>
	<path d="M389.2,180.1c3.2-1.4,4.7-5.2,3.3-8.5l-0.1-0.3c0-0.1-0.1-0.2-0.1-0.3c-1.6-3.2-5.5-4.5-8.6-2.9s-4.5,5.4-2.9,8.6l0.1,0.3
		l0,0.1C382.4,180.1,386,181.5,389.2,180.1z"/>
	<path d="M391.5,187.4c-3.1,0.8-5,4-4.2,7.1l0.1,0.3l0,0.1c0.8,2.9,3.6,4.8,6.7,4.3c3.2-0.6,5.3-3.6,4.7-6.8l-0.1-0.4v0
		c0-0.1,0-0.2-0.1-0.4C397.8,188.5,394.6,186.6,391.5,187.4z"/>
	<path d="M394.9,208.2c-2.7,0.1-4.9,2.4-4.7,5.1l0,0.3v0.1c0.1,2.5,2.1,4.5,4.6,4.7c2.7,0.2,5-1.9,5.2-4.6l0-0.4v0
		c0-0.2,0-0.3,0-0.5C399.9,210.2,397.6,208.1,394.9,208.2z"/>
	<path d="M393.3,229.6c-2-0.3-4,1-4.3,3.1l0,0.3l0,0c-0.3,1.8,0.8,3.6,2.6,4.2c2,0.6,4.1-0.5,4.7-2.5l0.1-0.3l0,0
		c0-0.1,0.1-0.3,0.1-0.5C396.7,231.9,395.3,230,393.3,229.6z"/>
	<path d="M386.6,250.4c-1.1-0.4-2.4,0.1-2.8,1.2l-0.1,0.3l0,0c-0.4,0.9,0,2.1,0.9,2.6c1,0.6,2.3,0.3,3-0.7l0.2-0.3
		c0.1-0.1,0.1-0.2,0.2-0.4C388.3,252.1,387.7,250.9,386.6,250.4z"/>
	<path d="M374.7,269.7l-0.1,0.1L374.7,269.7L374.7,269.7C374.8,269.7,374.7,269.7,374.7,269.7C374.7,269.7,374.7,269.7,374.7,269.7z
		"/>
	<path d="M297.1,136.4L297.1,136.4C297.1,136.4,297.1,136.4,297.1,136.4C297.1,136.4,297.1,136.4,297.1,136.4l-0.2-0.1L297.1,136.4z
		"/>
	<path d="M317.4,139.9l-0.3-0.1c-1-0.3-2,0.1-2.5,1.1c-0.5,1.1-0.1,2.3,0.9,2.9l0,0l0.3,0.1c0.1,0.1,0.2,0.1,0.4,0.1
		c1.1,0.4,2.4-0.3,2.7-1.4C319.2,141.4,318.5,140.2,317.4,139.9z"/>
	<path d="M336.5,148.6L336.5,148.6l-0.3-0.2c-1.6-0.9-3.6-0.6-4.8,0.8c-1.3,1.6-1,3.9,0.6,5.2l0,0l0.2,0.2c0.1,0.1,0.3,0.2,0.4,0.3
		c1.8,1.1,4.1,0.5,5.1-1.2C338.9,151.9,338.3,149.6,336.5,148.6z"/>
	<path d="M353.2,161.8L353.2,161.8l-0.2-0.3c-1.8-1.8-4.6-1.9-6.6-0.4c-2.1,1.7-2.4,4.8-0.7,6.9l0,0l0.2,0.2
		c0.1,0.1,0.2,0.2,0.3,0.4c1.9,1.9,5,1.9,7,0C355.2,166.8,355.2,163.7,353.2,161.8z"/>
	<path d="M366.5,178.7L366.5,178.7l-0.2-0.3c-1.6-2.6-4.9-3.5-7.6-2.1c-2.9,1.5-4,5-2.5,7.8l0,0l0.1,0.3c0.1,0.1,0.1,0.2,0.2,0.4
		c1.7,2.8,5.2,3.6,8,1.9C367.3,185.1,368.2,181.5,366.5,178.7z"/>
	<path d="M363.1,201.8l0.1,0.3c0,0.1,0.1,0.2,0.1,0.3c1.1,3.4,4.7,5.2,8.1,4.1c3.4-1.1,5.2-4.7,4.1-8.1l-0.1-0.3
		c-1-3.2-4.5-5.1-7.8-4.2C364.2,194.8,362.1,198.3,363.1,201.8L363.1,201.8z"/>
	<path d="M379.5,219.5c-0.3-3.6-3.4-6.4-7.1-6.3c-3.7,0.2-6.6,3.4-6.4,7.1v0l0,0.3v0.1c0,0,0,0.1,0,0.1c0.3,3.7,3.5,6.5,7.2,6.2
		c3.7-0.3,6.5-3.5,6.2-7.2L379.5,219.5z"/>
	<path d="M372.9,233.4c-3.8-0.6-7.3,1.9-7.9,5.7v0l0,0.3v0l0,0c-0.6,3.8,2,7.3,5.7,7.9c3.8,0.6,7.3-1.9,7.9-5.7l0.1-0.4
		C379.2,237.5,376.7,234,372.9,233.4z"/>
	<path d="M368.9,253.4c-3.5-1.4-7.4,0.4-8.8,3.8v0l-0.1,0.3l0,0c-1.3,3.4,0.3,7.3,3.7,8.7c3.5,1.4,7.4-0.2,8.9-3.6l0.1-0.3
		c0,0,0-0.1,0.1-0.1C374.1,258.6,372.3,254.7,368.9,253.4z"/>
	<path d="M360.3,272.1c-3-2-7-1.1-8.9,1.8l-0.2,0.3l0,0c-1.9,2.8-1.2,6.7,1.6,8.7c2.9,2.1,6.9,1.5,9-1.4l0.2-0.3
		c0.1-0.1,0.1-0.2,0.2-0.3C364.1,278,363.3,274,360.3,272.1z"/>
	<path d="M339.4,288.5l-0.2,0.2l0,0c-2.2,2.1-2.4,5.6-0.4,7.9c2.1,2.5,5.8,2.8,8.2,0.7l0.3-0.2l0,0c0.1-0.1,0.2-0.2,0.3-0.3
		c2.3-2.2,2.4-5.9,0.1-8.2C345.4,286.3,341.7,286.3,339.4,288.5z"/>
	<path d="M324.4,300.4l-0.3,0.2l-0.1,0c-2.1,1.3-2.9,4.1-1.8,6.4c1.2,2.4,4.2,3.4,6.6,2.2l0.3-0.2l0,0c0.1-0.1,0.3-0.1,0.4-0.2
		c2.3-1.5,3-4.5,1.5-6.8C329.8,299.6,326.7,299,324.4,300.4z"/>
	<path d="M307.1,309.1l-0.3,0.1l0,0c-1.7,0.6-2.8,2.5-2.3,4.3c0.5,2,2.5,3.3,4.5,2.8l0.3-0.1l0,0c0.2,0,0.3-0.1,0.5-0.1
		c1.9-0.7,2.9-2.9,2.2-4.8C311.2,309.3,309,308.3,307.1,309.1z"/>
	<path d="M288.1,314.1l-0.3,0h0c-1,0.2-1.8,1-1.8,2.1c0,1.2,0.9,2.2,2.1,2.2l0.3,0c0.1,0,0.3,0,0.4,0c1.2-0.2,2-1.3,1.8-2.5
		C290.4,314.7,289.3,313.9,288.1,314.1z"/>
	<path d="M267.8,315.2l0.2,0c0,0,0,0,0,0c0,0,0,0,0,0c0,0,0,0,0,0L267.8,315.2z"/>
	<path d="M344.6,181.3C344.6,181.3,344.6,181.3,344.6,181.3C344.6,181.3,344.6,181.3,344.6,181.3l0-0.2L344.6,181.3
		C344.6,181.3,344.6,181.3,344.6,181.3z"/>
	<path d="M347.5,201.7c0.3,1.2,1.4,1.9,2.6,1.6c1.2-0.3,1.9-1.4,1.6-2.6l-0.1-0.3c-0.2-1-1.1-1.7-2.2-1.6c-1.2,0.1-2.1,1.1-2,2.2v0
		l0,0.3C347.4,201.4,347.5,201.6,347.5,201.7z"/>
	<path d="M346.4,220.6L346.4,220.6l-0.1,0.4c0,0.2,0,0.3,0,0.5c0,2.1,1.6,3.8,3.6,3.8s3.8-1.6,3.8-3.6v0l0-0.4
		c0-1.8-1.3-3.5-3.1-3.8C348.6,217.2,346.7,218.6,346.4,220.6z"/>
	<path d="M350.7,242.7l0.1-0.3c0.6-2.4-0.6-5-3-5.9c-2.5-1-5.4,0.3-6.3,2.8l0,0l-0.1,0.3c-0.1,0.1-0.1,0.3-0.1,0.5
		c-0.7,2.6,0.8,5.3,3.5,6C347.3,246.9,350,245.3,350.7,242.7L350.7,242.7z"/>
	<path d="M342.6,262.6L342.6,262.6l0.2-0.3c1.4-2.6,0.6-6-1.9-7.7c-2.7-1.7-6.3-1-8,1.7l0,0l-0.2,0.3c-0.1,0.1-0.2,0.2-0.2,0.4
		c-1.5,2.8-0.5,6.4,2.3,7.9C337.5,266.5,341.1,265.4,342.6,262.6z"/>
	<path d="M330,280.2l0.2-0.3c2.3-2.5,2.2-6.4-0.2-8.8c-2.5-2.5-6.6-2.5-9.1,0l0,0l-0.2,0.2c-0.1,0.1-0.2,0.2-0.2,0.2
		c-2.4,2.6-2.2,6.7,0.4,9.1C323.6,283.1,327.6,282.9,330,280.2z"/>
	<path d="M306.4,283L306.4,283l-0.3,0.2l0,0c0,0-0.1,0-0.1,0.1c-3.1,2.1-3.9,6.3-1.8,9.4c2.1,3.1,6.3,3.9,9.4,1.8l0.3-0.2
		c3-2.1,3.9-6.2,1.9-9.3C313.7,281.9,309.5,281,306.4,283z"/>
	<path d="M289.6,291.5L289.6,291.5l-0.3,0.1l0,0l0,0c-3.6,1.4-5.3,5.3-4,8.9c1.4,3.5,5.3,5.3,8.9,4l0.3-0.1c3.6-1.3,5.3-5.3,4-8.9
		C297.1,292,293.2,290.2,289.6,291.5z"/>
	<path d="M271.5,296.3L271.5,296.3l-0.3,0l0,0c-3.6,0.5-6.1,3.9-5.7,7.5c0.5,3.7,3.9,6.3,7.6,5.9l0.4,0c0,0,0.1,0,0.2,0
		c3.7-0.6,6.2-4,5.7-7.7C278.6,298.3,275.2,295.7,271.5,296.3z"/>
	<path d="M252.7,297.2l-0.3,0h-0.1c-3.4-0.2-6.4,2.3-6.8,5.7c-0.4,3.5,2.1,6.7,5.7,7.1l0.4,0c0.1,0,0.2,0,0.3,0
		c3.6,0.2,6.6-2.5,6.8-6C258.9,300.4,256.2,297.4,252.7,297.2z"/>
	<path d="M234,294l-0.3-0.1l-0.1,0c-2.9-0.8-6,0.8-7,3.6c-1.1,3,0.5,6.4,3.5,7.5l0.3,0.1l0,0c0.1,0,0.2,0.1,0.4,0.1
		c3.1,0.9,6.3-0.9,7.2-4C238.9,298.1,237.1,294.9,234,294z"/>
	<path d="M216.2,287l-0.3-0.1l-0.1,0c-2.2-1.1-5-0.5-6.4,1.7c-1.5,2.3-0.9,5.3,1.4,6.8l0.3,0.2l0,0c0.1,0.1,0.3,0.2,0.4,0.2
		c2.4,1.3,5.4,0.3,6.7-2.1S218.6,288.3,216.2,287z"/>
	<path d="M200,276.4l-0.2-0.2l0,0c-1.4-1.2-3.5-1.1-4.9,0.1c-1.5,1.4-1.6,3.8-0.2,5.3l0.2,0.3l0,0c0.1,0.1,0.2,0.2,0.4,0.3
		c1.6,1.3,4,1.1,5.3-0.5S201.6,277.7,200,276.4z"/>
	<path d="M186,262.1L186,262.1c-0.6-0.8-1.8-1.1-2.7-0.6c-1,0.6-1.4,1.9-0.9,2.9l0.2,0.3c0.1,0.1,0.1,0.2,0.2,0.3
		c0.8,0.9,2.1,1.1,3.1,0.3s1.1-2.1,0.3-3.1L186,262.1z"/>
	<path d="M175.1,245.5C175.1,245.5,175.1,245.5,175.1,245.5C175.1,245.6,175.1,245.6,175.1,245.5
		C175.1,245.5,175.1,245.5,175.1,245.5l0-0.2L175.1,245.5z"/>
</g>
</svg>
