<?xml version="1.0" encoding="utf-8"?>
<!-- Generator: Adobe Illustrator 26.5.3, SVG Export Plug-In . SVG Version: 6.00 Build 0)  -->
<svg version="1.1" id="circles" xmlns="http://www.w3.org/2000/svg" xmlns:xlink="http://www.w3.org/1999/xlink" x="0px" y="0px"
	 viewBox="0 0 3840 2160" style="enable-background:new 0 0 3840 2160;" xml:space="preserve">
<style type="text/css">
	.st0{clip-path:url(#SVGID_00000080167002085807691380000000609809131073114552_);fill:#999999;}
	.st1{clip-path:url(#SVGID_00000080167002085807691380000000609809131073114552_);fill:#8B1725;}
</style>
<g>
	<defs>
		<rect id="SVGID_1_" width="3840" height="2160"/>
	</defs>
	<clipPath id="SVGID_00000116215546915649350900000000742060092478570930_">
		<use xlink:href="#SVGID_1_"  style="overflow:visible;"/>
	</clipPath>
	<path style="clip-path:url(#SVGID_00000116215546915649350900000000742060092478570930_);fill:#999999;" d="M3021.8,943.2
		l522.9,53.7c0-1,0.1-2,0.2-3l-522.8-53.7C3022.1,941.2,3022,942.2,3021.8,943.2z"/>
	<path style="clip-path:url(#SVGID_00000116215546915649350900000000742060092478570930_);fill:#999999;" d="M2980.6,933.1
		c0.3-1,0.6-1.9,1-2.8L2684,810.1c-0.3,0.9-0.7,1.9-1.2,2.8L2980.6,933.1z"/>
	<path style="clip-path:url(#SVGID_00000116215546915649350900000000742060092478570930_);fill:#999999;" d="M2391.8,276
		c0-0.3,0-0.7,0.1-1h-385.7c0.1,0.7,0.1,1.3,0.1,2c0,0.3,0,0.7-0.1,1h385.7C2391.8,277.3,2391.8,276.7,2391.8,276z"/>
	<path style="clip-path:url(#SVGID_00000116215546915649350900000000742060092478570930_);fill:#999999;" d="M1966,551.8
		c0.9,0,1.8,0.1,2.7,0.2l14.1-253.8c-1-0.1-2-0.3-3-0.5l-14.1,254.2C1965.8,551.8,1965.9,551.8,1966,551.8z"/>
	<path style="clip-path:url(#SVGID_00000116215546915649350900000000742060092478570930_);fill:#999999;" d="M2433.8,576.5
		l-430.9-288.2c-0.5,0.8-1.1,1.7-1.8,2.4l431.1,288.3C2432.7,578.2,2433.2,577.3,2433.8,576.5z"/>
	<path style="clip-path:url(#SVGID_00000116215546915649350900000000742060092478570930_);fill:#999999;" d="M2434.2,274.8
		l471.2-68.9c-0.2-1-0.4-1.9-0.5-3l-471,68.9C2434,272.8,2434.1,273.8,2434.2,274.8z"/>
	<path style="clip-path:url(#SVGID_00000116215546915649350900000000742060092478570930_);fill:#999999;" d="M2998.8,552.4
		l-526.7,34.2c0.1,0.8,0.1,1.6,0.1,2.4c0,0.2,0,0.4,0,0.6l526.8-34.2C2998.9,554.4,2998.8,553.4,2998.8,552.4z"/>
	<path style="clip-path:url(#SVGID_00000116215546915649350900000000742060092478570930_);fill:#999999;" d="M2416.5,296.9
		c-1,0.2-2,0.3-3,0.3l32.9,271c1-0.2,2-0.4,3-0.4L2416.5,296.9z"/>
	<path style="clip-path:url(#SVGID_00000116215546915649350900000000742060092478570930_);fill:#999999;" d="M3001,917.8
		c0.7,0,1.4,0,2.1,0.1l17.8-344.7c-0.3,0-0.6,0-0.9,0c-0.7,0-1.4,0-2.1-0.1l-17.8,344.6C3000.4,917.8,3000.7,917.8,3001,917.8z"/>
	<path style="clip-path:url(#SVGID_00000116215546915649350900000000742060092478570930_);fill:#999999;" d="M3533.4,535.2
		l29.2,440.8c1-0.2,2-0.3,3-0.3l-29.2-440.7c-0.8,0.1-1.6,0.1-2.4,0.1C3533.8,535.2,3533.6,535.2,3533.4,535.2z"/>
	<path style="clip-path:url(#SVGID_00000116215546915649350900000000742060092478570930_);fill:#999999;" d="M3018.5,927
		l499.9-398.6c-0.7-0.7-1.3-1.5-1.9-2.3l-499.9,398.6C3017.3,925.4,3018,926.2,3018.5,927z"/>
	<path style="clip-path:url(#SVGID_00000116215546915649350900000000742060092478570930_);fill:#999999;" d="M3041.2,552.5l471.8-35
		c-0.2-1-0.3-2-0.3-3l-471.7,34.9c0.1,0.8,0.2,1.7,0.2,2.5C3041.2,552.2,3041.2,552.3,3041.2,552.5z"/>
	<path style="clip-path:url(#SVGID_00000116215546915649350900000000742060092478570930_);fill:#999999;" d="M2947.1,203h385.7
		c-0.1-0.7-0.1-1.3-0.1-2c0-0.3,0-0.7,0.1-1h-385.6c0,0.3,0.1,0.7,0.1,1C2947.2,201.7,2947.2,202.3,2947.1,203z"/>
	<path style="clip-path:url(#SVGID_00000116215546915649350900000000742060092478570930_);fill:#999999;" d="M3036.1,538.2
		l304.4-320.8c-0.8-0.6-1.5-1.3-2.2-2.1L3034,536.1C3034.8,536.7,3035.5,537.4,3036.1,538.2z"/>
	<path style="clip-path:url(#SVGID_00000116215546915649350900000000742060092478570930_);fill:#999999;" d="M3016.3,531.1
		l-83.9-309.8c-0.9,0.3-1.9,0.5-2.9,0.7l83.9,309.9C3014.3,531.5,3015.3,531.3,3016.3,531.1z"/>
	<path style="clip-path:url(#SVGID_00000116215546915649350900000000742060092478570930_);fill:#999999;" d="M3000,544.8
		c0.3-0.9,0.7-1.9,1.2-2.8L2432.7,284c-0.4,0.9-0.8,1.8-1.3,2.7L3000,544.8z"/>
	<path style="clip-path:url(#SVGID_00000116215546915649350900000000742060092478570930_);fill:#999999;" d="M3524.1,495.2
		L3365.3,219c-0.8,0.5-1.7,1-2.6,1.4l158.9,276.4C3522.4,496.2,3523.2,495.7,3524.1,495.2z"/>
	<path style="clip-path:url(#SVGID_00000116215546915649350900000000742060092478570930_);fill:#999999;" d="M3572.8,237.7
		c0.1-1,0.2-2,0.4-3l-198.1-31.4c-0.1,1-0.3,2-0.6,2.9L3572.8,237.7z"/>
	<path style="clip-path:url(#SVGID_00000116215546915649350900000000742060092478570930_);fill:#999999;" d="M3539.6,493.5l51-233.6
		c-1-0.2-2-0.4-2.9-0.7l-51,233.7C3537.7,493.1,3538.7,493.3,3539.6,493.5z"/>
	<path style="clip-path:url(#SVGID_00000116215546915649350900000000742060092478570930_);fill:#999999;" d="M3954.8,457
		c-0.9-0.5-1.7-1.1-2.4-1.8L3577,978.9c0.9,0.5,1.7,1.1,2.5,1.7L3954.8,457z"/>
	<path style="clip-path:url(#SVGID_00000116215546915649350900000000742060092478570930_);fill:#999999;" d="M3947.7,428.2
		l-334.6-179.9c-0.4,0.9-0.9,1.8-1.5,2.6l334.8,180C3946.7,430,3947.2,429.1,3947.7,428.2z"/>
	<path style="clip-path:url(#SVGID_00000116215546915649350900000000742060092478570930_);fill:#999999;" d="M4228.3,807.7
		l-642.2,182.4c0.3,0.9,0.6,1.9,0.8,2.9l642.3-182.4C4228.8,809.6,4228.5,808.7,4228.3,807.7z"/>
	<path style="clip-path:url(#SVGID_00000116215546915649350900000000742060092478570930_);fill:#999999;" d="M1966.9-18.9l-0.8,2.9
		l242,69.3c0.2-1,0.4-2,0.7-2.9L1966.9-18.9z"/>
	<path style="clip-path:url(#SVGID_00000116215546915649350900000000742060092478570930_);fill:#999999;" d="M2400,259.3
		L2243.2,72.7c-0.7,0.7-1.5,1.3-2.3,1.9l156.8,186.7C2398.4,260.5,2399.2,259.9,2400,259.3z"/>
	<path style="clip-path:url(#SVGID_00000116215546915649350900000000742060092478570930_);fill:#999999;" d="M2426.3,259.5
		l103.6-147.3c-0.9-0.5-1.7-1.1-2.5-1.7l-103.6,147.4C2424.7,258.3,2425.5,258.8,2426.3,259.5z"/>
	<path style="clip-path:url(#SVGID_00000116215546915649350900000000742060092478570930_);fill:#999999;" d="M2519.8,93.6
		c0-1,0.1-2,0.3-3l-269.9-32c-0.1,1-0.2,2-0.4,3L2519.8,93.6z"/>
	<path style="clip-path:url(#SVGID_00000116215546915649350900000000742060092478570930_);fill:#999999;" d="M1577.5-95.7
		L1840.2,137c0.6-0.8,1.3-1.5,2-2.2l-265.7-235.4l-1,1.1l1.5-0.2L1577.5-95.7z"/>
	<path style="clip-path:url(#SVGID_00000116215546915649350900000000742060092478570930_);fill:#999999;" d="M1870.8,166.1
		l97.3,98.1c0.6-0.8,1.3-1.6,2-2.3L1873,164C1872.3,164.7,1871.6,165.4,1870.8,166.1z"/>
	<path style="clip-path:url(#SVGID_00000116215546915649350900000000742060092478570930_);fill:#999999;" d="M2000.5,262.5
		l213.7-190.3c-0.7-0.7-1.4-1.4-2-2.2l-213.9,190.5C1999.1,261.1,1999.8,261.8,2000.5,262.5z"/>
	<path style="clip-path:url(#SVGID_00000116215546915649350900000000742060092478570930_);fill:#999999;" d="M2821.7-60.4
		l94.6,242.5c0.9-0.5,1.8-0.8,2.8-1.2l-95.2-244l-1.4,0.5l0.7,1.3L2821.7-60.4z"/>
	<path style="clip-path:url(#SVGID_00000116215546915649350900000000742060092478570930_);fill:#999999;" d="M2821.7-60.4l1.5-0.8
		l-0.7-1.3l-0.7-1.3L2558.9,82.6c0.5,0.8,1,1.7,1.4,2.6L2821.7-60.4z"/>
	<path style="clip-path:url(#SVGID_00000116215546915649350900000000742060092478570930_);fill:#999999;" d="M3204.9-123.1l-2.7,1.3
		l141,304.6c0.9-0.5,1.7-1,2.7-1.4L3204.9-123.1z"/>
	<path style="clip-path:url(#SVGID_00000116215546915649350900000000742060092478570930_);fill:#999999;" d="M3814.5-58.6l-0.5-3.7
		l1.5-0.2l-1.2-0.9L3605.2,221c0.9,0.5,1.7,1.1,2.4,1.8L3814.5-58.6z"/>
	<path style="clip-path:url(#SVGID_00000116215546915649350900000000742060092478570930_);fill:#999999;" d="M3831.8,208.5
		l-216.9,26.8c0.2,1,0.3,2,0.3,3l217-26.8C3832,210.5,3831.9,209.6,3831.8,208.5z"/>
	<path style="clip-path:url(#SVGID_00000116215546915649350900000000742060092478570930_);fill:#999999;" d="M3814.5-58.6l33.6,245
		c1-0.2,1.9-0.4,3-0.5L3817-62.7l-1.5,0.2l-1.5,0.2L3814.5-58.6z"/>
	<path style="clip-path:url(#SVGID_00000116215546915649350900000000742060092478570930_);fill:#999999;" d="M2391.8,1750h-405.4
		l-1.5,1.3l2.5,1.7h404.4c-0.1-0.7-0.1-1.3-0.1-2C2391.8,1750.7,2391.8,1750.3,2391.8,1750z"/>
	<path style="clip-path:url(#SVGID_00000116215546915649350900000000742060092478570930_);fill:#999999;" d="M1950.5,1626.8
		c-0.9,0.4-1.9,0.7-2.9,0.9l33.1,123.1l0,0l-0.6-2.7l2.2,1.5l0.9-0.8L1950.5,1626.8z"/>
	<path style="clip-path:url(#SVGID_00000116215546915649350900000000742060092478570930_);fill:#999999;" d="M1665.5,1258.5
		c-0.7,0.7-1.5,1.3-2.3,1.9l265.9,330.6c0.8-0.7,1.6-1.3,2.4-1.8L1665.5,1258.5z"/>
	<path style="clip-path:url(#SVGID_00000116215546915649350900000000742060092478570930_);fill:#999999;" d="M2433.8,1746.9
		c0.2,1,0.3,2,0.4,3l471.2-68.9c-0.2-1-0.4-1.9-0.5-3L2433.8,1746.9z"/>
	<path style="clip-path:url(#SVGID_00000116215546915649350900000000742060092478570930_);fill:#999999;" d="M2472.1,2061.6
		c0.1,0.8,0.1,1.6,0.1,2.4c0,0.2,0,0.4,0,0.6l526.8-34.2c-0.2-1-0.3-2-0.3-3L2472.1,2061.6z"/>
	<path style="clip-path:url(#SVGID_00000116215546915649350900000000742060092478570930_);fill:#999999;" d="M2413.5,1772.2
		l32.9,271c1-0.2,2-0.4,3-0.4l-32.9-270.9C2415.5,1772.1,2414.5,1772.2,2413.5,1772.2z"/>
	<path style="clip-path:url(#SVGID_00000116215546915649350900000000742060092478570930_);fill:#999999;" d="M2464.3,2080.5
		l198.1,199l2.1-2.1l-198-199C2465.8,2079.2,2465.1,2079.9,2464.3,2080.5z"/>
	<path style="clip-path:url(#SVGID_00000116215546915649350900000000742060092478570930_);fill:#999999;" d="M2429.8,2062.7
		l-351.7-5.4c0,0.6,0.1,1.1,0.1,1.7c0,0.4,0,0.9-0.1,1.3l351.7,5.4c0-0.6-0.1-1.1-0.1-1.7
		C2429.8,2063.6,2429.8,2063.1,2429.8,2062.7z"/>
	<path style="clip-path:url(#SVGID_00000116215546915649350900000000742060092478570930_);fill:#999999;" d="M1670.8,1956.3
		c-0.2,1-0.5,1.9-0.8,2.9l366.2,95.6c0.2-1,0.5-1.9,0.8-2.9L1670.8,1956.3z"/>
	<path style="clip-path:url(#SVGID_00000116215546915649350900000000742060092478570930_);fill:#999999;" d="M3023.3,2048
		c-1,0.2-2,0.3-3,0.3l30.3,471.8l3.2,2.8L3023.3,2048z"/>
	<path style="clip-path:url(#SVGID_00000116215546915649350900000000742060092478570930_);fill:#999999;" d="M3546.9,2005.9
		c-0.8,0.6-1.6,1.2-2.5,1.7l314.5,446.3l0.8-4.1L3546.9,2005.9z"/>
	<path style="clip-path:url(#SVGID_00000116215546915649350900000000742060092478570930_);fill:#999999;" d="M3092,2556.6l2.2,2
		l427.9-552c-0.8-0.6-1.6-1.2-2.3-1.9L3092,2556.6z"/>
	<path style="clip-path:url(#SVGID_00000116215546915649350900000000742060092478570930_);fill:#999999;" d="M3512.8,1989.5
		l-471.7,34.9c0.1,0.8,0.2,1.7,0.2,2.5c0,0.2,0,0.3,0,0.5l471.8-35C3512.9,1991.5,3512.8,1990.5,3512.8,1989.5z"/>
	<path style="clip-path:url(#SVGID_00000116215546915649350900000000742060092478570930_);fill:#999999;" d="M3332.8,1675h-385.6
		c0,0.3,0.1,0.7,0.1,1c0,0.7,0,1.3-0.1,2h385.7c-0.1-0.7-0.1-1.3-0.1-2C3332.8,1675.7,3332.8,1675.3,3332.8,1675z"/>
	<path style="clip-path:url(#SVGID_00000116215546915649350900000000742060092478570930_);fill:#999999;" d="M3338.3,1690.3
		L3034,2011.1c0.8,0.7,1.5,1.4,2.1,2.1l304.4-320.8C3339.7,1691.8,3339,1691,3338.3,1690.3z"/>
	<path style="clip-path:url(#SVGID_00000116215546915649350900000000742060092478570930_);fill:#999999;" d="M2929.5,1696.9
		l83.9,309.9c0.9-0.3,1.9-0.6,2.9-0.7l-83.9-309.8C2931.5,1696.6,2930.5,1696.8,2929.5,1696.9z"/>
	<path style="clip-path:url(#SVGID_00000116215546915649350900000000742060092478570930_);fill:#999999;" d="M2431.3,1761.7
		l568.7,258.2c0.3-0.9,0.7-1.9,1.2-2.8L2432.7,1759C2432.3,1759.9,2431.8,1760.8,2431.3,1761.7z"/>
	<path style="clip-path:url(#SVGID_00000116215546915649350900000000742060092478570930_);fill:#999999;" d="M3534,1659.2
		c-0.7,0-1.3,0-2-0.1v308.7c0.7-0.1,1.3-0.1,2-0.1c0.3,0,0.7,0,1,0.1v-308.6C3534.7,1659.2,3534.3,1659.2,3534,1659.2z"/>
	<path style="clip-path:url(#SVGID_00000116215546915649350900000000742060092478570930_);fill:#999999;" d="M3362.6,1695.4
		l158.9,276.4c0.8-0.6,1.7-1.1,2.5-1.6L3365.3,1694C3364.4,1694.5,3363.6,1695,3362.6,1695.4z"/>
	<path style="clip-path:url(#SVGID_00000116215546915649350900000000742060092478570930_);fill:#999999;" d="M3374.5,1670.5
		c0.3,1,0.5,1.9,0.6,2.9l138.6-29.3c-0.3-0.9-0.5-1.9-0.7-2.9L3374.5,1670.5z"/>
	<path style="clip-path:url(#SVGID_00000116215546915649350900000000742060092478570930_);fill:#999999;" d="M3550.6,1651.2
		l396.4,253.3c0.5-0.9,1-1.8,1.5-2.6l-396.2-253.2C3551.8,1649.6,3551.2,1650.4,3550.6,1651.2z"/>
	<path style="clip-path:url(#SVGID_00000116215546915649350900000000742060092478570930_);fill:#999999;" d="M1928.8,1622.7
		l-265.6,312.6c0.8,0.6,1.5,1.3,2.2,2l265.7-312.8C1930.3,1624,1929.5,1623.4,1928.8,1622.7z"/>
	<path style="clip-path:url(#SVGID_00000116215546915649350900000000742060092478570930_);fill:#999999;" d="M2208.2,1536.4
		l-245.1,63.9c0.3,0.9,0.6,1.9,0.7,2.9l245.2-64C2208.7,1538.3,2208.4,1537.3,2208.2,1536.4z"/>
	<path style="clip-path:url(#SVGID_00000116215546915649350900000000742060092478570930_);fill:#999999;" d="M2241.1,1549.4
		l156.6,186.8c0.7-0.7,1.4-1.4,2.2-2l-156.5-186.7C2242.7,1548.2,2242,1548.8,2241.1,1549.4z"/>
	<path style="clip-path:url(#SVGID_00000116215546915649350900000000742060092478570930_);fill:#999999;" d="M2527.5,1585.4
		l-103.6,147.4c0.9,0.5,1.7,1.1,2.5,1.7l103.6-147.3C2529.1,1586.6,2528.3,1586,2527.5,1585.4z"/>
	<path style="clip-path:url(#SVGID_00000116215546915649350900000000742060092478570930_);fill:#999999;" d="M2250.2,1533.6
		c-0.1,1-0.2,2-0.4,3l270,32c0-1,0.1-2,0.3-3L2250.2,1533.6z"/>
	<path style="clip-path:url(#SVGID_00000116215546915649350900000000742060092478570930_);fill:#999999;" d="M2214.2,1547.2
		c-0.7-0.7-1.4-1.4-2-2.2l-228.9,203.8l-0.9,0.8l1,0.6l1.6,1.1l1.5-1.3L2214.2,1547.2z"/>
	<path style="clip-path:url(#SVGID_00000116215546915649350900000000742060092478570930_);fill:#999999;" d="M1185.9,1917.6
		l442.8,34.7c0-0.1,0-0.2,0-0.3c0-0.9,0.1-1.8,0.2-2.7l-442.7-34.7C1186.2,1915.6,1186.1,1916.6,1185.9,1917.6z"/>
	<path style="clip-path:url(#SVGID_00000116215546915649350900000000742060092478570930_);fill:#999999;" d="M1980.8,1750.8
		L1980.8,1750.8l-313.1,189.5c0.6,0.8,1,1.7,1.5,2.6l312.3-189.1L1980.8,1750.8z"/>
	<path style="clip-path:url(#SVGID_00000116215546915649350900000000742060092478570930_);fill:#999999;" d="M2589.8,1274.7
		l321,386.5c0.7-0.7,1.5-1.4,2.3-2l-320.9-386.4C2591.4,1273.5,2590.6,1274.1,2589.8,1274.7z"/>
	<path style="clip-path:url(#SVGID_00000116215546915649350900000000742060092478570930_);fill:#999999;" d="M2541.6,1547.8
		c1,0,2,0.1,3,0.3l32-269.9c-1-0.1-2-0.2-3-0.4L2541.6,1547.8z"/>
	<path style="clip-path:url(#SVGID_00000116215546915649350900000000742060092478570930_);fill:#999999;" d="M3387.8,1345.8
		l-33.4,308.9c1,0,2,0.1,3,0.3l33.4-308.9C3389.8,1346.1,3388.8,1346,3387.8,1345.8z"/>
	<path style="clip-path:url(#SVGID_00000116215546915649350900000000742060092478570930_);fill:#999999;" d="M3794.9,1409.8
		c0.1-1,0.3-2,0.5-3l-382.5-78.5c-0.2,1-0.4,2-0.7,2.9L3794.9,1409.8z"/>
	<path style="clip-path:url(#SVGID_00000116215546915649350900000000742060092478570930_);fill:#999999;" d="M3551.5,1626l249-199.5
		c-0.7-0.7-1.3-1.5-1.9-2.3l-249,199.5C3550.3,1624.4,3550.9,1625.2,3551.5,1626z"/>
	<path style="clip-path:url(#SVGID_00000116215546915649350900000000742060092478570930_);fill:#999999;" d="M3554.6,1642.9
		l277.1,38.2c0-1,0.1-2,0.3-3l-277-38.2C3555.1,1641,3554.9,1642,3554.6,1642.9z"/>
	<path style="clip-path:url(#SVGID_00000116215546915649350900000000742060092478570930_);fill:#999999;" d="M3851,1660.8l-31.2-228
		c-1,0.2-2,0.3-3,0.3l31.3,228.1C3849.1,1661.1,3850,1660.9,3851,1660.8z"/>
	<path style="clip-path:url(#SVGID_00000116215546915649350900000000742060092478570930_);fill:#999999;" d="M4137.2,1247.1
		L3586,1004.2c-0.3,0.9-0.7,1.9-1.2,2.7l551.2,242.9C4136.4,1248.9,4136.8,1248,4137.2,1247.1z"/>
	<path style="clip-path:url(#SVGID_00000116215546915649350900000000742060092478570930_);fill:#999999;" d="M3803.2,1395.1
		c0.8-0.6,1.6-1.2,2.5-1.7l-244.9-375.8c-1.2-0.3-2.3-0.7-3.4-1.2l-0.6,0.4L3803.2,1395.1z"/>
	<path style="clip-path:url(#SVGID_00000116215546915649350900000000742060092478570930_);fill:#999999;" d="M3015,954.9
		l360.9,356.3c0.7-0.8,1.4-1.5,2.1-2.1l-360.9-356.3C3016.5,953.6,3015.8,954.3,3015,954.9z"/>
	<path style="clip-path:url(#SVGID_00000116215546915649350900000000742060092478570930_);fill:#999999;" d="M3374.2,1336.5
		L2942,1662.1c0.7,0.8,1.3,1.5,1.8,2.4l432.2-325.5C3375.3,1338.2,3374.7,1337.4,3374.2,1336.5z"/>
	<path style="clip-path:url(#SVGID_00000116215546915649350900000000742060092478570930_);fill:#999999;" d="M2595.8,1245.5
		L2985,952.9c-0.7-0.8-1.3-1.6-1.8-2.4L2594,1243.1C2594.7,1243.8,2595.3,1244.6,2595.8,1245.5z"/>
	<path style="clip-path:url(#SVGID_00000116215546915649350900000000742060092478570930_);fill:#999999;" d="M2284.1,936.4
		l-515.9-51.8c0,1-0.1,2-0.3,3l515.9,51.8C2283.8,938.4,2283.9,937.4,2284.1,936.4z"/>
	<path style="clip-path:url(#SVGID_00000116215546915649350900000000742060092478570930_);fill:#999999;" d="M2565.3,1240
		L2320,955.1c-0.7,0.7-1.5,1.3-2.3,1.9l245.4,284.9C2563.8,1241.2,2564.5,1240.6,2565.3,1240z"/>
	<path style="clip-path:url(#SVGID_00000116215546915649350900000000742060092478570930_);fill:#999999;" d="M4137.3,1267.2
		c-0.5-0.9-0.9-1.8-1.2-2.7l-301.5,137.4c0.5,0.9,0.9,1.8,1.2,2.7L4137.3,1267.2z"/>
	<path style="clip-path:url(#SVGID_00000116215546915649350900000000742060092478570930_);fill:#999999;" d="M3003.2,1352
		c0,0,0,0.1,0,0.1l367.7-24.2c-0.1-0.9-0.2-1.9-0.2-2.9c0,0,0-0.1,0-0.1l-367.7,24.2C3003.2,1350.1,3003.2,1351,3003.2,1352z"/>
	<path style="clip-path:url(#SVGID_00000116215546915649350900000000742060092478570930_);fill:#999999;" d="M2976.9,1372.6
		l-49.5,282.2c1,0.1,2,0.2,3,0.4l49.5-282.1C2978.8,1373,2977.8,1372.8,2976.9,1372.6z"/>
	<path style="clip-path:url(#SVGID_00000116215546915649350900000000742060092478570930_);fill:#999999;" d="M2556.8,1257
		c0-0.3,0-0.7,0.1-1l-491.6-12.9c0,0.3,0,0.6,0,0.9c0,0.7,0,1.4-0.1,2.1l491.7,12.9C2556.8,1258.3,2556.8,1257.7,2556.8,1257z"/>
	<path style="clip-path:url(#SVGID_00000116215546915649350900000000742060092478570930_);fill:#999999;" d="M2598.8,1261.5
		c-0.2,1-0.5,1.9-0.9,2.9l363.1,84.3c0.2-1,0.4-2,0.7-2.9L2598.8,1261.5z"/>
	<path style="clip-path:url(#SVGID_00000116215546915649350900000000742060092478570930_);fill:#999999;" d="M1663.1,460.3
		l184-291.5c-0.9-0.5-1.7-1-2.5-1.6l-183.9,291.4C1661.5,459.1,1662.3,459.7,1663.1,460.3z"/>
	<path style="clip-path:url(#SVGID_00000116215546915649350900000000742060092478570930_);fill:#999999;" d="M1574.5-95.7l1.5,11.5
		l0,0.1l0,0l70.2,540.2c1-0.2,2-0.3,3-0.3l-71.7-551.5l-0.5-4l-1.5,0.2l1.2,0.9L1574.5-95.7z"/>
	<path style="clip-path:url(#SVGID_00000116215546915649350900000000742060092478570930_);fill:#999999;" d="M1076.7,1105.3
		c0.6,0.8,1,1.7,1.5,2.6l377-230c-0.6-0.8-1.2-1.6-1.7-2.5L1076.7,1105.3z"/>
	<path style="clip-path:url(#SVGID_00000116215546915649350900000000742060092478570930_);fill:#999999;" d="M1037.8,1115.7
		l-697.6-9.4c0,0.2,0,0.5,0,0.7c0,0.8,0,1.5-0.1,2.3l697.7,9.4c0-0.6-0.1-1.1-0.1-1.7C1037.8,1116.6,1037.8,1116.1,1037.8,1115.7z"
		/>
	<path style="clip-path:url(#SVGID_00000116215546915649350900000000742060092478570930_);fill:#999999;" d="M106.6,785.8
		l-257-330.5c-0.8,0.6-1.6,1.2-2.4,1.8l257.1,330.7C105,787,105.8,786.4,106.6,785.8z"/>
	<path style="clip-path:url(#SVGID_00000116215546915649350900000000742060092478570930_);fill:#999999;" d="M308,1088.8
		L131.3,820.3c-0.8,0.6-1.7,1.1-2.6,1.6l176.8,268.7C306.3,1089.9,307.2,1089.4,308,1088.8z"/>
	<path style="clip-path:url(#SVGID_00000116215546915649350900000000742060092478570930_);fill:#999999;" d="M641.2,876.1
		c-0.7-0.7-1.3-1.5-1.9-2.4l-304,219.7c0.6,0.8,1.2,1.6,1.7,2.5L641.2,876.1z"/>
	<path style="clip-path:url(#SVGID_00000116215546915649350900000000742060092478570930_);fill:#999999;" d="M657,840.8
		c1,0,1.9,0.1,2.9,0.2l12.3-305.7c-0.1,0-0.1,0-0.2,0c-1,0-1.9-0.1-2.8-0.2l-12.3,305.7C656.9,840.8,657,840.8,657,840.8z"/>
	<path style="clip-path:url(#SVGID_00000116215546915649350900000000742060092478570930_);fill:#999999;" d="M654,525.3
		c-0.5-0.8-1-1.7-1.4-2.6L137.2,792c0.5,0.9,1,1.7,1.4,2.7L654,525.3z"/>
	<path style="clip-path:url(#SVGID_00000116215546915649350900000000742060092478570930_);fill:#999999;" d="M636,858.6l-495.9-54.3
		c-0.1,1-0.2,2-0.4,3l496,54.3C635.8,860.6,635.9,859.6,636,858.6z"/>
	<path style="clip-path:url(#SVGID_00000116215546915649350900000000742060092478570930_);fill:#999999;" d="M98.3,807.7
		l-642.2,182.4c0.3,0.9,0.6,1.9,0.8,2.9L99.2,810.6C98.8,809.6,98.5,808.7,98.3,807.7z"/>
	<path style="clip-path:url(#SVGID_00000116215546915649350900000000742060092478570930_);fill:#999999;" d="M1040.2,1107.1
		c0.5-0.9,1-1.7,1.6-2.5L675.6,872.2c-0.5,0.9-1,1.7-1.6,2.5L1040.2,1107.1z"/>
	<path style="clip-path:url(#SVGID_00000116215546915649350900000000742060092478570930_);fill:#999999;" d="M1304.4,783.4
		c-0.9-0.5-1.7-1.1-2.5-1.7l-231,317.7c0.8,0.6,1.6,1.2,2.4,1.9L1304.4,783.4z"/>
	<path style="clip-path:url(#SVGID_00000116215546915649350900000000742060092478570930_);fill:#999999;" d="M1453.3,855
		c0.5-0.9,1-1.7,1.6-2.5l-121.3-77.2c-0.5,0.9-1,1.7-1.6,2.5L1453.3,855z"/>
	<path style="clip-path:url(#SVGID_00000116215546915649350900000000742060092478570930_);fill:#999999;" d="M1482.8,846.7
		l160.4-349.6c-1-0.3-1.9-0.7-2.8-1.2l-160.3,349.4C1481,845.7,1481.9,846.2,1482.8,846.7z"/>
	<path style="clip-path:url(#SVGID_00000116215546915649350900000000742060092478570930_);fill:#999999;" d="M1332.5,752.9
		l303-260.5c-0.7-0.7-1.4-1.4-2-2.2l-302.8,260.3C1331.2,751.3,1331.9,752.1,1332.5,752.9z"/>
	<path style="clip-path:url(#SVGID_00000116215546915649350900000000742060092478570930_);fill:#999999;" d="M1144.4,444.2
		c-0.2-1-0.4-1.9-0.6-3l-451.1,68.5c0.2,1,0.3,2,0.4,3L1144.4,444.2z"/>
	<path style="clip-path:url(#SVGID_00000116215546915649350900000000742060092478570930_);fill:#999999;" d="M1307.7,745.1
		l-132.3-287.6c-0.9,0.5-1.8,0.9-2.7,1.3L1305,746.3C1305.9,745.8,1306.8,745.4,1307.7,745.1z"/>
	<path style="clip-path:url(#SVGID_00000116215546915649350900000000742060092478570930_);fill:#999999;" d="M1295.7,756.2
		L692.1,520.9c-0.3,1-0.7,1.9-1.2,2.8L1294.6,759C1294.9,758,1295.3,757.1,1295.7,756.2z"/>
	<path style="clip-path:url(#SVGID_00000116215546915649350900000000742060092478570930_);fill:#999999;" d="M1155.7,419.9
		L995.2,148.4c-0.8,0.6-1.7,1.1-2.6,1.5l160.4,271.5C1153.9,420.9,1154.8,420.4,1155.7,419.9z"/>
	<path style="clip-path:url(#SVGID_00000116215546915649350900000000742060092478570930_);fill:#999999;" d="M686.5,498.5
		l284.9-349.7c-0.8-0.6-1.6-1.2-2.4-1.8L684.2,496.6C685,497.2,685.7,497.8,686.5,498.5z"/>
	<path style="clip-path:url(#SVGID_00000116215546915649350900000000742060092478570930_);fill:#999999;" d="M963.4,122.7
		c0.4-0.9,0.9-1.8,1.4-2.7L789.2,28.1c-0.4,0.9-0.9,1.8-1.5,2.6L963.4,122.7z"/>
	<path style="clip-path:url(#SVGID_00000116215546915649350900000000742060092478570930_);fill:#999999;" d="M749.5,24.5
		c-0.3-1-0.5-1.9-0.6-2.9L362.7,89.3c0.2,1,0.4,2,0.5,3L749.5,24.5z"/>
	<path style="clip-path:url(#SVGID_00000116215546915649350900000000742060092478570930_);fill:#999999;" d="M659.5,496.8
		L355.7,110.2c-0.8,0.6-1.6,1.2-2.4,1.8l303.9,386.8C657.9,498.1,658.7,497.4,659.5,496.8z"/>
	<path style="clip-path:url(#SVGID_00000116215546915649350900000000742060092478570930_);fill:#999999;" d="M1556.4-76.9l3.4-4.4
		l-557.2,204.2c0.4,0.9,0.7,1.9,0.9,2.9L1556.4-76.9z"/>
	<path style="clip-path:url(#SVGID_00000116215546915649350900000000742060092478570930_);fill:#999999;" d="M1177.2,421.6
		c0.8,0.6,1.6,1.2,2.3,1.9l382.1-502.4l3.4-4.4l9.5-12.4l2.2-2.9l-1.2-0.9l-1.2-0.9l-14.5,19.1l-3.4,4.4L1177.2,421.6z"/>
	<path style="clip-path:url(#SVGID_00000116215546915649350900000000742060092478570930_);fill:#999999;" d="M198,349
		c-0.3-0.9-0.6-1.9-0.8-2.9l-340.9,86.6c0.3,0.9,0.5,1.9,0.7,2.9L198,349z"/>
	<path style="clip-path:url(#SVGID_00000116215546915649350900000000742060092478570930_);fill:#999999;" d="M217.2,320.8
		L182.4-94.9l-2.2-2.6l-1,0.7l35,417.9C215.2,320.9,216.2,320.8,217.2,320.8z"/>
	<path style="clip-path:url(#SVGID_00000116215546915649350900000000742060092478570930_);fill:#999999;" d="M180.2-97.5l2.2,2.6
		l144.4,174c0.7-0.7,1.5-1.4,2.3-2L181.7-100.5l-1.2,1l0.8,1.2L180.2-97.5z"/>
	<path style="clip-path:url(#SVGID_00000116215546915649350900000000742060092478570930_);fill:#999999;" d="M228.6,323.6l105-210.1
		c-0.9-0.4-1.8-0.9-2.7-1.4L225.9,322.3C226.9,322.7,227.8,323.1,228.6,323.6z"/>
	<path style="clip-path:url(#SVGID_00000116215546915649350900000000742060092478570930_);fill:#999999;" d="M179.2-96.8l1-0.7
		l1.1-0.8l-0.8-1.2l-0.8-1.2l-439.8,294.8c0.6,0.8,1.2,1.6,1.7,2.5L179.2-96.8z"/>
	<path style="clip-path:url(#SVGID_00000116215546915649350900000000742060092478570930_);fill:#999999;" d="M197.8,335.6
		l-454.1-123.8c-0.2,1-0.5,1.9-0.9,2.9l454.2,123.9C197.2,337.5,197.5,336.5,197.8,335.6z"/>
	<path style="clip-path:url(#SVGID_00000116215546915649350900000000742060092478570930_);fill:#999999;" d="M121.6,781.9
		c1,0.1,2,0.3,2.9,0.6L214.6,363c-1-0.2-2-0.4-2.9-0.7L121.6,781.9z"/>
	<path style="clip-path:url(#SVGID_00000116215546915649350900000000742060092478570930_);fill:#999999;" d="M1023-137.3l-3-0.4
		l-35,247.6c1,0.1,2,0.3,3,0.5L1023-137.3z"/>
	<path style="clip-path:url(#SVGID_00000116215546915649350900000000742060092478570930_);fill:#999999;" d="M680.8-138.2l-2.6,1.5
		L757.6,1.8c0.8-0.6,1.7-1.1,2.5-1.6L680.8-138.2z"/>
	<path style="clip-path:url(#SVGID_00000116215546915649350900000000742060092478570930_);fill:#999999;" d="M1651,1264.2
		c-0.3,0-0.7,0-1-0.1l-0.9,666.6c0.3,0,0.6,0,1,0c0.7,0,1.4,0,2,0.1l0.9-666.7C1652.3,1264.2,1651.7,1264.2,1651,1264.2z"/>
	<path style="clip-path:url(#SVGID_00000116215546915649350900000000742060092478570930_);fill:#999999;" d="M-150.3,1930.3
		c-0.8,0.6-1.6,1.2-2.4,1.8l268.9,345.9l1-0.5l0.5-2.4L-150.3,1930.3z"/>
	<path style="clip-path:url(#SVGID_00000116215546915649350900000000742060092478570930_);fill:#999999;" d="M694.1,2239.9l2.8,1.2
		l66-157.1c-0.9-0.3-1.9-0.7-2.8-1.2L694.1,2239.9z"/>
	<path style="clip-path:url(#SVGID_00000116215546915649350900000000742060092478570930_);fill:#999999;" d="M120.5,2276.3l-0.5,2.6
		l-1.5-0.3l0.6,1.4l-0.1,0l1.5-0.5l629.9-207.1c-0.4-0.9-0.7-1.9-1-2.8L120.5,2276.3z"/>
	<path style="clip-path:url(#SVGID_00000116215546915649350900000000742060092478570930_);fill:#999999;" d="M119.1,2279.9l-0.6-1.4
		l-1.5-0.3l0.2-0.7l-1,0.5l-383.6,173L-167,1935c-1-0.1-2-0.3-2.9-0.6l-100.4,515.4l-0.8,4.1l-0.4,2.2l389.3-175.6L119.1,2279.9
		L119.1,2279.9z"/>
	<path style="clip-path:url(#SVGID_00000116215546915649350900000000742060092478570930_);fill:#999999;" d="M1471.1,2339.9l2.7,1.3
		l169.3-369c-1-0.3-1.9-0.7-2.8-1.2L1471.1,2339.9z"/>
	<path style="clip-path:url(#SVGID_00000116215546915649350900000000742060092478570930_);fill:#999999;" d="M1633.4,1965.2
		L1316,2238.1l0.8,1.8l-1.4,0.6l1,1.1l319-274.2C1634.7,1966.7,1634,1966,1633.4,1965.2z"/>
	<path style="clip-path:url(#SVGID_00000116215546915649350900000000742060092478570930_);fill:#999999;" d="M1144.9,1920.7
		l-355.5,134.6c0.4,0.9,0.7,1.9,1,2.8l355.6-134.7C1145.6,1922.6,1145.2,1921.7,1144.9,1920.7z"/>
	<path style="clip-path:url(#SVGID_00000116215546915649350900000000742060092478570930_);fill:#999999;" d="M1316,2238.1
		l-140.6-305.6c-0.9,0.5-1.8,0.9-2.7,1.3l140,304.2l3.3,1l-0.5,1.4l1.4-0.6L1316,2238.1z"/>
	<path style="clip-path:url(#SVGID_00000116215546915649350900000000742060092478570930_);fill:#999999;" d="M1315.5,2240.5l0.5-1.4
		l-3.3-1l-522.3-168.3c-0.3,1-0.6,1.9-1,2.8l525.6,169.4L1315.5,2240.5z"/>
	<path style="clip-path:url(#SVGID_00000116215546915649350900000000742060092478570930_);fill:#999999;" d="M781.5,2081.8
		c-0.8,0.5-1.7,1-2.6,1.4l192,324.5l1.9-2.6L781.5,2081.8z"/>
	<path style="clip-path:url(#SVGID_00000116215546915649350900000000742060092478570930_);fill:#999999;" d="M995.2,1623.4
		c-0.8,0.6-1.7,1.1-2.6,1.5l160.4,271.5c0.8-0.6,1.7-1,2.6-1.5L995.2,1623.4z"/>
	<path style="clip-path:url(#SVGID_00000116215546915649350900000000742060092478570930_);fill:#999999;" d="M973.3,1624.9
		l-195.9,419.2c0.9,0.4,1.9,0.7,2.7,1.2L976,1626C975.1,1625.7,974.1,1625.3,973.3,1624.9z"/>
	<path style="clip-path:url(#SVGID_00000116215546915649350900000000742060092478570930_);fill:#999999;" d="M679.1,1364.5
		c-0.6,0.8-1.2,1.6-1.9,2.3l288.2,227.3c0.6-0.8,1.2-1.6,1.9-2.3L679.1,1364.5z"/>
	<path style="clip-path:url(#SVGID_00000116215546915649350900000000742060092478570930_);fill:#999999;" d="M358.8,1556
		c0.6,0.8,1.2,1.6,1.7,2.5l285-193.2c-0.6-0.8-1.2-1.6-1.7-2.5L358.8,1556z"/>
	<path style="clip-path:url(#SVGID_00000116215546915649350900000000742060092478570930_);fill:#999999;" d="M354.1,1586.4
		l400.4,463.1c0.7-0.7,1.4-1.4,2.2-2l-400.3-462.9C355.7,1585.2,355,1585.8,354.1,1586.4z"/>
	<path style="clip-path:url(#SVGID_00000116215546915649350900000000742060092478570930_);fill:#999999;" d="M1640.1,1261.7
		l-3.9,5.4l7.9-4.1c-1.2-0.4-2.4-0.9-3.5-1.6L1640.1,1261.7z"/>
	<path style="clip-path:url(#SVGID_00000116215546915649350900000000742060092478570930_);fill:#999999;" d="M1634.2,1264.9
		l-632.8,330.6c0.5,0.9,0.9,1.8,1.3,2.7l627.5-327.8L1634.2,1264.9z"/>
	<path style="clip-path:url(#SVGID_00000116215546915649350900000000742060092478570930_);fill:#999999;" d="M1640.1,1261.7l0.3-0.4
		c-0.9-0.5-1.7-1.1-2.5-1.7l-3.7,5.2l-3.9,5.4l-453.4,626c0.8,0.6,1.6,1.2,2.4,1.9l457-631L1640.1,1261.7z"/>
	<path style="clip-path:url(#SVGID_00000116215546915649350900000000742060092478570930_);fill:#999999;" d="M197.2,1821.1
		l-340.9,86.6c0.3,0.9,0.5,1.9,0.7,2.9l341-86.6C197.6,1823.1,197.4,1822.1,197.2,1821.1z"/>
	<path style="clip-path:url(#SVGID_00000116215546915649350900000000742060092478570930_);fill:#999999;" d="M30.8,1277.7l178.3,520
		c0.9-0.4,1.8-0.8,2.8-1.1L33.7,1276.8C32.8,1277.1,31.8,1277.4,30.8,1277.7z"/>
	<path style="clip-path:url(#SVGID_00000116215546915649350900000000742060092478570930_);fill:#999999;" d="M39.5,1273.4
		l285.9,282.3c0.6-0.8,1.3-1.5,2-2.2L41.6,1271.3C41,1272.1,40.3,1272.8,39.5,1273.4z"/>
	<path style="clip-path:url(#SVGID_00000116215546915649350900000000742060092478570930_);fill:#999999;" d="M225.9,1797.3
		c0.9,0.4,1.8,0.8,2.7,1.3l105-210.1c-0.9-0.4-1.8-0.9-2.7-1.4L225.9,1797.3z"/>
	<path style="clip-path:url(#SVGID_00000116215546915649350900000000742060092478570930_);fill:#999999;" d="M-266,1663.8
		c0.9,0.5,1.7,1.1,2.5,1.7L14.8,1275c-0.9-0.5-1.7-1.1-2.4-1.7L-266,1663.8z"/>
	<path style="clip-path:url(#SVGID_00000116215546915649350900000000742060092478570930_);fill:#999999;" d="M-257.2,1689.6
		l454.2,123.9c0.2-1,0.4-2,0.7-2.9l-454.1-123.8C-256.5,1687.7-256.8,1688.7-257.2,1689.6z"/>
	<path style="clip-path:url(#SVGID_00000116215546915649350900000000742060092478570930_);fill:#999999;" d="M211.7,1837.3
		l-94,437.7l-0.5,2.4l-0.2,0.7l1.5,0.3l1.5,0.3l0.5-2.6l94.1-438.3C213.6,1837.8,212.7,1837.6,211.7,1837.3z"/>
	<path style="clip-path:url(#SVGID_00000116215546915649350900000000742060092478570930_);fill:#999999;" d="M335.4,1120.5
		l308.5,220.4c0.5-0.9,1.1-1.7,1.7-2.5l-308.5-220.4C336.6,1118.9,336,1119.8,335.4,1120.5z"/>
	<path style="clip-path:url(#SVGID_00000116215546915649350900000000742060092478570930_);fill:#999999;" d="M44.2,1246
		c0.5,0.9,1,1.7,1.4,2.7L300.8,1118c-0.5-0.9-1-1.7-1.4-2.7L44.2,1246z"/>
	<path style="clip-path:url(#SVGID_00000116215546915649350900000000742060092478570930_);fill:#999999;" d="M7.2,1247.1
		L-544,1004.2c-0.3,0.9-0.7,1.9-1.2,2.7L6,1249.8C6.4,1248.9,6.8,1248,7.2,1247.1z"/>
	<path style="clip-path:url(#SVGID_00000116215546915649350900000000742060092478570930_);fill:#999999;" d="M1048.9,1098.3
		L684.2,531.4c-0.8,0.6-1.7,1.1-2.6,1.5l364.8,567C1047.2,1099.3,1048,1098.8,1048.9,1098.3z"/>
	<path style="clip-path:url(#SVGID_00000116215546915649350900000000742060092478570930_);fill:#999999;" d="M1054.8,1137.8l-70,447
		c1,0.1,2,0.2,3,0.5l70-447.1C1056.8,1138.1,1055.8,1138,1054.8,1137.8z"/>
	<path style="clip-path:url(#SVGID_00000116215546915649350900000000742060092478570930_);fill:#999999;" d="M1040,1126.5
		l-360.6,213.4c0.6,0.8,1.1,1.7,1.5,2.6l360.6-213.4C1041,1128.3,1040.5,1127.4,1040,1126.5z"/>
	<path style="clip-path:url(#SVGID_00000116215546915649350900000000742060092478570930_);fill:#999999;" d="M7.3,1267.2
		c-0.5-0.9-0.9-1.8-1.2-2.7l-301.5,137.4c0.5,0.9,0.9,1.8,1.2,2.7L7.3,1267.2z"/>
	<path style="clip-path:url(#SVGID_00000116215546915649350900000000742060092478570930_);fill:#999999;" d="M46.7,1261.6
		l594.1,88.7c0.1-1,0.2-2,0.4-3l-594.1-88.7C47.1,1259.7,46.9,1260.6,46.7,1261.6z"/>
	<path style="clip-path:url(#SVGID_00000116215546915649350900000000742060092478570930_);fill:#999999;" d="M2102.5,2251.4l2.9-0.7
		l-42-171.4c-0.9,0.3-1.9,0.5-2.9,0.7L2102.5,2251.4z"/>
	<path style="clip-path:url(#SVGID_00000116215546915649350900000000742060092478570930_);fill:#999999;" d="M1984.9,1751.3
		l-1.6-1.1l-1-0.6l-2.2-1.5l0.6,2.7l0.7,3.1l69,284.9c0.9-0.3,1.9-0.5,2.9-0.7l-68.6-283.2l447.4,299.2c0.5-0.9,1-1.7,1.6-2.5
		L1987.4,1753L1984.9,1751.3z"/>
	<path style="clip-path:url(#SVGID_00000116215546915649350900000000742060092478570930_);fill:#999999;" d="M2054.2,1262.6
		l162.1,252.4c0.8-0.6,1.6-1.2,2.5-1.6L2056.7,1261C2055.9,1261.6,2055.1,1262.2,2054.2,1262.6z"/>
	<path style="clip-path:url(#SVGID_00000116215546915649350900000000742060092478570930_);fill:#999999;" d="M1079.5,1122.8
		l-0.6,2.9l551,115.1c0.1-1,0.3-2,0.5-3L1079.5,1122.8z"/>
	<path style="clip-path:url(#SVGID_00000116215546915649350900000000742060092478570930_);fill:#999999;" d="M2022.8,1244
		c0-0.5,0-1,0.1-1.5h-350.6c0,0.2,0,0.3,0,0.5c0,0.8-0.1,1.7-0.2,2.5h350.7C2022.8,1245,2022.8,1244.5,2022.8,1244z"/>
	<path style="clip-path:url(#SVGID_00000116215546915649350900000000742060092478570930_);fill:#999999;" d="M1482.4,883.5
		c-0.9,0.5-1.8,0.9-2.7,1.3l161.2,339.5c0.9-0.5,1.8-0.9,2.7-1.2L1482.4,883.5z"/>
	<path style="clip-path:url(#SVGID_00000116215546915649350900000000742060092478570930_);fill:#999999;" d="M1493,868l232.7,16.1
		c0,0,0,0,0,0c0-1,0.1-2,0.2-3L1493.2,865c0,0,0,0,0,0C1493.2,866,1493.2,867,1493,868z"/>
	<path style="clip-path:url(#SVGID_00000116215546915649350900000000742060092478570930_);fill:#999999;" d="M2031.7,1226.7
		l-270.1-327.3c-0.7,0.7-1.5,1.3-2.3,1.9l270.1,327.3C2030.1,1227.9,2030.9,1227.3,2031.7,1226.7z"/>
	<path style="clip-path:url(#SVGID_00000116215546915649350900000000742060092478570930_);fill:#999999;" d="M2644.9,812.2
		c-0.4-0.9-0.8-1.8-1.1-2.8l-319.2,122.2c0.4,0.9,0.7,1.9,1,2.8L2644.9,812.2z"/>
	<path style="clip-path:url(#SVGID_00000116215546915649350900000000742060092478570930_);fill:#999999;" d="M2292.9,957.4
		c-0.8-0.6-1.6-1.2-2.3-1.9L2056.7,1227c0.8,0.6,1.6,1.2,2.3,1.9L2292.9,957.4z"/>
	<path style="clip-path:url(#SVGID_00000116215546915649350900000000742060092478570930_);fill:#999999;" d="M2036.9,1264
		l-89.3,322.3c1,0.2,2,0.5,2.9,0.9l89.4-322.3C2038.8,1264.6,2037.8,1264.3,2036.9,1264z"/>
	<path style="clip-path:url(#SVGID_00000116215546915649350900000000742060092478570930_);fill:#999999;" d="M1946.2,565.4
		L1670.6,482c-0.2,1-0.5,1.9-0.9,2.9l275.6,83.4C1945.5,567.3,1945.8,566.4,1946.2,565.4z"/>
	<path style="clip-path:url(#SVGID_00000116215546915649350900000000742060092478570930_);fill:#999999;" d="M1628.8,477
		c0-0.9,0.1-1.8,0.2-2.7l-442.7-34.7c0,1-0.1,2-0.3,3l442.8,34.7C1628.8,477.2,1628.8,477.1,1628.8,477z"/>
	<path style="clip-path:url(#SVGID_00000116215546915649350900000000742060092478570930_);fill:#999999;" d="M2649.6,787.4
		l-183.1-183.9c-0.7,0.7-1.4,1.4-2.2,2.1l183.2,184.1C2648.2,788.8,2648.9,788.1,2649.6,787.4z"/>
	<path style="clip-path:url(#SVGID_00000116215546915649350900000000742060092478570930_);fill:#999999;" d="M2432.3,599.1
		c-0.5-0.9-0.9-1.8-1.2-2.7l-164.3,71.8c0.5,0.9,0.9,1.8,1.2,2.8L2432.3,599.1z"/>
	<path style="clip-path:url(#SVGID_00000116215546915649350900000000742060092478570930_);fill:#999999;" d="M2227.6,672
		c0.3-1,0.6-1.9,1.1-2.8L1986.4,579c-0.3,1-0.6,1.9-1.1,2.8L2227.6,672z"/>
	<path style="clip-path:url(#SVGID_00000116215546915649350900000000742060092478570930_);fill:#999999;" d="M2302,919l-48-220.6
		c-1,0.3-1.9,0.5-2.9,0.6l48,220.6C2300,919.3,2301,919.1,2302,919z"/>
	<path style="clip-path:url(#SVGID_00000116215546915649350900000000742060092478570930_);fill:#999999;" d="M1955,591.2
		c-0.9-0.5-1.7-1.1-2.5-1.7L1758,865.8c0.9,0.5,1.7,1.1,2.5,1.7L1955,591.2z"/>
	<path style="clip-path:url(#SVGID_00000116215546915649350900000000742060092478570930_);fill:#8B1725;" d="M3545,993.9
		c-0.1,1-0.2,2-0.2,3c0,0,0,0.1,0,0.1c0,8.6,5.2,16.1,12.6,19.4c1.1,0.5,2.3,0.9,3.4,1.2c1.7,0.4,3.4,0.7,5.2,0.7
		c8.1,0,15.2-4.6,18.8-11.3c0.5-0.9,0.9-1.8,1.2-2.7c0.8-2.2,1.3-4.6,1.3-7.2c0-1.4-0.1-2.7-0.4-4c-0.2-1-0.5-2-0.8-2.9
		c-1.3-3.8-3.6-7-6.6-9.5c-0.8-0.6-1.6-1.2-2.5-1.7c-3.2-2-7-3.1-11-3.1c-0.1,0-0.3,0-0.4,0c-1,0-2,0.1-3,0.3
		C3553.5,977.5,3546.4,984.8,3545,993.9z M3582.2,997c0,9-7.3,16.2-16.2,16.2s-16.2-7.3-16.2-16.2s7.3-16.2,16.2-16.2
		S3582.2,988,3582.2,997z"/>
	<path style="clip-path:url(#SVGID_00000116215546915649350900000000742060092478570930_);fill:#8B1725;" d="M2998.8,552
		c0,0.1,0,0.3,0,0.4c0,1,0.1,2,0.3,3c1.5,9.4,9.3,16.8,18.9,17.7c0.7,0.1,1.4,0.1,2.1,0.1c0.3,0,0.6,0,0.9,0
		c11.1-0.5,20-9.5,20.3-20.7c0-0.2,0-0.3,0-0.5c0-0.9-0.1-1.7-0.2-2.5c-0.5-4.3-2.3-8.2-5-11.3c-0.7-0.8-1.4-1.5-2.1-2.1
		c-3.7-3.3-8.6-5.3-14-5.3c-1.3,0-2.5,0.1-3.7,0.3c-1,0.2-2,0.4-2.9,0.7c-5.2,1.7-9.6,5.5-12.1,10.3c-0.5,0.9-0.9,1.8-1.2,2.8
		C2999.2,547.1,2998.8,549.5,2998.8,552z M3036.2,552c0,9-7.3,16.2-16.2,16.2s-16.2-7.3-16.2-16.2c0-9,7.3-16.2,16.2-16.2
		S3036.2,543,3036.2,552z"/>
	<path style="clip-path:url(#SVGID_00000116215546915649350900000000742060092478570930_);fill:#8B1725;" d="M3516.6,526.1
		c0.6,0.8,1.2,1.6,1.9,2.3c3.7,4,9,6.6,14.9,6.8c0.2,0,0.4,0,0.6,0c0.8,0,1.6-0.1,2.4-0.1c10.6-1.2,18.9-10.2,18.9-21.1
		c0-9.8-6.6-18-15.6-20.5c-1-0.3-1.9-0.5-2.9-0.6c-0.9-0.1-1.8-0.2-2.7-0.2c-3.6,0-6.9,0.9-9.9,2.4c-0.9,0.5-1.7,1-2.5,1.6
		c-5.3,3.9-8.8,10.1-8.8,17.2c0,0.2,0,0.4,0,0.5c0,1,0.1,2,0.3,3C3513.6,520.7,3514.8,523.6,3516.6,526.1z M3517.8,514
		c0-9,7.3-16.2,16.2-16.2s16.2,7.3,16.2,16.2c0,9-7.3,16.2-16.2,16.2S3517.8,523,3517.8,514z"/>
	<path style="clip-path:url(#SVGID_00000116215546915649350900000000742060092478570930_);fill:#8B1725;" d="M2979.8,939
		c0,4.2,1.3,8.2,3.4,11.5c0.5,0.8,1.2,1.6,1.8,2.4c3.9,4.5,9.6,7.3,16,7.3c5.4,0,10.3-2,14-5.3c0.8-0.7,1.5-1.4,2.1-2.1
		c2.3-2.7,4-6,4.7-9.6c0.2-1,0.3-2,0.4-3c0-0.4,0.1-0.8,0.1-1.2c0-4.4-1.4-8.6-3.7-12c-0.6-0.8-1.2-1.6-1.9-2.3
		c-3.4-3.8-8.2-6.3-13.5-6.8c-0.7-0.1-1.4-0.1-2.1-0.1c-0.3,0-0.6,0-0.9,0c-8.2,0.3-15.3,5.4-18.5,12.5c-0.4,0.9-0.8,1.8-1,2.8
		C2980.1,935,2979.8,936.9,2979.8,939z M3001,955.2c-9,0-16.2-7.3-16.2-16.2s7.3-16.2,16.2-16.2s16.2,7.3,16.2,16.2
		S3010,955.2,3001,955.2z"/>
	<path style="clip-path:url(#SVGID_00000116215546915649350900000000742060092478570930_);fill:#8B1725;" d="M2664,824.2
		c8.1,0,15.2-4.6,18.8-11.3c0.5-0.9,0.9-1.8,1.2-2.8c0.8-2.2,1.3-4.6,1.3-7.1c0-11.7-9.5-21.2-21.2-21.2c-5.6,0-10.6,2.2-14.4,5.7
		c-0.7,0.7-1.4,1.4-2.1,2.2c-3,3.7-4.8,8.3-4.8,13.4c0,2.2,0.4,4.4,1,6.4c0.3,1,0.7,1.9,1.1,2.8
		C2648.3,819.3,2655.6,824.2,2664,824.2z M2647.8,803c0-9,7.3-16.2,16.2-16.2s16.2,7.3,16.2,16.2s-7.3,16.2-16.2,16.2
		S2647.8,812,2647.8,803z"/>
	<path style="clip-path:url(#SVGID_00000116215546915649350900000000742060092478570930_);fill:#8B1725;" d="M2022.8,1245.5
		c0.6,8.6,6.3,15.7,14,18.5c1,0.3,1.9,0.6,2.9,0.8c1.4,0.3,2.8,0.4,4.2,0.4c3.7,0,7.2-0.9,10.2-2.6c0.9-0.5,1.7-1,2.5-1.6
		c4.7-3.5,7.9-8.8,8.4-14.9c0.1-0.7,0.1-1.4,0.1-2.1c0-0.3,0-0.6,0-0.9c-0.2-5.5-2.6-10.5-6.2-14.1c-0.7-0.7-1.5-1.3-2.3-1.9
		c-3.5-2.6-7.9-4.2-12.7-4.2c-4.6,0-8.8,1.5-12.3,4c-0.8,0.6-1.6,1.2-2.3,1.9c-3.7,3.5-6.2,8.4-6.5,13.9c0,0.5-0.1,1-0.1,1.5
		S2022.8,1245,2022.8,1245.5z M2044,1227.8c9,0,16.2,7.3,16.2,16.2s-7.3,16.2-16.2,16.2s-16.2-7.3-16.2-16.2
		S2035,1227.8,2044,1227.8z"/>
	<path style="clip-path:url(#SVGID_00000116215546915649350900000000742060092478570930_);fill:#8B1725;" d="M1964.2,1607
		c0-1.3-0.1-2.6-0.4-3.8c-0.2-1-0.4-2-0.7-2.9c-2-6.1-6.7-10.9-12.7-13.2c-0.9-0.4-1.9-0.7-2.9-0.9c-1.5-0.3-3-0.5-4.5-0.5
		c-4.2,0-8.2,1.3-11.5,3.4c-0.8,0.5-1.6,1.2-2.4,1.8c-4.5,3.9-7.3,9.6-7.3,16c0,6.2,2.7,11.8,7,15.7c0.7,0.7,1.5,1.3,2.3,1.9
		c3.4,2.3,7.5,3.7,11.9,3.7c1.6,0,3.2-0.2,4.7-0.5c1-0.2,1.9-0.5,2.9-0.9C1958.5,1623.8,1964.2,1616.1,1964.2,1607z M1926.8,1607
		c0-9,7.3-16.2,16.2-16.2s16.2,7.3,16.2,16.2s-7.3,16.2-16.2,16.2S1926.8,1616,1926.8,1607z"/>
	<path style="clip-path:url(#SVGID_00000116215546915649350900000000742060092478570930_);fill:#8B1725;" d="M2078.2,2057.3
		c-0.9-10.9-10-19.6-21.2-19.6c-1.2,0-2.4,0.1-3.5,0.3c-1,0.2-2,0.4-2.9,0.7c-6.3,2-11.3,6.9-13.5,13.1c-0.3,0.9-0.6,1.9-0.8,2.9
		c-0.3,1.4-0.4,2.8-0.4,4.3c0,11.7,9.5,21.2,21.2,21.2c1.2,0,2.4-0.1,3.6-0.3c1-0.2,2-0.4,2.9-0.7c8.1-2.6,14.1-10,14.7-18.9
		c0-0.4,0.1-0.9,0.1-1.3C2078.2,2058.4,2078.2,2057.9,2078.2,2057.3z M2057,2042.8c9,0,16.2,7.3,16.2,16.2s-7.3,16.2-16.2,16.2
		s-16.2-7.3-16.2-16.2S2048,2042.8,2057,2042.8z"/>
	<path style="clip-path:url(#SVGID_00000116215546915649350900000000742060092478570930_);fill:#8B1725;" d="M2451,610.2
		c5,0,9.7-1.8,13.3-4.7c0.8-0.6,1.5-1.3,2.2-2.1c3.4-3.7,5.6-8.5,5.7-13.9c0-0.2,0-0.4,0-0.6c0-0.8-0.1-1.6-0.1-2.4
		c-1.2-10.6-10.2-18.8-21.1-18.8c-0.5,0-1.1,0-1.6,0.1c-1,0.1-2,0.2-3,0.4c-5.1,1.1-9.6,4.1-12.6,8.3c-0.6,0.8-1.1,1.7-1.6,2.5
		c-1.6,3-2.5,6.3-2.5,9.9c0,2.6,0.5,5.1,1.3,7.3c0.3,0.9,0.7,1.9,1.2,2.7C2435.9,605.7,2442.9,610.2,2451,610.2z M2434.8,589
		c0-9,7.3-16.2,16.2-16.2s16.2,7.3,16.2,16.2s-7.3,16.2-16.2,16.2S2434.8,598,2434.8,589z"/>
	<path style="clip-path:url(#SVGID_00000116215546915649350900000000742060092478570930_);fill:#8B1725;" d="M1944.8,573
		c0,6.6,3.1,12.6,7.8,16.5c0.8,0.6,1.6,1.2,2.5,1.7c3.2,1.9,6.9,3.1,11,3.1c8.6,0,16-5.1,19.3-12.5c0.4-0.9,0.8-1.8,1.1-2.8
		c0.6-1.9,0.9-3.9,0.9-6c0-10.8-8.1-19.7-18.6-21.1c-0.9-0.1-1.8-0.2-2.7-0.2c-0.1,0-0.2,0-0.3,0c-8.9,0.1-16.5,5.8-19.5,13.7
		c-0.4,0.9-0.7,1.9-0.9,2.9C1944.9,569.8,1944.8,571.4,1944.8,573z M1966,589.2c-9,0-16.2-7.3-16.2-16.2c0-9,7.3-16.2,16.2-16.2
		s16.2,7.3,16.2,16.2C1982.2,582,1975,589.2,1966,589.2z"/>
	<path style="clip-path:url(#SVGID_00000116215546915649350900000000742060092478570930_);fill:#8B1725;" d="M2226.8,678
		c0,11.7,9.5,21.2,21.2,21.2c1,0,2-0.1,3-0.2c1-0.1,2-0.3,2.9-0.6c8.8-2.6,15.3-10.7,15.3-20.4c0-2.5-0.5-4.9-1.2-7.1
		c-0.3-0.9-0.7-1.9-1.2-2.8c-3.6-6.8-10.6-11.4-18.8-11.4c-8.6,0-16,5.1-19.3,12.5c-0.4,0.9-0.8,1.8-1.1,2.8
		C2227.1,673.9,2226.8,675.9,2226.8,678z M2248,661.8c9,0,16.2,7.3,16.2,16.2s-7.3,16.2-16.2,16.2s-16.2-7.3-16.2-16.2
		S2239,661.8,2248,661.8z"/>
	<path style="clip-path:url(#SVGID_00000116215546915649350900000000742060092478570930_);fill:#8B1725;" d="M2283.8,940
		c0,6.1,2.6,11.7,6.8,15.5c0.7,0.7,1.5,1.3,2.3,1.9c3.4,2.4,7.6,3.8,12.1,3.8c4.8,0,9.1-1.6,12.7-4.2c0.8-0.6,1.6-1.2,2.3-1.9
		c3.9-3.9,6.3-9.2,6.3-15.1c0-1.9-0.3-3.8-0.8-5.5c-0.3-1-0.6-1.9-1-2.8c-3.3-7.6-10.8-12.9-19.5-12.9c-1,0-2,0.1-3,0.2
		c-1,0.1-2,0.3-2.9,0.6c-7.7,2.3-13.6,8.8-15,16.8c-0.2,1-0.3,2-0.3,3C2283.8,939.6,2283.8,939.8,2283.8,940z M2321.2,940
		c0,9-7.3,16.2-16.2,16.2s-16.2-7.3-16.2-16.2s7.3-16.2,16.2-16.2S2321.2,931,2321.2,940z"/>
	<path style="clip-path:url(#SVGID_00000116215546915649350900000000742060092478570930_);fill:#8B1725;" d="M1725.8,884
		c0,11.7,9.5,21.2,21.2,21.2c4.6,0,8.8-1.5,12.3-4c0.8-0.6,1.6-1.2,2.3-1.9c3.2-3.1,5.5-7.2,6.3-11.8c0.2-1,0.3-2,0.3-3
		c0-0.2,0-0.4,0-0.6c0-6.6-3.1-12.6-7.8-16.5c-0.8-0.6-1.6-1.2-2.5-1.7c-3.2-1.9-6.9-3.1-11-3.1c-10.7,0-19.6,8-21,18.3
		C1725.8,882,1725.8,883,1725.8,884C1725.8,884,1725.8,884,1725.8,884z M1747,867.8c9,0,16.2,7.3,16.2,16.2s-7.3,16.2-16.2,16.2
		s-16.2-7.3-16.2-16.2S1738,867.8,1747,867.8z"/>
	<path style="clip-path:url(#SVGID_00000116215546915649350900000000742060092478570930_);fill:#8B1725;" d="M2431.3,286.7
		c0.5-0.9,1-1.8,1.3-2.7c1-2.5,1.6-5.2,1.6-8c0-0.4,0-0.8-0.1-1.2c-0.1-1-0.2-2-0.4-3c-1-5-3.7-9.3-7.5-12.4
		c-0.8-0.6-1.6-1.2-2.5-1.7c-3.2-1.9-6.9-3-10.8-3c-4.9,0-9.4,1.7-13,4.5c-0.8,0.6-1.5,1.3-2.2,2c-3.5,3.6-5.7,8.4-5.9,13.7
		c0,0.3-0.1,0.7-0.1,1c0,0.7,0,1.3,0.1,2c1,10.8,10.1,19.2,21.1,19.2c0.2,0,0.3,0,0.5,0c1,0,2-0.1,3-0.3
		C2422.8,295.9,2428.2,292,2431.3,286.7z M2396.8,276c0-9,7.3-16.2,16.2-16.2s16.2,7.3,16.2,16.2s-7.3,16.2-16.2,16.2
		S2396.8,285,2396.8,276z"/>
	<path style="clip-path:url(#SVGID_00000116215546915649350900000000742060092478570930_);fill:#8B1725;" d="M1968.1,264.1
		c-2.7,3.6-4.4,8-4.4,12.9c0,9.9,6.9,18.3,16.1,20.6c1,0.2,2,0.4,3,0.5c0.7,0.1,1.5,0.1,2.2,0.1c6.5,0,12.2-2.9,16.1-7.5
		c0.7-0.8,1.2-1.6,1.8-2.4c1.9-3,3.1-6.6,3.3-10.4c0-0.3,0.1-0.7,0.1-1c0-0.7,0-1.3-0.1-2c-0.5-4.8-2.5-9.2-5.7-12.5
		c-0.7-0.7-1.4-1.4-2.2-2.1c-3.6-2.9-8.3-4.7-13.3-4.7c-5.8,0-11.1,2.3-14.9,6.1C1969.4,262.6,1968.7,263.3,1968.1,264.1z
		 M1985,260.8c9,0,16.2,7.3,16.2,16.2s-7.3,16.2-16.2,16.2s-16.2-7.3-16.2-16.2S1976,260.8,1985,260.8z"/>
	<path style="clip-path:url(#SVGID_00000116215546915649350900000000742060092478570930_);fill:#8B1725;" d="M1840.2,137
		c-2.8,3.6-4.4,8.1-4.4,13c0,7.1,3.5,13.3,8.8,17.2c0.8,0.6,1.7,1.1,2.5,1.6c3,1.6,6.3,2.5,9.9,2.5c5.3,0,10.1-2,13.8-5.2
		c0.8-0.7,1.5-1.4,2.1-2.1c3.3-3.7,5.3-8.6,5.3-14c0-11.7-9.5-21.2-21.2-21.2c-5.8,0-11,2.3-14.8,6.1
		C1841.5,135.5,1840.8,136.3,1840.2,137z M1857,133.8c9,0,16.2,7.3,16.2,16.2s-7.3,16.2-16.2,16.2s-16.2-7.3-16.2-16.2
		S1848,133.8,1857,133.8z"/>
	<path style="clip-path:url(#SVGID_00000116215546915649350900000000742060092478570930_);fill:#8B1725;" d="M2904.8,201
		c0,0.7,0,1.3,0.1,2c0.1,1,0.3,2,0.5,3c2.2,9.3,10.6,16.3,20.6,16.3c1.2,0,2.3-0.1,3.5-0.3c1-0.2,2-0.4,2.9-0.7
		c8-2.5,13.9-9.7,14.7-18.3c0.1-0.7,0.1-1.3,0.1-2c0-0.3,0-0.7-0.1-1c-0.5-11.3-9.8-20.2-21.2-20.2c-2.4,0-4.7,0.4-6.9,1.2
		c-1,0.3-1.9,0.7-2.8,1.2C2909.5,185.6,2904.8,192.8,2904.8,201z M2942.2,201c0,9-7.3,16.2-16.2,16.2s-16.2-7.3-16.2-16.2
		s7.3-16.2,16.2-16.2S2942.2,192,2942.2,201z"/>
	<path style="clip-path:url(#SVGID_00000116215546915649350900000000742060092478570930_);fill:#8B1725;" d="M3332.9,203
		c0.4,4.7,2.4,9,5.5,12.3c0.7,0.7,1.4,1.4,2.2,2.1c3.7,3,8.4,4.9,13.5,4.9c3.1,0,6-0.7,8.6-1.9c0.9-0.4,1.8-0.9,2.6-1.4
		c4.5-2.8,7.9-7.3,9.3-12.6c0.3-1,0.4-1.9,0.6-2.9c0.1-0.8,0.1-1.6,0.1-2.4c0-11.7-9.5-21.2-21.2-21.2c-2.9,0-5.6,0.6-8.2,1.6
		c-0.9,0.4-1.8,0.9-2.7,1.4c-6,3.5-10,9.9-10.4,17.2c0,0.3-0.1,0.7-0.1,1C3332.8,201.7,3332.8,202.3,3332.9,203z M3354,217.2
		c-9,0-16.2-7.3-16.2-16.2s7.3-16.2,16.2-16.2s16.2,7.3,16.2,16.2S3363,217.2,3354,217.2z"/>
	<path style="clip-path:url(#SVGID_00000116215546915649350900000000742060092478570930_);fill:#8B1725;" d="M3572.8,239
		c0,9.5,6.3,17.6,14.9,20.3c0.9,0.3,1.9,0.5,2.9,0.7c1.1,0.2,2.3,0.3,3.4,0.3c7.3,0,13.8-3.7,17.6-9.3c0.6-0.8,1-1.7,1.5-2.6
		c1.4-2.8,2.2-6,2.2-9.3c0-0.2,0-0.4,0-0.7c0-1-0.1-2-0.3-3c-0.9-5-3.5-9.4-7.2-12.6c-0.8-0.6-1.6-1.2-2.4-1.8
		c-3.3-2-7.1-3.2-11.2-3.2c-10.3,0-18.9,7.3-20.8,17c-0.2,1-0.3,2-0.4,3C3572.8,238.2,3572.8,238.6,3572.8,239z M3594,222.8
		c9,0,16.2,7.3,16.2,16.2s-7.3,16.2-16.2,16.2s-16.2-7.3-16.2-16.2S3585,222.8,3594,222.8z"/>
	<path style="clip-path:url(#SVGID_00000116215546915649350900000000742060092478570930_);fill:#8B1725;" d="M3831.8,207
		c0,0.5,0,1,0.1,1.5c0.1,1,0.2,2,0.4,3c2.1,9.6,10.6,16.7,20.8,16.7c2.6,0,5-0.5,7.3-1.3c0.9-0.3,1.9-0.7,2.7-1.2
		c4.5-2.4,7.9-6.4,9.8-11.1c0.4-0.9,0.7-1.9,0.9-2.9c0.3-1.5,0.5-3.1,0.5-4.7c0-3.8-1-7.3-2.8-10.4c-0.5-0.9-1.1-1.7-1.7-2.5
		c-3.9-5.1-10-8.3-16.8-8.3c-0.7,0-1.3,0-2,0.1c-1,0.1-2,0.3-3,0.5C3838.7,188.6,3831.8,197,3831.8,207z M3869.2,207
		c0,9-7.3,16.2-16.2,16.2s-16.2-7.3-16.2-16.2s7.3-16.2,16.2-16.2S3869.2,198,3869.2,207z"/>
	<path style="clip-path:url(#SVGID_00000116215546915649350900000000742060092478570930_);fill:#8B1725;" d="M2519.8,94
		c0,6.6,3,12.5,7.7,16.4c0.8,0.6,1.6,1.2,2.5,1.7c3.2,2,7,3.1,11.1,3.1c11.7,0,21.2-9.5,21.2-21.2c0-3.1-0.7-6.1-1.9-8.8
		c-0.4-0.9-0.9-1.8-1.4-2.6c-3.8-5.9-10.4-9.8-17.9-9.8c-10.5,0-19.3,7.7-20.9,17.8c-0.2,1-0.3,2-0.3,3
		C2519.8,93.7,2519.8,93.8,2519.8,94z M2524.8,94c0-9,7.3-16.2,16.2-16.2s16.2,7.3,16.2,16.2s-7.3,16.2-16.2,16.2
		S2524.8,103,2524.8,94z"/>
	<path style="clip-path:url(#SVGID_00000116215546915649350900000000742060092478570930_);fill:#8B1725;" d="M2214.2,72.2
		c3.8,3.7,9,6,14.8,6c4.4,0,8.5-1.4,11.9-3.7c0.8-0.6,1.6-1.2,2.3-1.9c3.2-2.9,5.5-6.8,6.5-11.2c0.2-1,0.3-2,0.4-3
		c0-0.5,0.1-1,0.1-1.6c0-11.7-9.5-21.2-21.2-21.2c-9.4,0-17.3,6.1-20.2,14.6c-0.3,0.9-0.6,1.9-0.7,2.9c-0.2,1.2-0.4,2.5-0.4,3.8
		c0,4.9,1.7,9.4,4.5,13C2212.8,70.8,2213.5,71.5,2214.2,72.2z M2229,40.8c9,0,16.2,7.3,16.2,16.2s-7.3,16.2-16.2,16.2
		s-16.2-7.3-16.2-16.2S2220,40.8,2229,40.8z"/>
	<path style="clip-path:url(#SVGID_00000116215546915649350900000000742060092478570930_);fill:#8B1725;" d="M3041.2,2027.5
		c0-0.2,0-0.3,0-0.5c0-0.9-0.1-1.7-0.2-2.5c-0.5-4.3-2.3-8.2-5-11.3c-0.7-0.8-1.4-1.5-2.1-2.1c-3.7-3.3-8.6-5.3-14-5.3
		c-1.3,0-2.5,0.1-3.7,0.3c-1,0.2-2,0.4-2.9,0.7c-5.2,1.7-9.6,5.5-12.1,10.3c-0.5,0.9-0.9,1.8-1.2,2.8c-0.8,2.2-1.3,4.6-1.3,7.2
		c0,0.1,0,0.3,0,0.4c0,1,0.1,2,0.3,3c1.6,10.1,10.4,17.9,21,17.9c0.1,0,0.2,0,0.3,0c1,0,2-0.1,3-0.3
		C3033.3,2046.4,3041,2037.8,3041.2,2027.5z M3003.8,2027c0-9,7.3-16.2,16.2-16.2s16.2,7.3,16.2,16.2s-7.3,16.2-16.2,16.2
		S3003.8,2036,3003.8,2027z"/>
	<path style="clip-path:url(#SVGID_00000116215546915649350900000000742060092478570930_);fill:#8B1725;" d="M3555.2,1989
		c0-11.4-9-20.7-20.2-21.2c-0.3,0-0.7-0.1-1-0.1c-0.7,0-1.3,0-2,0.1c-2.8,0.3-5.5,1.1-7.9,2.3c-0.9,0.5-1.7,1-2.5,1.6
		c-5.3,3.9-8.8,10.1-8.8,17.2c0,0.2,0,0.4,0,0.5c0,1,0.1,2,0.3,3c0.8,4.8,3.2,9.1,6.7,12.2c0.7,0.7,1.5,1.3,2.3,1.9
		c3.4,2.3,7.5,3.6,11.9,3.6c3.8,0,7.3-1,10.4-2.7c0.9-0.5,1.7-1.1,2.5-1.7C3552,2002,3555.2,1995.9,3555.2,1989z M3517.8,1989
		c0-9,7.3-16.2,16.2-16.2s16.2,7.3,16.2,16.2s-7.3,16.2-16.2,16.2S3517.8,1998,3517.8,1989z"/>
	<path style="clip-path:url(#SVGID_00000116215546915649350900000000742060092478570930_);fill:#8B1725;" d="M2472.1,2061.6
		c-1.2-10.6-10.2-18.8-21.1-18.8c-0.5,0-1.1,0-1.6,0.1c-1,0.1-2,0.2-3,0.4c-5.1,1.1-9.6,4.1-12.6,8.3c-0.6,0.8-1.1,1.7-1.6,2.5
		c-1.4,2.6-2.2,5.5-2.4,8.6c0,0.4-0.1,0.9-0.1,1.3c0,0.6,0,1.1,0.1,1.7c0.9,10.9,10,19.6,21.2,19.6c5,0,9.7-1.8,13.3-4.7
		c0.8-0.6,1.5-1.3,2.2-2.1c3.4-3.7,5.6-8.5,5.7-13.9c0-0.2,0-0.4,0-0.6C2472.2,2063.2,2472.2,2062.4,2472.1,2061.6z M2451,2080.2
		c-9,0-16.2-7.3-16.2-16.2s7.3-16.2,16.2-16.2s16.2,7.3,16.2,16.2S2460,2080.2,2451,2080.2z"/>
	<path style="clip-path:url(#SVGID_00000116215546915649350900000000742060092478570930_);fill:#8B1725;" d="M2426.3,1734.5
		c-0.8-0.6-1.6-1.2-2.5-1.7c-3.2-1.9-6.9-3-10.8-3c-4.9,0-9.4,1.7-13,4.5c-0.8,0.6-1.5,1.3-2.2,2c-3.5,3.6-5.7,8.4-5.9,13.8
		c0,0.3-0.1,0.7-0.1,1c0,0.7,0,1.3,0.1,2c1,10.8,10.1,19.2,21.1,19.2c0.2,0,0.3,0,0.5,0c1,0,2-0.1,3-0.3c6.3-1.1,11.7-4.9,14.8-10.2
		c0.5-0.9,1-1.8,1.3-2.7c1-2.5,1.6-5.2,1.6-8c0-0.4,0-0.8-0.1-1.2c-0.1-1-0.2-2-0.4-3C2432.9,1741.9,2430.1,1737.5,2426.3,1734.5z
		 M2429.2,1751c0,9-7.3,16.2-16.2,16.2s-16.2-7.3-16.2-16.2s7.3-16.2,16.2-16.2S2429.2,1742,2429.2,1751z"/>
	<path style="clip-path:url(#SVGID_00000116215546915649350900000000742060092478570930_);fill:#8B1725;" d="M2947.2,1675
		c-0.2-3.9-1.4-7.5-3.4-10.5c-0.5-0.8-1.2-1.6-1.8-2.4c-3-3.4-7-5.9-11.7-6.9c-1-0.2-2-0.3-3-0.4c-0.5,0-0.9-0.1-1.4-0.1
		c-4.9,0-9.3,1.7-12.9,4.4c-0.8,0.6-1.6,1.3-2.3,2c-3.7,3.8-6.1,9.1-6.1,14.8c0,0.7,0,1.3,0.1,2c0.1,1,0.3,2,0.5,3
		c2.2,9.3,10.6,16.3,20.6,16.3c1.2,0,2.3-0.1,3.5-0.3c1-0.2,2-0.4,2.9-0.7c8-2.5,13.9-9.7,14.7-18.3c0.1-0.7,0.1-1.3,0.1-2
		C2947.2,1675.7,2947.2,1675.3,2947.2,1675z M2909.8,1676c0-9,7.3-16.2,16.2-16.2s16.2,7.3,16.2,16.2s-7.3,16.2-16.2,16.2
		S2909.8,1685,2909.8,1676z"/>
	<path style="clip-path:url(#SVGID_00000116215546915649350900000000742060092478570930_);fill:#8B1725;" d="M3375.2,1676
		c0-0.9-0.1-1.7-0.2-2.5c-0.1-1-0.3-2-0.6-2.9c-2.1-8-8.9-14.2-17.2-15.5c-1-0.2-2-0.3-3-0.3c-0.1,0-0.2,0-0.3,0
		c-11.4,0-20.7,9-21.2,20.2c0,0.3-0.1,0.7-0.1,1c0,0.7,0,1.3,0.1,2c0.4,4.7,2.4,9,5.5,12.3c0.7,0.7,1.4,1.4,2.2,2.1
		c3.7,3,8.4,4.9,13.5,4.9c3.1,0,6-0.7,8.6-1.9c0.9-0.4,1.8-0.9,2.6-1.4C3371.3,1690.2,3375.2,1683.6,3375.2,1676z M3337.8,1676
		c0-9,7.3-16.2,16.2-16.2s16.2,7.3,16.2,16.2s-7.3,16.2-16.2,16.2S3337.8,1685,3337.8,1676z"/>
	<path style="clip-path:url(#SVGID_00000116215546915649350900000000742060092478570930_);fill:#8B1725;" d="M3554.6,1642.9
		c0.2-1,0.4-1.9,0.5-3c0.1-0.7,0.1-1.3,0.1-2c0-4.5-1.4-8.6-3.7-12c-0.6-0.8-1.2-1.6-1.9-2.3c-3.9-4.2-9.4-6.9-15.6-6.9
		c-11.7,0-21.2,9.5-21.2,21.2c0,1.1,0.1,2.2,0.3,3.3c0.2,1,0.4,2,0.7,2.9c2.5,8.1,9.6,14.1,18.3,14.9c0.7,0.1,1.3,0.1,2,0.1
		c0.3,0,0.7,0,1-0.1c6.3-0.3,11.9-3.3,15.6-8c0.6-0.8,1.2-1.6,1.7-2.5C3553.4,1646.9,3554.2,1645,3554.6,1642.9z M3517.8,1638
		c0-9,7.3-16.2,16.2-16.2s16.2,7.3,16.2,16.2s-7.3,16.2-16.2,16.2S3517.8,1647,3517.8,1638z"/>
	<path style="clip-path:url(#SVGID_00000116215546915649350900000000742060092478570930_);fill:#8B1725;" d="M3794.8,1412
		c0,4.5,1.4,8.7,3.8,12.1c0.6,0.8,1.2,1.6,1.9,2.3c3.9,4.2,9.4,6.8,15.5,6.8c0.3,0,0.5,0,0.8,0c1,0,2-0.1,3-0.3
		c9.9-1.8,17.4-10.5,17.4-20.9c0-2.6-0.5-5.1-1.4-7.4c-0.4-0.9-0.7-1.9-1.2-2.7c-3.6-6.6-10.6-11.1-18.7-11.1c-3.7,0-7.3,1-10.3,2.7
		c-0.9,0.5-1.7,1-2.5,1.7c-3.8,2.9-6.6,7-7.8,11.8c-0.2,1-0.4,1.9-0.5,3C3794.8,1410.5,3794.8,1411.3,3794.8,1412z M3832.2,1412
		c0,9-7.3,16.2-16.2,16.2s-16.2-7.3-16.2-16.2s7.3-16.2,16.2-16.2S3832.2,1403,3832.2,1412z"/>
	<path style="clip-path:url(#SVGID_00000116215546915649350900000000742060092478570930_);fill:#8B1725;" d="M3853,1660.8
		c-0.7,0-1.3,0-2,0.1c-1,0.1-2,0.3-3,0.5c-8.1,1.9-14.5,8.5-16,16.8c-0.2,1-0.3,2-0.3,3c0,0.3,0,0.6,0,0.8
		c0,11.7,9.5,21.2,21.2,21.2c2.6,0,5-0.5,7.3-1.3c0.9-0.3,1.9-0.7,2.7-1.2c4.5-2.4,7.9-6.4,9.8-11.1c0.4-0.9,0.7-1.9,0.9-2.9
		c0.3-1.5,0.5-3.1,0.5-4.7c0-6.6-3.1-12.6-7.8-16.5c-0.8-0.6-1.6-1.2-2.5-1.7C3860.8,1661.9,3857,1660.8,3853,1660.8z M3869.2,1682
		c0,9-7.3,16.2-16.2,16.2s-16.2-7.3-16.2-16.2s7.3-16.2,16.2-16.2S3869.2,1673,3869.2,1682z"/>
	<path style="clip-path:url(#SVGID_00000116215546915649350900000000742060092478570930_);fill:#8B1725;" d="M3375.9,1311.2
		c-3.2,3.7-5.1,8.5-5.1,13.7c0,0,0,0.1,0,0.1c0,1,0.1,1.9,0.2,2.9c0.4,3.2,1.5,6.1,3.2,8.7c0.5,0.8,1.2,1.6,1.8,2.4
		c3,3.5,7.1,6,11.8,6.9c1,0.2,2,0.3,3,0.4c0.4,0,0.8,0.1,1.2,0.1c9.5,0,17.6-6.3,20.3-15c0.3-0.9,0.5-1.9,0.7-2.9
		c0.2-1.1,0.3-2.2,0.3-3.4c0-11.7-9.5-21.2-21.2-21.2c-5.4,0-10.3,2-14,5.3C3377.2,1309.7,3376.5,1310.4,3375.9,1311.2z
		 M3392,1308.8c9,0,16.2,7.3,16.2,16.2s-7.3,16.2-16.2,16.2s-16.2-7.3-16.2-16.2S3383,1308.8,3392,1308.8z"/>
	<path style="clip-path:url(#SVGID_00000116215546915649350900000000742060092478570930_);fill:#8B1725;" d="M3003,1349.1
		c-1.4-10.4-10.3-18.4-21-18.4c-9.5,0-17.6,6.3-20.3,15c-0.3,0.9-0.5,1.9-0.7,2.9c-0.2,1.1-0.3,2.2-0.3,3.3
		c0,9.9,6.9,18.3,16.1,20.6c1,0.2,1.9,0.4,3,0.5c0.7,0.1,1.4,0.1,2.2,0.1c11.7,0,21.2-9.5,21.2-21.1c0,0,0-0.1,0-0.1
		C3003.2,1351,3003.2,1350.1,3003,1349.1z M2982,1368.2c-9,0-16.2-7.3-16.2-16.2s7.3-16.2,16.2-16.2s16.2,7.3,16.2,16.2
		S2991,1368.2,2982,1368.2z"/>
	<path style="clip-path:url(#SVGID_00000116215546915649350900000000742060092478570930_);fill:#8B1725;" d="M2599.2,1257
		c0-4.2-1.3-8.2-3.4-11.5c-0.5-0.8-1.2-1.6-1.8-2.4c-3.9-4.5-9.6-7.3-16-7.3c-4.8,0-9.1,1.6-12.7,4.2c-0.8,0.6-1.6,1.2-2.3,1.9
		c-3.7,3.6-6,8.6-6.2,14c0,0.3-0.1,0.7-0.1,1c0,0.7,0,1.3,0.1,2c0.9,9.3,7.8,16.9,16.7,18.8c1,0.2,2,0.3,3,0.4c0.5,0,1,0.1,1.4,0.1
		c4.4,0,8.4-1.3,11.8-3.6c0.8-0.6,1.6-1.2,2.4-1.9c2.5-2.3,4.5-5.2,5.7-8.4c0.3-0.9,0.6-1.9,0.9-2.9
		C2599.1,1260.1,2599.2,1258.5,2599.2,1257z M2578,1273.2c-9,0-16.2-7.3-16.2-16.2s7.3-16.2,16.2-16.2s16.2,7.3,16.2,16.2
		S2587,1273.2,2578,1273.2z"/>
	<path style="clip-path:url(#SVGID_00000116215546915649350900000000742060092478570930_);fill:#8B1725;" d="M2541,1547.8
		c-10.5,0-19.3,7.7-20.9,17.8c-0.2,1-0.3,2-0.3,3c0,0.2,0,0.3,0,0.4c0,6.6,3,12.5,7.7,16.4c0.8,0.6,1.6,1.2,2.5,1.7
		c3.2,2,7,3.1,11.1,3.1c11.7,0,21.2-9.5,21.2-21.2c0-10.5-7.7-19.2-17.7-20.9c-1-0.2-2-0.3-3-0.3
		C2541.4,1547.8,2541.2,1547.8,2541,1547.8z M2541,1552.8c9,0,16.2,7.3,16.2,16.2s-7.3,16.2-16.2,16.2s-16.2-7.3-16.2-16.2
		S2532,1552.8,2541,1552.8z"/>
	<path style="clip-path:url(#SVGID_00000116215546915649350900000000742060092478570930_);fill:#8B1725;" d="M2241.1,1549.4
		c0.8-0.6,1.6-1.2,2.3-1.9c3.1-2.9,5.3-6.7,6.3-11c0.2-1,0.3-2,0.4-3c0-0.5,0.1-1,0.1-1.6c0-11.7-9.5-21.2-21.2-21.2
		c-3.7,0-7.2,0.9-10.2,2.6c-0.9,0.5-1.7,1-2.5,1.6c-5.2,3.9-8.5,10-8.5,17c0,1.5,0.2,2.9,0.5,4.4c0.2,1,0.5,1.9,0.8,2.9
		c0.8,2.1,1.8,4,3.2,5.8c0.6,0.8,1.3,1.5,2,2.2c3.8,3.7,9,6,14.8,6C2233.5,1553.2,2237.7,1551.8,2241.1,1549.4z M2212.8,1532
		c0-9,7.3-16.2,16.2-16.2s16.2,7.3,16.2,16.2s-7.3,16.2-16.2,16.2S2212.8,1541,2212.8,1532z"/>
	<path style="clip-path:url(#SVGID_00000116215546915649350900000000742060092478570930_);fill:#8B1725;" d="M1450.8,865
		c0,3.8,1,7.3,2.7,10.4c0.5,0.9,1.1,1.7,1.7,2.5c3.9,5.1,10,8.4,16.9,8.4c2.7,0,5.3-0.5,7.7-1.5c0.9-0.4,1.8-0.8,2.7-1.3
		c5.6-3.2,9.6-8.9,10.6-15.5c0.1-1,0.2-2,0.2-3c0,0,0,0,0,0c0-7.8-4.2-14.6-10.5-18.3c-0.9-0.5-1.7-1-2.7-1.4
		c-2.5-1-5.2-1.6-8.1-1.6c-7,0-13.3,3.5-17.1,8.7c-0.6,0.8-1.1,1.6-1.6,2.5C1451.7,858,1450.8,861.4,1450.8,865z M1472,848.8
		c9,0,16.2,7.3,16.2,16.2s-7.3,16.2-16.2,16.2s-16.2-7.3-16.2-16.2S1463,848.8,1472,848.8z"/>
	<path style="clip-path:url(#SVGID_00000116215546915649350900000000742060092478570930_);fill:#8B1725;" d="M1293.8,765
		c0,6.8,3.2,12.8,8.1,16.7c0.8,0.6,1.6,1.2,2.5,1.7c3.1,1.8,6.8,2.9,10.6,2.9c6.9,0,13.1-3.3,17-8.5c0.6-0.8,1.2-1.6,1.6-2.5
		c1.7-3,2.6-6.5,2.6-10.3c0-4.5-1.4-8.7-3.8-12.1c-0.6-0.8-1.2-1.6-1.9-2.3c-3.9-4.2-9.4-6.8-15.6-6.8c-2.6,0-5,0.5-7.3,1.3
		c-0.9,0.3-1.9,0.7-2.7,1.2c-4.1,2.2-7.4,5.7-9.3,9.9c-0.4,0.9-0.8,1.8-1.1,2.8C1294.1,760.9,1293.8,762.9,1293.8,765z M1315,781.2
		c-9,0-16.2-7.3-16.2-16.2s7.3-16.2,16.2-16.2s16.2,7.3,16.2,16.2S1324,781.2,1315,781.2z"/>
	<path style="clip-path:url(#SVGID_00000116215546915649350900000000742060092478570930_);fill:#8B1725;" d="M1073.2,1101.2
		c-0.7-0.7-1.5-1.3-2.4-1.9c-3.4-2.3-7.5-3.6-11.8-3.6c-3.6,0-7.1,0.9-10.1,2.5c-0.9,0.5-1.7,1-2.5,1.6c-1.7,1.3-3.3,2.8-4.6,4.6
		c-0.6,0.8-1.1,1.6-1.6,2.5c-1.4,2.6-2.2,5.5-2.4,8.7c0,0.4-0.1,0.9-0.1,1.3c0,0.6,0,1.1,0.1,1.7c0.2,2.8,1,5.4,2.2,7.8
		c0.5,0.9,1,1.8,1.5,2.6c3.1,4.4,7.8,7.6,13.3,8.7c1,0.2,2,0.3,3,0.4c0.4,0,0.8,0.1,1.2,0.1c11.7,0,21.2-9.5,21.2-21.2
		c0-3.3-0.8-6.4-2.1-9.1c-0.4-0.9-0.9-1.8-1.5-2.6C1075.7,1103.8,1074.5,1102.4,1073.2,1101.2z M1075.2,1117c0,9-7.3,16.2-16.2,16.2
		c-9,0-16.2-7.3-16.2-16.2s7.3-16.2,16.2-16.2C1068,1100.8,1075.2,1108,1075.2,1117z"/>
	<path style="clip-path:url(#SVGID_00000116215546915649350900000000742060092478570930_);fill:#8B1725;" d="M657,883.2
		c6.9,0,13.1-3.4,17-8.5c0.6-0.8,1.2-1.6,1.6-2.5c1.7-3,2.6-6.5,2.6-10.2c0-10.7-8-19.6-18.4-21c-0.9-0.1-1.9-0.2-2.9-0.2
		c0,0-0.1,0-0.1,0c-10.5,0.1-19.2,7.8-20.8,17.9c-0.2,1-0.3,2-0.3,3c0,0.1,0,0.2,0,0.4c0,4.4,1.3,8.4,3.6,11.8
		c0.6,0.8,1.2,1.6,1.9,2.4C645.1,880.5,650.7,883.2,657,883.2z M640.8,862c0-9,7.3-16.2,16.2-16.2s16.2,7.3,16.2,16.2
		s-7.3,16.2-16.2,16.2S640.8,871,640.8,862z"/>
	<path style="clip-path:url(#SVGID_00000116215546915649350900000000742060092478570930_);fill:#8B1725;" d="M1155.7,419.9
		c-0.9,0.4-1.8,0.9-2.6,1.5c-5.6,3.8-9.3,10.3-9.3,17.6c0,0.8,0,1.5,0.1,2.3c0.1,1,0.3,2,0.6,3c2.3,9.2,10.7,16,20.6,16
		c2.7,0,5.3-0.5,7.7-1.5c0.9-0.4,1.8-0.8,2.7-1.3c5.4-3.1,9.4-8.5,10.5-14.9c0.2-1,0.3-2,0.3-3c0-0.2,0-0.4,0-0.6
		c0-6.1-2.6-11.6-6.7-15.5c-0.7-0.7-1.5-1.3-2.3-1.9c-3.5-2.4-7.7-3.9-12.2-3.9C1161.7,417.8,1158.5,418.5,1155.7,419.9z
		 M1181.2,439c0,9-7.3,16.2-16.2,16.2c-9,0-16.2-7.3-16.2-16.2c0-9,7.3-16.2,16.2-16.2C1174,422.8,1181.2,430,1181.2,439z"/>
	<path style="clip-path:url(#SVGID_00000116215546915649350900000000742060092478570930_);fill:#8B1725;" d="M669.2,535
		c0.9,0.1,1.9,0.2,2.8,0.2c0.1,0,0.1,0,0.2,0c3.4,0,6.6-0.9,9.4-2.3c0.9-0.5,1.8-1,2.6-1.5c2.8-2,5.1-4.6,6.7-7.7
		c0.5-0.9,0.8-1.8,1.2-2.8c0.7-2.2,1.2-4.5,1.2-6.9c0-0.4,0-0.9-0.1-1.3c-0.1-1-0.2-2-0.4-3c-0.9-4.4-3.2-8.3-6.3-11.3
		c-0.7-0.7-1.5-1.3-2.3-1.9c-3.4-2.4-7.6-3.8-12.2-3.8c-4.7,0-9,1.5-12.5,4.1c-0.8,0.6-1.6,1.2-2.3,1.9c-4,3.9-6.5,9.3-6.5,15.2
		c0,3.1,0.7,6,1.9,8.7c0.4,0.9,0.9,1.8,1.4,2.6C657.3,530.5,662.8,534.2,669.2,535z M655.8,514c0-9,7.3-16.2,16.2-16.2
		s16.2,7.3,16.2,16.2c0,9-7.3,16.2-16.2,16.2S655.8,523,655.8,514z"/>
	<path style="clip-path:url(#SVGID_00000116215546915649350900000000742060092478570930_);fill:#8B1725;" d="M119,781.8
		c-4.6,0-8.9,1.5-12.4,4c-0.8,0.6-1.6,1.2-2.3,1.9c-4,3.9-6.6,9.3-6.6,15.3c0,1.6,0.2,3.2,0.5,4.7c0.2,1,0.5,1.9,0.9,2.9
		c3.1,8,10.8,13.7,19.8,13.7c3.5,0,6.8-0.9,9.8-2.4c0.9-0.5,1.7-1,2.6-1.6c4.3-3.1,7.4-7.6,8.5-12.9c0.2-1,0.3-2,0.4-3
		c0-0.5,0.1-0.9,0.1-1.4c0-2.9-0.6-5.7-1.7-8.3c-0.4-0.9-0.9-1.8-1.4-2.7c-2.8-4.6-7.3-8.1-12.6-9.5c-1-0.3-1.9-0.5-2.9-0.6
		C120.7,781.8,119.9,781.8,119,781.8z M135.2,803c0,9-7.3,16.2-16.2,16.2s-16.2-7.3-16.2-16.2s7.3-16.2,16.2-16.2
		S135.2,794,135.2,803z"/>
	<path style="clip-path:url(#SVGID_00000116215546915649350900000000742060092478570930_);fill:#8B1725;" d="M340.2,1106.3
		c-0.1-3.8-1.2-7.3-3.1-10.4c-0.5-0.9-1.1-1.7-1.7-2.5c-3.9-4.7-9.8-7.7-16.4-7.7c-4,0-7.8,1.1-11,3.1c-0.9,0.5-1.7,1.1-2.5,1.7
		c-4.8,3.9-7.8,9.8-7.8,16.4c0,3,0.6,5.8,1.7,8.3c0.4,0.9,0.9,1.8,1.4,2.7c3.7,6.1,10.5,10.3,18.2,10.3c6.6,0,12.5-3,16.4-7.7
		c0.6-0.8,1.2-1.6,1.7-2.5c1.6-2.6,2.7-5.6,3-8.8c0.1-0.8,0.1-1.5,0.1-2.3C340.2,1106.8,340.2,1106.5,340.2,1106.3z M319,1123.2
		c-9,0-16.2-7.3-16.2-16.2s7.3-16.2,16.2-16.2s16.2,7.3,16.2,16.2S328,1123.2,319,1123.2z"/>
	<path style="clip-path:url(#SVGID_00000116215546915649350900000000742060092478570930_);fill:#8B1725;" d="M326.8,79.2
		c-3.7,3.8-6.1,9.1-6.1,14.8c0,7.7,4.1,14.4,10.2,18.1c0.9,0.5,1.7,1,2.7,1.4c2.6,1.1,5.4,1.7,8.3,1.7c4.2,0,8-1.2,11.3-3.3
		c0.8-0.5,1.7-1.1,2.4-1.8c4.6-3.9,7.5-9.7,7.5-16.2c0-0.6,0-1.2-0.1-1.8c-0.1-1-0.2-2-0.5-3c-2.2-9.4-10.6-16.5-20.7-16.5
		c-4.9,0-9.3,1.7-12.9,4.4C328.3,77.8,327.5,78.4,326.8,79.2z M358.2,94c0,9-7.3,16.2-16.2,16.2S325.8,103,325.8,94
		S333,77.8,342,77.8S358.2,85,358.2,94z"/>
	<path style="clip-path:url(#SVGID_00000116215546915649350900000000742060092478570930_);fill:#8B1725;" d="M211.7,362.3
		c0.9,0.3,1.9,0.5,2.9,0.7c1.1,0.2,2.2,0.3,3.4,0.3c11.7,0,21.2-9.5,21.2-21.2c0-7.8-4.3-14.7-10.6-18.4c-0.9-0.5-1.8-0.9-2.7-1.3
		c-2.5-1-5.1-1.5-7.9-1.5c-0.3,0-0.5,0-0.8,0c-1,0-2,0.1-3,0.3c-7.8,1.4-14.1,7-16.5,14.5c-0.3,0.9-0.5,1.9-0.7,2.9
		c-0.2,1.1-0.3,2.3-0.3,3.5c0,1.4,0.1,2.8,0.4,4.1c0.2,1,0.5,2,0.8,2.9C200.2,355.3,205.3,360.3,211.7,362.3z M201.8,342
		c0-9,7.3-16.2,16.2-16.2c9,0,16.2,7.3,16.2,16.2c0,9-7.3,16.2-16.2,16.2C209,358.2,201.8,351,201.8,342z"/>
	<path style="clip-path:url(#SVGID_00000116215546915649350900000000742060092478570930_);fill:#8B1725;" d="M1628.9,474.3
		c-0.1,0.9-0.2,1.8-0.2,2.7c0,0.1,0,0.2,0,0.3c0.1,4.9,1.8,9.4,4.6,12.9c0.6,0.8,1.3,1.5,2,2.2c1.5,1.4,3.1,2.6,5,3.5
		c0.9,0.5,1.8,0.8,2.8,1.2c2.2,0.7,4.4,1.2,6.8,1.2c8.9,0,16.6-5.5,19.7-13.4c0.4-0.9,0.7-1.9,0.9-2.9c0.4-1.6,0.6-3.3,0.6-5
		c0-6.8-3.2-12.8-8.1-16.7c-0.8-0.6-1.6-1.2-2.5-1.7c-3.1-1.8-6.8-2.9-10.6-2.9c-0.3,0-0.5,0-0.8,0c-1,0-2,0.1-3,0.3
		C1637.2,457.7,1630.1,465.1,1628.9,474.3z M1666.2,477c0,9-7.3,16.2-16.2,16.2s-16.2-7.3-16.2-16.2c0-9,7.3-16.2,16.2-16.2
		S1666.2,468,1666.2,477z"/>
	<path style="clip-path:url(#SVGID_00000116215546915649350900000000742060092478570930_);fill:#8B1725;" d="M961.8,131
		c0,6.3,2.8,12,7.2,15.9c0.8,0.7,1.5,1.3,2.4,1.8c3.3,2.2,7.3,3.5,11.6,3.5c3.5,0,6.7-0.9,9.6-2.3c0.9-0.5,1.8-1,2.6-1.5
		c5.5-3.8,9-10.2,9-17.4c0-1.8-0.3-3.6-0.7-5.3c-0.3-1-0.6-1.9-0.9-2.9c-2.6-6.2-8-10.9-14.6-12.5c-1-0.2-1.9-0.4-3-0.5
		c-0.7-0.1-1.4-0.1-2-0.1c-7.7,0-14.4,4.1-18.2,10.3c-0.5,0.9-1,1.7-1.4,2.7C962.4,125.2,961.8,128.1,961.8,131z M983,114.8
		c9,0,16.2,7.3,16.2,16.2s-7.3,16.2-16.2,16.2c-9,0-16.2-7.3-16.2-16.2S974,114.8,983,114.8z"/>
	<path style="clip-path:url(#SVGID_00000116215546915649350900000000742060092478570930_);fill:#8B1725;" d="M770,40.2
		c7.4,0,13.9-3.8,17.7-9.5c0.6-0.8,1-1.7,1.5-2.6c1.3-2.8,2.1-5.8,2.1-9.1c0-11.7-9.5-21.2-21.2-21.2c-3.6,0-6.9,0.9-9.8,2.4
		c-0.9,0.5-1.7,1-2.5,1.6c-5.4,3.9-8.9,10.1-8.9,17.2c0,0.9,0.1,1.7,0.2,2.6c0.1,1,0.3,2,0.6,2.9C751.9,33.6,760.2,40.2,770,40.2z
		 M753.8,19c0-9,7.3-16.2,16.2-16.2S786.2,10,786.2,19S779,35.2,770,35.2S753.8,28,753.8,19z"/>
	<path style="clip-path:url(#SVGID_00000116215546915649350900000000742060092478570930_);fill:#8B1725;" d="M1185.9,1917.6
		c0.2-1,0.3-2,0.3-3c0-0.2,0-0.4,0-0.6c0-6.3-2.8-11.9-7.1-15.8c-0.7-0.7-1.5-1.3-2.4-1.9c-3.4-2.3-7.4-3.6-11.8-3.6
		c-3.3,0-6.5,0.8-9.3,2.2c-0.9,0.4-1.8,0.9-2.6,1.5c-5.6,3.8-9.3,10.3-9.3,17.6c0,2.3,0.4,4.6,1.1,6.7c0.3,1,0.7,1.9,1.2,2.8
		c3.5,7,10.7,11.8,19,11.8c2.7,0,5.3-0.5,7.7-1.5c0.9-0.4,1.8-0.8,2.7-1.3C1180.9,1929.4,1184.8,1924,1185.9,1917.6z M1148.8,1914
		c0-9,7.3-16.2,16.2-16.2c9,0,16.2,7.3,16.2,16.2s-7.3,16.2-16.2,16.2C1156,1930.2,1148.8,1923,1148.8,1914z"/>
	<path style="clip-path:url(#SVGID_00000116215546915649350900000000742060092478570930_);fill:#8B1725;" d="M789.5,2072.5
		c0.4-0.9,0.7-1.9,1-2.8c0.5-1.8,0.8-3.7,0.8-5.7c0-2-0.3-4-0.8-5.8c-0.3-1-0.6-1.9-1-2.8c-1.9-4.3-5.2-7.8-9.3-10
		c-0.9-0.5-1.8-0.9-2.7-1.2c-2.3-0.9-4.8-1.3-7.4-1.3c-5,0-9.6,1.8-13.3,4.7c-0.8,0.6-1.5,1.3-2.2,2c-3.6,3.8-5.8,8.9-5.8,14.5
		c0,1.9,0.3,3.7,0.7,5.5c0.3,1,0.6,1.9,1,2.8c1.9,4.5,5.4,8.2,9.7,10.5c0.9,0.5,1.8,0.9,2.8,1.2c2.2,0.8,4.6,1.2,7.1,1.2
		c3.2,0,6.2-0.7,8.9-2c0.9-0.4,1.8-0.9,2.6-1.4C785,2079.6,787.8,2076.3,789.5,2072.5z M753.8,2064c0-9,7.3-16.2,16.2-16.2
		s16.2,7.3,16.2,16.2s-7.3,16.2-16.2,16.2S753.8,2073,753.8,2064z"/>
	<path style="clip-path:url(#SVGID_00000116215546915649350900000000742060092478570930_);fill:#8B1725;" d="M342,1547.8
		c-5.6,0-10.7,2.2-14.5,5.8c-0.7,0.7-1.4,1.4-2,2.2c-2.9,3.6-4.7,8.2-4.7,13.3c0,7.7,4.1,14.4,10.2,18.1c0.9,0.5,1.7,1,2.7,1.4
		c2.6,1.1,5.4,1.7,8.3,1.7c4.5,0,8.7-1.4,12.1-3.8c0.8-0.6,1.6-1.2,2.3-1.9c4.2-3.9,6.8-9.4,6.8-15.5c0-3.8-1-7.4-2.8-10.5
		c-0.5-0.9-1.1-1.7-1.7-2.5C354.9,1551,348.8,1547.8,342,1547.8z M358.2,1569c0,9-7.3,16.2-16.2,16.2s-16.2-7.3-16.2-16.2
		s7.3-16.2,16.2-16.2S358.2,1560,358.2,1569z"/>
	<path style="clip-path:url(#SVGID_00000116215546915649350900000000742060092478570930_);fill:#8B1725;" d="M218,1795.8
		c-2.1,0-4.1,0.3-6.1,0.9c-1,0.3-1.9,0.7-2.8,1.1c-5.4,2.5-9.6,7.1-11.4,12.8c-0.3,0.9-0.5,1.9-0.7,2.9c-0.2,1.1-0.3,2.3-0.3,3.5
		c0,1.4,0.1,2.8,0.4,4.1c0.2,1,0.5,2,0.8,2.9c2.2,6.3,7.3,11.3,13.8,13.3c0.9,0.3,1.9,0.5,2.9,0.7c1.1,0.2,2.2,0.3,3.4,0.3
		c11.7,0,21.2-9.5,21.2-21.2c0-7.8-4.3-14.7-10.6-18.4c-0.9-0.5-1.8-0.9-2.7-1.3C223.5,1796.3,220.8,1795.8,218,1795.8z M218,1833.2
		c-9,0-16.2-7.3-16.2-16.2s7.3-16.2,16.2-16.2c9,0,16.2,7.3,16.2,16.2S227,1833.2,218,1833.2z"/>
	<path style="clip-path:url(#SVGID_00000116215546915649350900000000742060092478570930_);fill:#8B1725;" d="M26,1235.8
		c-8.1,0-15.2,4.6-18.8,11.3c-0.5,0.9-0.9,1.8-1.2,2.7c-0.8,2.2-1.3,4.6-1.3,7.2c0,2.6,0.5,5.1,1.4,7.4c0.4,0.9,0.7,1.9,1.2,2.7
		c1.3,2.4,3,4.4,5.1,6.1c0.8,0.6,1.6,1.2,2.4,1.7c3.2,2,7.1,3.2,11.2,3.2c1.7,0,3.3-0.2,4.8-0.6c1-0.2,1.9-0.5,2.9-0.9
		c2.1-0.8,4.1-2,5.8-3.4c0.8-0.6,1.5-1.3,2.2-2.1c2.5-2.7,4.3-6,5.1-9.7c0.2-1,0.4-2,0.4-3c0-0.5,0.1-1.1,0.1-1.6
		c0-3-0.6-5.8-1.7-8.3c-0.4-0.9-0.9-1.8-1.4-2.7C40.4,1239.9,33.7,1235.8,26,1235.8z M42.2,1257c0,9-7.3,16.2-16.2,16.2
		S9.8,1266,9.8,1257s7.3-16.2,16.2-16.2S42.2,1248,42.2,1257z"/>
	<path style="clip-path:url(#SVGID_00000116215546915649350900000000742060092478570930_);fill:#8B1725;" d="M1672.1,1245.5
		c0.1-0.8,0.2-1.7,0.2-2.5c0-0.2,0-0.3,0-0.5c-0.3-11.5-9.7-20.8-21.2-20.8c-2.6,0-5,0.5-7.3,1.3c-0.9,0.3-1.9,0.7-2.7,1.2
		c-5.2,2.8-9.1,7.8-10.6,13.7c-0.2,1-0.4,1.9-0.5,3c-0.1,0.7-0.1,1.4-0.1,2.1c0,6.8,3.2,12.8,8.2,16.7c0.8,0.6,1.6,1.2,2.5,1.7
		c0.1,0,0.1,0.1,0.2,0.1c1.1,0.6,2.3,1.1,3.5,1.6c1.9,0.6,3.8,1,5.9,1.1c0.3,0,0.7,0.1,1,0.1c0.7,0,1.3,0,2-0.1
		c3.8-0.3,7.3-1.7,10.2-3.8c0.8-0.6,1.6-1.2,2.3-1.9C1669.1,1255.2,1671.5,1250.6,1672.1,1245.5z M1651,1259.2
		c-9,0-16.2-7.3-16.2-16.2s7.3-16.2,16.2-16.2s16.2,7.3,16.2,16.2S1660,1259.2,1651,1259.2z"/>
	<path style="clip-path:url(#SVGID_00000116215546915649350900000000742060092478570930_);fill:#8B1725;" d="M1671.2,1952
		c0-3.2-0.8-6.3-2.1-9.1c-0.4-0.9-0.9-1.8-1.5-2.6c-0.7-1.1-1.5-2.1-2.4-3c-0.7-0.7-1.4-1.4-2.2-2c-3.1-2.5-6.9-4.1-11.1-4.5
		c-0.7-0.1-1.3-0.1-2-0.1c-0.3,0-0.6,0-1,0c-10.4,0.5-18.8,8.4-20.1,18.5c-0.1,0.9-0.2,1.8-0.2,2.7c0,0.1,0,0.2,0,0.3
		c0.1,4.9,1.8,9.4,4.6,12.9c0.6,0.8,1.3,1.5,2,2.2c1.5,1.4,3.1,2.6,5,3.5c0.9,0.5,1.8,0.8,2.8,1.2c2.2,0.7,4.4,1.2,6.8,1.2
		c9.2,0,17-5.9,20-14.1c0.3-0.9,0.6-1.9,0.8-2.9C1671.1,1954.9,1671.2,1953.5,1671.2,1952z M1650,1968.2c-9,0-16.2-7.3-16.2-16.2
		s7.3-16.2,16.2-16.2s16.2,7.3,16.2,16.2S1659,1968.2,1650,1968.2z"/>
	<path style="clip-path:url(#SVGID_00000116215546915649350900000000742060092478570930_);fill:#8B1725;" d="M1004.2,1606
		c0-2.8-0.6-5.4-1.5-7.9c-0.4-0.9-0.8-1.8-1.3-2.7c-2.9-5.1-7.8-8.8-13.7-10.1c-1-0.2-2-0.4-3-0.5c-0.6,0-1.2-0.1-1.8-0.1
		c-6.2,0-11.9,2.7-15.7,7c-0.7,0.7-1.3,1.5-1.9,2.3c-2.3,3.4-3.6,7.5-3.6,11.9c0,8.2,4.7,15.3,11.5,18.9c0.9,0.5,1.8,0.8,2.8,1.2
		c2.2,0.8,4.5,1.2,7,1.2c3.5,0,6.7-0.9,9.6-2.3c0.9-0.5,1.8-1,2.6-1.5C1000.7,1619.5,1004.2,1613.2,1004.2,1606z M983,1589.8
		c9,0,16.2,7.3,16.2,16.2s-7.3,16.2-16.2,16.2c-9,0-16.2-7.3-16.2-16.2S974,1589.8,983,1589.8z"/>
	<path style="clip-path:url(#SVGID_00000116215546915649350900000000742060092478570930_);fill:#8B1725;" d="M683.2,1352
		c0-3.4-0.8-6.6-2.3-9.5c-0.5-0.9-1-1.8-1.5-2.6c-3.8-5.5-10.2-9.2-17.5-9.2c-6.6,0-12.5,3-16.4,7.7c-0.6,0.8-1.2,1.6-1.7,2.5
		c-1.2,2-2.1,4.1-2.6,6.5c-0.2,1-0.4,2-0.4,3c0,0.5-0.1,1.1-0.1,1.6c0,3.9,1.1,7.6,3,10.8c0.5,0.9,1.1,1.7,1.7,2.5
		c3.9,4.9,9.9,8,16.6,8c6,0,11.4-2.5,15.2-6.4c0.7-0.7,1.3-1.5,1.9-2.3C681.7,1361,683.2,1356.7,683.2,1352z M662,1368.2
		c-9,0-16.2-7.3-16.2-16.2s7.3-16.2,16.2-16.2s16.2,7.3,16.2,16.2S671,1368.2,662,1368.2z"/>
</g>
</svg>
